<svg width="23" height="23" viewBox="0 0 23 23" fill="none" xmlns="http://www.w3.org/2000/svg">
<path d="M17.25 12.4567H12.4583V17.2484C12.4583 17.5025 12.3574 17.7463 12.1776 17.926C11.9979 18.1057 11.7542 18.2067 11.5 18.2067C11.2458 18.2067 11.0021 18.1057 10.8224 17.926C10.6426 17.7463 10.5417 17.5025 10.5417 17.2484V12.4567H5.75001C5.49584 12.4567 5.25208 12.3557 5.07236 12.176C4.89264 11.9963 4.79167 11.7525 4.79167 11.4984C4.79167 11.2442 4.89264 11.0005 5.07236 10.8207C5.25208 10.641 5.49584 10.54 5.75001 10.54H10.5417V5.74837C10.5417 5.49421 10.6426 5.25045 10.8224 5.07073C11.0021 4.89101 11.2458 4.79004 11.5 4.79004C11.7542 4.79004 11.9979 4.89101 12.1776 5.07073C12.3574 5.25045 12.4583 5.49421 12.4583 5.74837V10.54H17.25C17.5042 10.54 17.7479 10.641 17.9276 10.8207C18.1074 11.0005 18.2083 11.2442 18.2083 11.4984C18.2083 11.7525 18.1074 11.9963 17.9276 12.176C17.7479 12.3557 17.5042 12.4567 17.25 12.4567Z" fill="#323232"/>
</svg>
