<svg width="24" height="24" viewBox="0 0 24 24" fill="none" xmlns="http://www.w3.org/2000/svg">
<g id="apartment-svgrepo-com 1">
<path id="Vector" d="M22 1H10C9.73478 1 9.48043 1.10536 9.29289 1.29289C9.10536 1.48043 9 1.73478 9 2V7H2C1.73478 7 1.48043 7.10536 1.29289 7.29289C1.10536 7.48043 1 7.73478 1 8V22C1 22.2652 1.10536 22.5196 1.29289 22.7071C1.48043 22.8946 1.73478 23 2 23H22C22.2652 23 22.5196 22.8946 22.7071 22.7071C22.8946 22.5196 23 22.2652 23 22V2C23 1.73478 22.8946 1.48043 22.7071 1.29289C22.5196 1.10536 22.2652 1 22 1ZM3 9H9V21H3V9ZM21 21H11V3H21V21ZM19 7H13V5H19V7ZM19 11H13V9H19V11ZM19 15H13V13H19V15ZM19 19H13V17H19V19ZM5 10H7V12H5V10ZM5 14H7V16H5V14ZM5 18H7V20H5V18Z" fill="black"/>
</g>
</svg>
