<svg width="24" height="23" viewBox="0 0 24 23" fill="none" xmlns="http://www.w3.org/2000/svg">
<path d="M19.6667 13.6757V9.58366C19.6667 5.34783 16.2358 1.91699 12 1.91699C7.76417 1.91699 4.33333 5.34783 4.33333 9.58366V13.6757C3.75833 14.0016 3.375 14.6245 3.375 15.3337V19.167C3.375 20.2212 4.2375 21.0837 5.29167 21.0837H18.7083C19.7625 21.0837 20.625 20.2212 20.625 19.167V15.3337C20.625 14.6245 20.2417 14.0016 19.6667 13.6757ZM7.20833 19.167H5.29167V15.3337H7.20833V19.167ZM11.0417 19.167H9.125V15.3337H11.0417V19.167ZM11.0417 13.417H6.25V9.58366C6.25 6.73741 8.32 4.37033 11.0417 3.91033V13.417ZM12.9583 3.91033C14.2988 4.13691 15.5156 4.83111 16.3928 5.86973C17.2701 6.90834 17.7509 8.22417 17.75 9.58366V13.417H12.9583V3.91033ZM14.875 19.167H12.9583V15.3337H14.875V19.167ZM18.7083 19.167H16.7917V15.3337H18.7083V19.167ZM8.16667 10.542C8.16667 10.0149 8.59792 9.58366 9.125 9.58366C9.65208 9.58366 10.0833 10.0149 10.0833 10.542C10.0833 11.0691 9.65208 11.5003 9.125 11.5003C8.59792 11.5003 8.16667 11.0691 8.16667 10.542ZM15.8333 10.542C15.8333 11.0691 15.4021 11.5003 14.875 11.5003C14.3479 11.5003 13.9167 11.0691 13.9167 10.542C13.9167 10.0149 14.3479 9.58366 14.875 9.58366C15.4021 9.58366 15.8333 10.0149 15.8333 10.542Z" fill="#323232"/>
</svg>
