<svg width="22" height="22" viewBox="0 0 22 22" fill="none" xmlns="http://www.w3.org/2000/svg">
<g id="stairway 1" clip-path="url(#clip0_1231_1349)">
<path id="Vector" d="M10.9731 -0.016089C11.0268 -0.0160539 11.0268 -0.0160539 11.0815 -0.0160182C13.1274 -0.00989792 14.9879 0.772809 16.457 2.19143C16.4935 2.22572 16.53 2.26 16.5676 2.29533C17.8528 3.53214 18.7248 5.43115 18.7814 7.22002C18.7832 7.37481 18.7836 7.52956 18.7836 7.68437C18.7838 7.74425 18.7839 7.80413 18.7841 7.86401C18.7845 8.02774 18.7847 8.19147 18.7848 8.3552C18.785 8.53208 18.7854 8.70896 18.7857 8.88585C18.7866 9.31235 18.787 9.73885 18.7874 10.1654C18.7876 10.3663 18.7878 10.5673 18.7881 10.7682C18.7888 11.4363 18.7894 12.1043 18.7897 12.7723C18.7898 12.9454 18.7899 13.1185 18.79 13.2916C18.79 13.3346 18.79 13.3776 18.79 13.422C18.7904 14.1199 18.7915 14.8178 18.7929 15.5157C18.7943 16.2325 18.7951 16.9493 18.7952 17.6661C18.7953 18.0685 18.7957 18.4708 18.7968 18.8732C18.7977 19.2156 18.7981 19.5579 18.7976 19.9003C18.7974 20.075 18.7975 20.2497 18.7984 20.4244C18.7991 20.5843 18.7991 20.7442 18.7984 20.9041C18.7982 20.9893 18.7989 21.0746 18.7997 21.1599C18.7962 21.6321 18.7962 21.6321 18.6054 21.8281C18.365 22.0632 18.0761 22.024 17.7604 22.0218C17.6998 22.022 17.6391 22.0223 17.5785 22.0227C17.412 22.0234 17.2455 22.023 17.0791 22.0225C16.8995 22.0221 16.7198 22.0227 16.5402 22.0232C16.1885 22.0239 15.8367 22.0238 15.4849 22.0233C15.199 22.0229 14.9132 22.0228 14.6273 22.023C14.5866 22.0231 14.5459 22.0231 14.504 22.0231C14.4214 22.0232 14.3388 22.0232 14.2561 22.0233C13.4812 22.0238 12.7062 22.0232 11.9313 22.0223C11.2662 22.0215 10.6011 22.0216 9.93609 22.0224C9.16392 22.0234 8.39175 22.0237 7.61958 22.0232C7.53725 22.0231 7.45493 22.0231 7.3726 22.023C7.31184 22.023 7.31184 22.023 7.24985 22.0229C6.96429 22.0228 6.67874 22.023 6.39318 22.0234C6.04521 22.0239 5.69725 22.0238 5.34929 22.0229C5.17172 22.0224 4.99417 22.0223 4.8166 22.0228C4.65407 22.0233 4.49157 22.0231 4.32904 22.0221C4.24235 22.0219 4.15567 22.0224 4.06898 22.023C3.58945 22.0188 3.58945 22.0188 3.39447 21.8281C3.16227 21.589 3.19871 21.309 3.20106 20.9957C3.20089 20.9364 3.20065 20.8771 3.20034 20.8177C3.19971 20.655 3.20014 20.4922 3.20076 20.3294C3.20124 20.1538 3.20072 19.9781 3.20034 19.8024C3.19974 19.4582 3.20006 19.1139 3.20071 18.7697C3.20143 18.3682 3.2013 17.9667 3.20114 17.5653C3.20088 16.8481 3.20149 16.1309 3.20255 15.4137C3.20358 14.7193 3.20388 14.0249 3.20343 13.3305C3.20294 12.5737 3.20286 11.8168 3.20348 11.06C3.20354 10.9791 3.20361 10.8981 3.20368 10.8172C3.20371 10.7773 3.20374 10.7375 3.20377 10.6965C3.20398 10.4174 3.2039 10.1382 3.20372 9.85912C3.2035 9.51793 3.20377 9.17675 3.20461 8.83557C3.20503 8.66184 3.20526 8.48812 3.20492 8.31439C3.20218 6.75733 3.43165 5.37904 4.16791 3.99612C4.18153 3.97008 4.19515 3.94405 4.20918 3.91723C4.51507 3.33621 4.92032 2.8386 5.37104 2.36331C5.39012 2.34305 5.40921 2.32279 5.42888 2.30192C6.86777 0.784537 8.89567 -0.0212133 10.9731 -0.016089ZM6.48822 3.13674C6.45942 3.1625 6.43062 3.18826 6.40094 3.21479C5.98514 3.60608 5.6486 4.10308 5.37104 4.59768C5.35681 4.62301 5.34259 4.64833 5.32794 4.67443C4.82341 5.58741 4.54608 6.61005 4.54946 7.65352C4.54943 7.69561 4.54939 7.7377 4.54935 7.78107C4.54928 7.92119 4.54952 8.06132 4.54975 8.20144C4.54976 8.30225 4.54976 8.40306 4.54973 8.50387C4.54972 8.77692 4.54997 9.04997 4.55027 9.32303C4.55051 9.57966 4.55056 9.8363 4.5506 10.0929C4.5507 10.601 4.55098 11.1091 4.55139 11.6172C4.55178 12.1106 4.55209 12.604 4.55227 13.0973C4.55228 13.1278 4.55229 13.1582 4.5523 13.1896C4.55236 13.3423 4.55241 13.4951 4.55247 13.6478C4.55291 14.9137 4.55368 16.1795 4.55463 17.4453C5.07928 17.4453 5.60393 17.4453 6.14447 17.4453C6.14558 17.2467 6.14669 17.0481 6.14783 16.8434C6.14891 16.7173 6.15004 16.5912 6.15135 16.4651C6.15343 16.2651 6.15532 16.0651 6.15612 15.8651C6.15677 15.7038 6.15825 15.5425 6.1603 15.3812C6.16093 15.3197 6.16128 15.2583 6.16131 15.1969C6.16141 15.1106 6.16268 15.0243 6.16399 14.938C6.16456 14.8645 6.16456 14.8645 6.16514 14.7894C6.19974 14.5768 6.29276 14.4461 6.4619 14.3152C6.5906 14.2584 6.68299 14.2486 6.82338 14.2471C6.8724 14.2462 6.92142 14.2454 6.97192 14.2445C7.02439 14.2442 7.07685 14.2439 7.13091 14.2437C7.212 14.2425 7.212 14.2425 7.29472 14.2413C7.43791 14.2394 7.58108 14.238 7.72428 14.2369C7.87061 14.2356 8.01693 14.2336 8.16325 14.2317C8.44995 14.228 8.73666 14.2251 9.02338 14.2227C9.02363 14.1901 9.02388 14.1575 9.02414 14.1239C9.02664 13.8154 9.02974 13.5069 9.03351 13.1984C9.03542 13.0399 9.03711 12.8813 9.03827 12.7228C9.03939 12.5695 9.04113 12.4163 9.04328 12.2631C9.04434 12.1766 9.04477 12.0902 9.04519 12.0037C9.05545 11.3608 9.05545 11.3608 9.29657 11.1091C9.53597 11.008 9.76603 11.0171 10.0234 11.0168C10.0784 11.0161 10.1333 11.0154 10.1899 11.0147C10.3353 11.0129 10.4807 11.0119 10.6261 11.0113C10.7747 11.0104 10.9233 11.0086 11.0719 11.0069C11.363 11.0037 11.6541 11.0015 11.9453 11C11.9455 10.9661 11.9458 10.9323 11.946 10.8974C11.9485 10.5775 11.9516 10.2576 11.9554 9.93772C11.9573 9.77328 11.959 9.60884 11.9601 9.4444C11.9613 9.28559 11.963 9.12679 11.9652 8.96799C11.9659 8.90752 11.9664 8.84704 11.9666 8.78657C11.9671 8.70162 11.9683 8.61668 11.9696 8.53173C11.9704 8.45931 11.9704 8.45931 11.9711 8.38543C11.9976 8.17568 12.07 8.03585 12.2246 7.89285C12.3753 7.79106 12.488 7.77191 12.6656 7.77057C12.7077 7.77015 12.7498 7.76973 12.7932 7.76929C12.8394 7.76905 12.8855 7.7688 12.9331 7.76855C13.006 7.76791 13.006 7.76791 13.0804 7.76726C13.2416 7.7659 13.4027 7.76483 13.5638 7.76377C13.6754 7.76289 13.7869 7.76199 13.8985 7.76107C14.1624 7.75894 14.4262 7.75699 14.6901 7.75514C14.9905 7.75301 15.2909 7.75065 15.5914 7.74827C16.2093 7.74339 16.8273 7.73879 17.4453 7.7344C17.4458 7.6528 17.4461 7.5712 17.4465 7.48959C17.4467 7.44415 17.4469 7.39871 17.4471 7.35189C17.4446 7.1687 17.425 6.99142 17.3969 6.81057C17.3913 6.77419 17.3856 6.7378 17.3798 6.70032C17.1851 5.53552 16.6801 4.45156 15.8984 3.56643C15.8622 3.52456 15.826 3.48268 15.7888 3.43954C14.7664 2.2742 13.2437 1.45857 11.6874 1.33206C9.68066 1.24499 7.98361 1.76798 6.48822 3.13674ZM13.2773 9.06643C13.2773 9.70452 13.2773 10.3426 13.2773 11C14.6527 11 16.0281 11 17.4453 11C17.4453 10.3619 17.4453 9.72385 17.4453 9.06643C16.0698 9.06643 14.6944 9.06643 13.2773 9.06643ZM10.3554 12.3321C10.3554 12.956 10.3554 13.5799 10.3554 14.2227C12.6951 14.2227 15.0347 14.2227 17.4453 14.2227C17.4453 13.5988 17.4453 12.9749 17.4453 12.3321C15.1056 12.3321 12.766 12.3321 10.3554 12.3321ZM7.4765 15.5547C7.4765 16.1786 7.4765 16.8025 7.4765 17.4453C10.7662 17.4453 14.0559 17.4453 17.4453 17.4453C17.4453 16.8214 17.4453 16.1975 17.4453 15.5547C14.1556 15.5547 10.8659 15.5547 7.4765 15.5547ZM4.55463 18.7774C4.55463 19.4013 4.55463 20.0252 4.55463 20.668C8.80854 20.668 13.0624 20.668 17.4453 20.668C17.4453 20.0441 17.4453 19.4202 17.4453 18.7774C13.1913 18.7774 8.93744 18.7774 4.55463 18.7774Z" fill="black"/>
</g>
<defs>
<clipPath id="clip0_1231_1349">
<rect width="22" height="22" fill="white"/>
</clipPath>
</defs>
</svg>
