<svg width="12" height="10" viewBox="0 0 12 10" fill="none" xmlns="http://www.w3.org/2000/svg">
<path d="M10.8767 3.56545H10.1462C10.1462 3.46858 10.1078 3.37568 10.0393 3.30719C9.97077 3.23869 9.87787 3.20021 9.78101 3.20021H6.4939C6.39703 3.20021 6.30413 3.23869 6.23564 3.30719C6.16714 3.37568 6.12866 3.46858 6.12866 3.56545H3.20679V1.55666C3.20679 1.41136 3.26451 1.27201 3.36725 1.16927C3.46999 1.06653 3.60934 1.00881 3.75464 1.00881C3.88304 1.00828 4.00783 1.05128 4.10865 1.1308C4.20948 1.21031 4.28038 1.32164 4.3098 1.44663C4.32986 1.54075 4.38626 1.62316 4.46674 1.67592C4.54722 1.72869 4.64528 1.74756 4.7396 1.72844C4.83392 1.70931 4.91687 1.65373 4.97044 1.57377C5.024 1.49382 5.04385 1.39595 5.02565 1.30145C4.96364 1.01082 4.80341 0.750422 4.57192 0.564081C4.34042 0.377741 4.05181 0.276832 3.75464 0.278337C3.41561 0.278337 3.09046 0.413017 2.85073 0.652748C2.611 0.89248 2.47632 1.21763 2.47632 1.55666V3.56545H1.38062C1.18688 3.56545 1.00109 3.64241 0.864096 3.7794C0.727106 3.91639 0.650146 4.10218 0.650146 4.29592V5.75685C0.650872 6.43469 0.920464 7.08456 1.39977 7.56387C1.87908 8.04318 2.52895 8.31277 3.20679 8.31349V9.04396C3.20679 9.14083 3.24527 9.23373 3.31376 9.30222C3.38226 9.37072 3.47516 9.4092 3.57202 9.4092C3.66889 9.4092 3.76179 9.37072 3.83028 9.30222C3.89878 9.23373 3.93726 9.14083 3.93726 9.04396V8.31349H8.32007V9.04396C8.32007 9.14083 8.35855 9.23373 8.42704 9.30222C8.49554 9.37072 8.58844 9.4092 8.6853 9.4092C8.78217 9.4092 8.87507 9.37072 8.94356 9.30222C9.01206 9.23373 9.05054 9.14083 9.05054 9.04396V8.31349C9.72838 8.31277 10.3782 8.04318 10.8576 7.56387C11.3369 7.08456 11.6065 6.43469 11.6072 5.75685V4.29592C11.6072 4.10218 11.5302 3.91639 11.3932 3.7794C11.2562 3.64241 11.0704 3.56545 10.8767 3.56545ZM9.41577 5.75685H6.85913V3.93068H9.41577V5.75685Z" fill="#21C17A"/>
</svg>
