<svg width="14" height="9" viewBox="0 0 14 9" fill="none" xmlns="http://www.w3.org/2000/svg">
<path d="M11.0063 1.15067H6.4036V5.178H1.80094V0H0.650269V8.63H1.80094V6.904H12.1569V8.63H13.3076V3.452C13.3076 2.84165 13.0651 2.2563 12.6336 1.82471C12.202 1.39313 11.6166 1.15067 11.0063 1.15067ZM4.10227 4.60267C4.56003 4.60267 4.99905 4.42082 5.32274 4.09713C5.64642 3.77345 5.82827 3.33443 5.82827 2.87667C5.82827 2.4189 5.64642 1.97989 5.32274 1.6562C4.99905 1.33251 4.56003 1.15067 4.10227 1.15067C3.64451 1.15067 3.20549 1.33251 2.8818 1.6562C2.55812 1.97989 2.37627 2.4189 2.37627 2.87667C2.37627 3.33443 2.55812 3.77345 2.8818 4.09713C3.20549 4.42082 3.64451 4.60267 4.10227 4.60267Z" fill="#21C17A"/>
</svg>
