<svg width="26" height="26" viewBox="0 0 26 26" fill="none" xmlns="http://www.w3.org/2000/svg">
<g id="mdi:bell-notification">
<path id="bell-notification" d="M20.2512 12.7812C19.7303 12.9167 19.2095 13 18.6887 13C17.17 12.9972 15.7144 12.3928 14.6406 11.3189C13.5667 10.2451 12.9623 8.78946 12.9595 7.27083C12.9595 5.73958 13.5637 4.35417 14.522 3.32292C14.333 3.09119 14.0946 2.90455 13.8243 2.77661C13.554 2.64866 13.2586 2.58264 12.9595 2.58333C11.8137 2.58333 10.8762 3.52083 10.8762 4.66667V4.96875C7.78242 5.88542 5.66784 8.72917 5.66784 11.9583V18.2083L3.5845 20.2917V21.3333H22.3345V20.2917L20.2512 18.2083V12.7812ZM12.9595 24.4583C14.1158 24.4583 15.0428 23.5312 15.0428 22.375H10.8762C10.8762 22.9275 11.0957 23.4574 11.4864 23.8481C11.8771 24.2388 12.407 24.4583 12.9595 24.4583Z" fill="white"/>
<path id="bell-notification_2" d="M18.6888 10.9167C20.6992 10.9167 22.3347 9.28125 22.3347 7.27083C22.3347 5.26042 20.6992 3.625 18.6888 3.625C16.6784 3.625 15.043 5.26042 15.043 7.27083C15.043 9.28125 16.6784 10.9167 18.6888 10.9167Z" fill="#E93C3C"/>
</g>
</svg>
