<svg width="24" height="23" viewBox="0 0 24 23" fill="none" xmlns="http://www.w3.org/2000/svg">
<path d="M22.8571 21.0001C22.1034 20.9361 21.4183 20.6799 20.8016 20.2316C20.459 19.9114 19.9794 19.7193 19.4313 19.7193C18.9516 19.7193 18.4035 19.9114 18.0609 20.2316C17.4442 20.744 16.6905 20.9361 15.9369 20.9361C15.1146 20.9361 14.2924 20.6799 13.6758 20.2316C12.8536 19.5271 11.6202 19.5271 10.8665 20.2316C10.2499 20.744 9.42767 21.0001 8.53694 21.0001C7.71473 21.0001 6.96104 20.744 6.34438 20.2316C5.93327 19.9114 5.45365 19.7193 4.97403 19.7193C4.42588 19.7193 3.80922 19.9114 3.39812 20.2316C2.71294 20.744 1.82221 21.0001 1 20.9361V19.7193C1.54814 19.7193 2.1648 19.5271 2.57591 19.1429C3.26108 18.6305 4.0833 18.3743 4.90551 18.4384C5.72772 18.4384 6.54993 18.6946 7.16659 19.2069C7.9888 19.9114 9.22212 19.9114 10.0443 19.2069C11.3462 18.1822 13.2647 18.1822 14.498 19.2069C15.3202 19.9114 16.5535 19.9114 17.3072 19.2069C17.9239 18.6946 18.7461 18.4384 19.5683 18.4384C20.322 18.4384 21.0757 18.6946 21.6238 19.2069C22.0349 19.5271 22.172 19.7193 22.8571 19.7193V21.0001Z" fill="#323232"/>
<path d="M2.35391 17.1433C2.76642 16.8322 3.17894 16.6456 3.66021 16.5212V15.1525C3.66021 14.7792 3.93522 14.4682 4.34774 14.4682H21.5359L19.0608 16.3967H19.1983C19.7483 16.3967 20.2983 16.5212 20.7109 16.7078L22.4297 15.3391L22.5672 15.2147C23.0485 14.6548 22.9109 13.9083 22.2922 13.4728C22.1547 13.3483 21.8109 13.2861 21.5359 13.2861H4.34774C3.17894 13.2861 2.28516 14.0949 2.28516 15.1525L2.35391 17.1433Z" fill="#323232"/>
<path d="M9.93508 11.9999H6.12555C5.42714 11.9999 4.85571 11.4121 4.85571 10.6936C4.85571 10.4324 4.9192 10.1711 5.10968 9.9099L7.71286 6.12184C8.09381 5.53404 8.9192 5.40342 9.49063 5.79529C9.80809 6.05653 9.99857 6.4484 9.99857 6.84027V11.9999H9.93508Z" fill="#323232"/>
<path d="M16.4729 12H11.2852V4.24138C11.2852 3.55862 11.8477 3 12.5352 3C12.9727 3 13.3477 3.24828 13.5978 3.62069L17.5354 10.0759C17.9104 10.6966 17.6604 11.4414 17.0979 11.7517C16.9104 11.8759 16.6604 11.9379 16.4729 12Z" fill="#323232"/>
</svg>
