<svg width="20" height="21" viewBox="0 0 20 21" fill="none" xmlns="http://www.w3.org/2000/svg">
<g id="uiw:date" clip-path="url(#clip0_509_747)">
<path id="calendar" d="M5.96987 0.75C6.15088 0.75 6.32447 0.821906 6.45247 0.9499C6.58046 1.07789 6.65237 1.25149 6.65237 1.4325V2.70878H13.9814V1.44128C13.9814 1.26026 14.0533 1.08667 14.1813 0.958675C14.3093 0.830681 14.4829 0.758775 14.6639 0.758775C14.845 0.758775 15.0185 0.830681 15.1465 0.958675C15.2745 1.08667 15.3464 1.26026 15.3464 1.44128V2.70878H17.9887C18.5057 2.70878 19.0015 2.91409 19.3672 3.27957C19.7329 3.64506 19.9384 4.1408 19.9387 4.6578V18.301C19.9384 18.818 19.7329 19.3137 19.3672 19.6792C19.0015 20.0447 18.5057 20.25 17.9887 20.25H2.38869C1.87169 20.25 1.37584 20.0447 1.01018 19.6792C0.644509 19.3137 0.438949 18.818 0.43869 18.301L0.43869 4.6578C0.438949 4.1408 0.644509 3.64506 1.01018 3.27957C1.37584 2.91409 1.87169 2.70878 2.38869 2.70878H5.28737V1.43152C5.28762 1.25068 5.35964 1.07734 5.48761 0.949555C5.61557 0.821772 5.78902 0.75 5.96987 0.75ZM1.80369 8.29845V18.301C1.80369 18.3778 1.81882 18.4539 1.84822 18.5248C1.87762 18.5958 1.92071 18.6603 1.97503 18.7146C2.02936 18.769 2.09384 18.812 2.16482 18.8414C2.2358 18.8708 2.31187 18.886 2.38869 18.886H17.9887C18.0655 18.886 18.1416 18.8708 18.2126 18.8414C18.2835 18.812 18.348 18.769 18.4023 18.7146C18.4567 18.6603 18.4998 18.5958 18.5292 18.5248C18.5586 18.4539 18.5737 18.3778 18.5737 18.301V8.3121L1.80369 8.29845ZM6.93902 15.0035V16.6279H5.31369V15.0035H6.93902ZM11.0009 15.0035V16.6279H9.37652V15.0035H11.0009ZM15.0637 15.0035V16.6279H13.4384V15.0035H15.0637ZM6.93902 11.126V12.7503H5.31369V11.126H6.93902ZM11.0009 11.126V12.7503H9.37652V11.126H11.0009ZM15.0637 11.126V12.7503H13.4384V11.126H15.0637ZM5.28737 4.0728H2.38869C2.31187 4.0728 2.2358 4.08793 2.16482 4.11733C2.09384 4.14673 2.02936 4.18982 1.97503 4.24414C1.92071 4.29847 1.87762 4.36295 1.84822 4.43393C1.81882 4.50491 1.80369 4.58098 1.80369 4.6578V6.93442L18.5737 6.94807V4.6578C18.5737 4.58098 18.5586 4.50491 18.5292 4.43393C18.4998 4.36295 18.4567 4.29847 18.4023 4.24414C18.348 4.18982 18.2835 4.14673 18.2126 4.11733C18.1416 4.08793 18.0655 4.0728 17.9887 4.0728H15.3464V4.97858C15.3464 5.15959 15.2745 5.33318 15.1465 5.46118C15.0185 5.58917 14.845 5.66108 14.6639 5.66108C14.4829 5.66108 14.3093 5.58917 14.1813 5.46118C14.0533 5.33318 13.9814 5.15959 13.9814 4.97858V4.0728H6.65237V4.9698C6.65237 5.15081 6.58046 5.32441 6.45247 5.4524C6.32447 5.58039 6.15088 5.6523 5.96987 5.6523C5.78886 5.6523 5.61526 5.58039 5.48727 5.4524C5.35927 5.32441 5.28737 5.15081 5.28737 4.9698V4.0728Z" fill="white"/>
</g>
<defs>
<clipPath id="clip0_509_747">
<rect width="19.5" height="19.5" fill="white" transform="translate(0.43869 0.75)"/>
</clipPath>
</defs>
</svg>
