<svg width="23" height="24" viewBox="0 0 23 24" fill="none" xmlns="http://www.w3.org/2000/svg">
<path d="M12.0367 20.4525C11.8801 20.5643 11.6925 20.6244 11.5 20.6244C11.3076 20.6244 11.12 20.5643 10.9634 20.4525C6.33558 17.1539 1.42412 10.3689 6.38924 5.46609C7.75186 4.12453 9.58784 3.37334 11.5 3.375C13.4167 3.375 15.2557 4.12729 16.6108 5.46513C21.576 10.368 16.6645 17.152 12.0367 20.4525Z" stroke="#323232" stroke-width="1.4375" stroke-linecap="round" stroke-linejoin="round"/>
<path d="M11.5 12.0003C12.0084 12.0003 12.4959 11.7984 12.8553 11.4389C13.2148 11.0795 13.4167 10.592 13.4167 10.0837C13.4167 9.57533 13.2148 9.08782 12.8553 8.72837C12.4959 8.36893 12.0084 8.16699 11.5 8.16699C10.9917 8.16699 10.5042 8.36893 10.1448 8.72837C9.78531 9.08782 9.58337 9.57533 9.58337 10.0837C9.58337 10.592 9.78531 11.0795 10.1448 11.4389C10.5042 11.7984 10.9917 12.0003 11.5 12.0003Z" stroke="#323232" stroke-width="1.4375" stroke-linecap="round" stroke-linejoin="round"/>
</svg>
