<svg width="27" height="25" viewBox="0 0 27 25" fill="none" xmlns="http://www.w3.org/2000/svg">
<g id="Group 5">
<path id="chat" d="M3.27672 22.5051L7.28479 21.1684L7.9863 21.5192C9.59787 22.3231 11.3896 22.7516 13.2685 22.7516C19.5441 22.7516 24.6442 17.8107 24.6442 12.3238C24.6442 6.83685 19.5441 1.89596 13.2685 1.89596C6.99281 1.89596 1.89267 6.83685 1.89267 12.3238C1.89267 14.3714 2.63209 16.4494 3.9915 18.2259L4.64561 19.0791L3.27483 22.5032L3.27672 22.5051ZM1.93628 24.9509C1.7647 25.0084 1.58026 25.0156 1.40474 24.9716C1.22922 24.9276 1.06995 24.8343 0.945743 24.7027C0.821536 24.5712 0.737583 24.4068 0.703799 24.229C0.670016 24.0512 0.687813 23.8675 0.75509 23.6996L2.48421 19.3768C0.906767 17.3102 -0.0032959 14.8378 -0.0032959 12.3238C-0.0032959 6.04054 5.6846 0 13.2685 0C20.8523 0 26.5402 6.04054 26.5402 12.3238C26.5402 18.607 20.8523 24.6475 13.2685 24.6475C11.1415 24.6535 9.04255 24.1627 7.1388 23.2142L1.93628 24.949V24.9509Z" fill="#B0B0B0"/>
<path id="chat_2" d="M13.2684 13.8406C13.0693 13.8406 12.872 13.8013 12.688 13.7251C12.504 13.6489 12.3368 13.5371 12.1959 13.3963C12.0551 13.2555 11.9434 13.0882 11.8671 12.9042C11.7909 12.7202 11.7517 12.523 11.7517 12.3238C11.7517 12.1246 11.7909 11.9274 11.8671 11.7433C11.9434 11.5593 12.0551 11.3921 12.1959 11.2513C12.3368 11.1104 12.504 10.9987 12.688 10.9225C12.872 10.8462 13.0693 10.807 13.2684 10.807C13.6707 10.807 14.0565 10.9668 14.341 11.2513C14.6254 11.5357 14.7852 11.9215 14.7852 12.3238C14.7852 12.7261 14.6254 13.1118 14.341 13.3963C14.0565 13.6807 13.6707 13.8406 13.2684 13.8406ZM18.9563 13.8406C18.7572 13.8406 18.5599 13.8013 18.3759 13.7251C18.1919 13.6489 18.0247 13.5371 17.8838 13.3963C17.743 13.2555 17.6313 13.0882 17.555 12.9042C17.4788 12.7202 17.4396 12.523 17.4396 12.3238C17.4396 12.1246 17.4788 11.9274 17.555 11.7433C17.6313 11.5593 17.743 11.3921 17.8838 11.2513C18.0247 11.1104 18.1919 10.9987 18.3759 10.9225C18.5599 10.8462 18.7572 10.807 18.9563 10.807C19.3586 10.807 19.7444 10.9668 20.0289 11.2513C20.3133 11.5357 20.4731 11.9215 20.4731 12.3238C20.4731 12.7261 20.3133 13.1118 20.0289 13.3963C19.7444 13.6807 19.3586 13.8406 18.9563 13.8406ZM7.58055 13.8406C7.38137 13.8406 7.18413 13.8013 7.00011 13.7251C6.81609 13.6489 6.64888 13.5371 6.50803 13.3963C6.36719 13.2555 6.25546 13.0882 6.17924 12.9042C6.10301 12.7202 6.06378 12.523 6.06378 12.3238C6.06378 12.1246 6.10301 11.9274 6.17924 11.7433C6.25546 11.5593 6.36719 11.3921 6.50803 11.2513C6.64888 11.1104 6.81609 10.9987 7.00011 10.9225C7.18413 10.8462 7.38137 10.807 7.58055 10.807C7.98283 10.807 8.36862 10.9668 8.65307 11.2513C8.93752 11.5357 9.09733 11.9215 9.09733 12.3238C9.09733 12.7261 8.93752 13.1118 8.65307 13.3963C8.36862 13.6807 7.98283 13.8406 7.58055 13.8406Z" fill="#B0B0B0"/>
</g>
</svg>
