<svg width="24" height="23" viewBox="0 0 24 23" fill="none" xmlns="http://www.w3.org/2000/svg">
<path d="M5.29167 10.5417V18.2083H18.7083V10.5417H5.29167ZM5.29167 8.625H18.7083V4.79167H5.29167V8.625ZM12 17.25C11.4729 17.25 11.0219 17.0625 10.6468 16.6875C10.2718 16.3124 10.084 15.8611 10.0833 15.3333C10.0833 14.9021 10.2031 14.443 10.4427 13.9562C10.6823 13.4694 11.2014 12.6506 12 11.5C12.7986 12.65 13.3177 13.4687 13.5573 13.9562C13.7969 14.4437 13.9167 14.9027 13.9167 15.3333C13.9167 15.8604 13.7292 16.3118 13.3541 16.6875C12.9791 17.0631 12.5277 17.2506 12 17.25ZM16.7917 7.66667C17.0632 7.66667 17.291 7.57467 17.475 7.39067C17.659 7.20667 17.7506 6.97922 17.75 6.70833C17.75 6.43681 17.658 6.20936 17.474 6.026C17.29 5.84264 17.0626 5.75064 16.7917 5.75C16.5201 5.75 16.2927 5.842 16.1093 6.026C15.926 6.21 15.834 6.43744 15.8333 6.70833C15.8333 6.97986 15.9253 7.20762 16.1093 7.39162C16.2933 7.57562 16.5208 7.66731 16.7917 7.66667ZM5.29167 20.125C4.76458 20.125 4.31353 19.9375 3.9385 19.5625C3.56347 19.1874 3.37564 18.7361 3.375 18.2083V4.79167C3.375 4.26458 3.56283 3.81353 3.9385 3.4385C4.31417 3.06347 4.76522 2.87564 5.29167 2.875H18.7083C19.2354 2.875 19.6868 3.06283 20.0625 3.4385C20.4381 3.81417 20.6256 4.26522 20.625 4.79167V18.2083C20.625 18.7354 20.4375 19.1868 20.0625 19.5625C19.6874 19.9381 19.2361 20.1256 18.7083 20.125H5.29167Z" fill="#323232"/>
</svg>
