<svg width="24" height="23" viewBox="0 0 24 23" fill="none" xmlns="http://www.w3.org/2000/svg">
<path d="M7.20833 13.4167V16.2917C7.20833 16.5632 7.30033 16.791 7.48433 16.975C7.66833 17.159 7.89578 17.2506 8.16667 17.25H9.125C9.39653 17.25 9.62429 17.158 9.80829 16.974C9.99229 16.79 10.084 16.5626 10.0833 16.2917V13.4167C10.259 13.241 10.4628 13.1014 10.6947 12.9979C10.9267 12.8944 11.0423 12.7145 11.0417 12.4583V11.0208C11.0417 10.4937 10.8542 10.0427 10.4791 9.66767C10.1041 9.29264 9.65272 9.10481 9.125 9.10417H8.16667C7.63958 9.10417 7.18853 9.292 6.8135 9.66767C6.43847 10.0433 6.25064 10.4944 6.25 11.0208V12.4583C6.25 12.7139 6.36596 12.8937 6.59787 12.9979C6.82979 13.102 7.03328 13.2416 7.20833 13.4167ZM8.64583 8.14583C8.98125 8.14583 9.26492 8.02987 9.49683 7.79796C9.72875 7.56604 9.84439 7.28269 9.84375 6.94792C9.84375 6.6125 9.72779 6.32883 9.49587 6.09692C9.26396 5.865 8.98061 5.74936 8.64583 5.75C8.31042 5.75 8.02675 5.86596 7.79483 6.09787C7.56292 6.32979 7.44728 6.61314 7.44792 6.94792C7.44792 7.28333 7.56387 7.567 7.79579 7.79892C8.02771 8.03083 8.31106 8.14647 8.64583 8.14583ZM13.8208 10.5417H16.8875C17.0792 10.5417 17.2191 10.458 17.3073 10.2906C17.3954 10.1232 17.3913 9.95932 17.2948 9.79896L15.7615 7.35521C15.6656 7.19549 15.5299 7.11562 15.3542 7.11562C15.1785 7.11562 15.0427 7.19549 14.9469 7.35521L13.4135 9.79896C13.3177 9.95868 13.3139 10.1226 13.402 10.2906C13.4902 10.4586 13.6298 10.5423 13.8208 10.5417ZM15.7615 15.6448L17.2948 13.201C17.3906 13.0413 17.3948 12.8774 17.3073 12.7094C17.2197 12.5414 17.0798 12.4577 16.8875 12.4583H13.8208C13.6292 12.4583 13.4896 12.5423 13.402 12.7104C13.3145 12.8784 13.3183 13.042 13.4135 13.201L14.9469 15.6448C15.0427 15.8045 15.1785 15.8844 15.3542 15.8844C15.5299 15.8844 15.6656 15.8045 15.7615 15.6448ZM5.29167 20.125C4.76458 20.125 4.31353 19.9375 3.9385 19.5625C3.56347 19.1874 3.37564 18.7361 3.375 18.2083V4.79167C3.375 4.26458 3.56283 3.81353 3.9385 3.4385C4.31417 3.06347 4.76522 2.87564 5.29167 2.875H18.7083C19.2354 2.875 19.6868 3.06283 20.0625 3.4385C20.4381 3.81417 20.6256 4.26522 20.625 4.79167V18.2083C20.625 18.7354 20.4375 19.1868 20.0625 19.5625C19.6874 19.9381 19.2361 20.1256 18.7083 20.125H5.29167ZM5.29167 18.2083H18.7083V4.79167H5.29167V18.2083Z" fill="#323232"/>
</svg>
