<svg width="23" height="24" viewBox="0 0 23 24" fill="none" xmlns="http://www.w3.org/2000/svg">
<path d="M9.34377 22.5413C8.52919 22.5413 7.80661 22.2976 7.17602 21.8101C6.54544 21.3227 6.11802 20.6962 5.89377 19.9308C5.79794 19.5628 5.59829 19.267 5.29482 19.0434C4.99134 18.8198 4.64794 18.708 4.26461 18.708C4.00905 18.708 3.76947 18.7601 3.54586 18.8642C3.32225 18.9684 3.13058 19.1159 2.97086 19.307L1.5094 18.0851C1.84482 17.6698 2.25626 17.3504 2.74373 17.1268C3.2312 16.9031 3.73816 16.7913 4.26461 16.7913C5.07919 16.7913 5.80593 17.0309 6.44482 17.5101C7.0837 17.9893 7.51496 18.6202 7.73857 19.4028C7.8344 19.7702 8.03405 20.0656 8.33752 20.2893C8.641 20.5129 8.97641 20.6247 9.34377 20.6247C9.64725 20.6247 9.91877 20.5448 10.1584 20.3851C10.3979 20.2254 10.6056 20.0257 10.7813 19.7861L10.8052 19.7382L4.19273 10.6101C4.06495 10.4344 3.97295 10.2507 3.91673 10.059C3.86051 9.86738 3.83272 9.67572 3.83336 9.48405C3.83336 9.22849 3.88127 8.98508 3.97711 8.7538C4.07294 8.52252 4.21669 8.31073 4.40836 8.11842L10.6375 2.00905C10.8132 1.83336 11.0209 1.69759 11.2604 1.60176C11.5 1.50592 11.7396 1.45801 11.9792 1.45801C12.2188 1.45801 12.4584 1.50592 12.6979 1.60176C12.9375 1.69759 13.1452 1.83336 13.3209 2.00905L19.55 8.11842C19.7417 8.31009 19.8854 8.52188 19.9813 8.7538C20.0771 8.98572 20.125 9.22913 20.125 9.48405C20.125 9.67572 20.0969 9.86738 20.0407 10.059C19.9845 10.2507 19.8928 10.4344 19.7656 10.6101L11.9792 21.3913C11.6917 21.7906 11.3084 22.0823 10.8292 22.2663C10.35 22.4503 9.85489 22.542 9.34377 22.5413ZM11.9792 18.109L18.2084 9.48405L11.9792 3.37467L5.77398 9.50801L11.9792 18.109Z" fill="#323232"/>
</svg>
