<svg width="23" height="23" viewBox="0 0 23 23" fill="none" xmlns="http://www.w3.org/2000/svg">
<g id="lets-icons:filter-big">
<g id="Group">
<path id="filter" d="M10.0858 8.72314H17.6956M5.52002 14.8109H13.1297" stroke="white" stroke-width="1.16071" stroke-linecap="round"/>
<path id="filter_2" d="M5.52035 8.7231C5.52035 9.98392 6.54245 11.006 7.80327 11.006C9.06409 11.006 10.0862 9.98392 10.0862 8.7231C10.0862 7.46228 9.06409 6.44019 7.80327 6.44019C6.54245 6.44019 5.52035 7.46228 5.52035 8.7231Z" stroke="white" stroke-width="1.16071" stroke-linecap="round"/>
<path id="filter_3" d="M13.1297 14.8115C13.1297 16.0723 14.1518 17.0944 15.4126 17.0944C16.6735 17.0944 17.6956 16.0723 17.6956 14.8115C17.6956 13.5507 16.6735 12.5286 15.4126 12.5286C14.1518 12.5286 13.1297 13.5507 13.1297 14.8115Z" stroke="white" stroke-width="1.16071" stroke-linecap="round"/>
</g>
</g>
</svg>
