<svg width="25" height="21" viewBox="0 0 25 21" fill="none" xmlns="http://www.w3.org/2000/svg">
<g id="bungalow-villa-icon 1" clip-path="url(#clip0_1231_1334)">
<path id="Vector" d="M7.54005 20.5676H10.1836V15.9693H14.8164V20.5676H17.46V5.3132L12.3838 1.66612L7.54005 5.17386V20.5676ZM17.8872 20.5676H23.5322V9.67083L17.8872 8.53288V20.5676ZM17.8872 7.40283L24.6485 8.79624C24.9277 8.90149 25.0698 9.21624 24.9658 9.49838C24.8618 9.78102 24.5513 9.9248 24.272 9.81956L23.96 9.7568V21H0.979995V9.77657L0.728042 9.81956C0.448745 9.9248 0.138199 9.78102 0.0341946 9.49838C-0.0698093 9.21624 0.0722805 8.90149 0.351577 8.79624L7.11232 7.59207V5.48368L6.66798 5.80584C6.33546 6.04499 5.87355 5.96643 5.63722 5.62993C5.40041 5.29344 5.47853 4.8265 5.81105 4.58685L11.9404 0.148686C12.1904 -0.0405606 12.5425 -0.0543959 12.8106 0.13831L18.9536 4.55177C19.2861 4.79142 19.3638 5.25836 19.1275 5.59485C18.8906 5.93135 18.4292 6.0104 18.0967 5.77076L17.8872 5.62055V7.40283ZM7.11232 8.72163L1.40724 9.70295V20.5676H7.11232V8.72163ZM12.6963 16.3666V20.5676H14.4238V16.3666H12.6963ZM12.3037 20.5676V16.3666H10.5762V20.5676H12.3037ZM14.4238 9.12433H12.6963V12.6726H14.4238V9.12433ZM12.3037 9.12433H10.5762V12.6726H12.3037V9.12433ZM10.5762 8.72706H12.3037V5.67342C11.8526 5.72036 11.4463 5.9264 11.1411 6.23523C10.7925 6.58803 10.5762 7.07523 10.5762 7.61036V8.72706ZM12.6963 8.72706H14.4238V7.61036C14.4238 7.07523 14.2075 6.58852 13.8584 6.23523C13.5537 5.9264 13.147 5.72036 12.6963 5.67342V8.72706ZM12.5 5.26577C13.1372 5.26577 13.7163 5.52963 14.1362 5.95457C14.5562 6.37902 14.8164 6.96553 14.8164 7.61036V13.0699H10.1836V7.61036C10.1836 6.96553 10.4439 6.37902 10.8638 5.95457C11.2832 5.52963 11.8628 5.26577 12.5 5.26577ZM5.563 18.4735H4.34181V19.6436H5.563V18.4735ZM4.06447 18.4735H2.84377V19.6436H4.06447V18.4735ZM2.84377 18.1929H4.06447V17.0223H2.84377V18.1929ZM4.34181 18.1929H5.563V17.0223H4.34181V18.1929ZM5.84035 16.882V19.9248H2.56642V16.7417H5.84035V16.882ZM5.563 13.3792H4.34181V15.071H5.563V13.3792ZM4.06447 13.3792H2.84377V15.071H4.06447V13.3792ZM2.84377 13.0985H4.06447V10.9407C3.74562 10.9738 3.45851 11.1196 3.24318 11.3375C2.99709 11.587 2.84377 11.9314 2.84377 12.3094V13.0985ZM4.34181 13.0985H5.563V12.3094C5.563 11.9314 5.40968 11.5875 5.16359 11.338C4.94777 11.1201 4.66066 10.9738 4.34181 10.9407V13.0985ZM4.20314 10.6531C4.65382 10.6531 5.063 10.8394 5.35939 11.1393C5.65627 11.4398 5.84035 11.8538 5.84035 12.3094V15.3517H2.56642V12.3094C2.56642 11.8538 2.7505 11.4398 3.04738 11.1393C3.34425 10.8394 3.75343 10.6531 4.20314 10.6531ZM21.3233 6.09539H22.9697V8.12029L21.3233 7.78132V6.09539ZM22.0078 18.4735H20.7871V19.6436H22.0078V18.4735ZM20.5098 18.4735H19.2891V19.6436H20.5098V18.4735ZM19.2891 18.1929H20.5098V17.0223H19.2891V18.1929ZM20.7871 18.1929H22.0078V17.0223H20.7871V18.1929ZM22.2852 16.882V19.9248H19.0117V16.7417H22.2852V16.882ZM22.0078 13.3792H20.7871V15.071H22.0078V13.3792ZM20.5098 13.3792H19.2891V15.071H20.5098V13.3792ZM19.2891 13.0985H20.5098V10.9407C20.1909 10.9738 19.9038 11.1196 19.6885 11.3375C19.4419 11.587 19.2891 11.9314 19.2891 12.3094V13.0985ZM20.7871 13.0985H22.0078V12.3094C22.0078 11.9314 21.855 11.5875 21.6084 11.338C21.3931 11.1201 21.106 10.9738 20.7871 10.9407V13.0985ZM20.6485 10.6531C21.0986 10.6531 21.5078 10.8394 21.8047 11.1393C22.1011 11.4398 22.2852 11.8538 22.2852 12.3094V15.3517H19.0117V12.3094C19.0117 11.8538 19.1958 11.4398 19.4922 11.1393C19.7896 10.8394 20.1987 10.6531 20.6485 10.6531Z" fill="black"/>
</g>
<defs>
<clipPath id="clip0_1231_1334">
<rect width="25" height="21" fill="white"/>
</clipPath>
</defs>
</svg>
