<svg width="13" height="12" viewBox="0 0 13 12" fill="none" xmlns="http://www.w3.org/2000/svg">
<path d="M12.6926 5.17458L7.25484 0.635485C7.20868 0.592555 7.15375 0.558479 7.09324 0.535226C7.03272 0.511972 6.96781 0.5 6.90226 0.5C6.8367 0.5 6.77179 0.511972 6.71128 0.535226C6.65076 0.558479 6.59584 0.592555 6.54968 0.635485L1.11196 5.17458C1.02063 5.23351 0.953448 5.31907 0.921227 5.41748C0.889006 5.5159 0.893618 5.62145 0.93432 5.71715C0.975022 5.81286 1.04945 5.89315 1.14562 5.94511C1.2418 5.99707 1.35413 6.01768 1.46454 6.00362H2.4329V11.042C2.4329 11.1634 2.48522 11.2799 2.57835 11.3658C2.67148 11.4517 2.79779 11.5 2.9295 11.5H10.875C11.0067 11.5 11.133 11.4517 11.2262 11.3658C11.3193 11.2799 11.3716 11.1634 11.3716 11.042V6.00362H12.3648C12.4729 6.0114 12.5809 5.98631 12.6721 5.93219C12.7633 5.87806 12.8328 5.79788 12.87 5.70389C12.9071 5.60989 12.9099 5.50727 12.8779 5.41169C12.8458 5.31611 12.7807 5.23283 12.6926 5.17458ZM10.3784 10.5839H3.42609V8.29378H10.3784V10.5839Z" fill="#21C17A"/>
</svg>
