<svg width="23" height="23" viewBox="0 0 23 23" fill="none" xmlns="http://www.w3.org/2000/svg">
<g id="healthicons:health-worker-form-outline">
<g id="Group">
<path id="form" d="M7.66715 9.58382C7.54007 9.58382 7.41819 9.6343 7.32833 9.72417C7.23847 9.81403 7.18799 9.93591 7.18799 10.063C7.18799 10.1901 7.23847 10.3119 7.32833 10.4018C7.41819 10.4917 7.54007 10.5422 7.66715 10.5422H11.0213C11.1484 10.5422 11.2703 10.4917 11.3601 10.4018C11.45 10.3119 11.5005 10.1901 11.5005 10.063C11.5005 9.93591 11.45 9.81403 11.3601 9.72417C11.2703 9.6343 11.1484 9.58382 11.0213 9.58382H7.66715ZM7.18799 7.66715C7.18799 7.54007 7.23847 7.41819 7.32833 7.32833C7.41819 7.23847 7.54007 7.18799 7.66715 7.18799H15.0942C15.2213 7.18799 15.3432 7.23847 15.4331 7.32833C15.5229 7.41819 15.5734 7.54007 15.5734 7.66715C15.5734 7.79424 15.5229 7.91612 15.4331 8.00598C15.3432 8.09584 15.2213 8.14632 15.0942 8.14632H7.66715C7.54007 8.14632 7.41819 8.09584 7.32833 8.00598C7.23847 7.91612 7.18799 7.79424 7.18799 7.66715Z" fill="#21C17A"/>
<path id="form_2" fill-rule="evenodd" clip-rule="evenodd" d="M7.18799 13.4172C7.18799 13.2902 7.23847 13.1683 7.32833 13.0784C7.41819 12.9886 7.54007 12.9381 7.66715 12.9381H9.58382C9.7109 12.9381 9.83278 12.9886 9.92264 13.0784C10.0125 13.1683 10.063 13.2902 10.063 13.4172V15.3339C10.063 15.461 10.0125 15.5829 9.92264 15.6727C9.83278 15.7626 9.7109 15.8131 9.58382 15.8131H7.66715C7.54007 15.8131 7.41819 15.7626 7.32833 15.6727C7.23847 15.5829 7.18799 15.461 7.18799 15.3339V13.4172ZM8.14632 14.8547V13.8964H9.10465V14.8547H8.14632ZM13.4172 14.8547C13.7984 14.8547 14.164 14.7033 14.4336 14.4337C14.7032 14.1641 14.8547 13.7985 14.8547 13.4172C14.8547 13.036 14.7032 12.6704 14.4336 12.4008C14.164 12.1312 13.7984 11.9797 13.4172 11.9797C13.0359 11.9797 12.6703 12.1312 12.4007 12.4008C12.1311 12.6704 11.9797 13.036 11.9797 13.4172C11.9797 13.7985 12.1311 14.1641 12.4007 14.4337C12.6703 14.7033 13.0359 14.8547 13.4172 14.8547ZM13.4172 13.8964C13.4818 13.8994 13.5464 13.8892 13.607 13.8665C13.6676 13.8438 13.723 13.8091 13.7699 13.7644C13.8167 13.7197 13.854 13.666 13.8795 13.6065C13.905 13.547 13.9182 13.4829 13.9182 13.4182C13.9183 13.3535 13.9052 13.2894 13.8799 13.2299C13.8545 13.1703 13.8173 13.1165 13.7706 13.0718C13.7238 13.027 13.6685 12.9921 13.6079 12.9693C13.5473 12.9465 13.4828 12.9362 13.4181 12.939C13.2949 12.9444 13.1784 12.9971 13.0931 13.0862C13.0077 13.1753 12.96 13.2939 12.9599 13.4173C12.9598 13.5406 13.0072 13.6593 13.0924 13.7486C13.1776 13.8378 13.2939 13.8908 13.4172 13.8964ZM10.5422 16.8586C10.5422 15.8447 12.4574 15.3339 13.4172 15.3339C14.3769 15.3339 16.2922 15.8447 16.2922 16.8586V18.6881H10.5422V16.8586ZM11.5268 16.8778C11.5177 16.8865 11.5089 16.8956 11.5005 16.9051V17.7297H15.3338V16.9056C15.3255 16.8958 15.3167 16.8863 15.3075 16.8773C15.2289 16.8006 15.0775 16.699 14.8398 16.5979C14.3606 16.3943 13.7693 16.2922 13.4172 16.2922C13.065 16.2922 12.4737 16.3943 11.9945 16.5979C11.7568 16.6986 11.6054 16.8011 11.5268 16.8778Z" fill="#21C17A"/>
<path id="form_3" fill-rule="evenodd" clip-rule="evenodd" d="M8.14616 3.35474C8.14616 2.97349 8.29761 2.60785 8.56719 2.33827C8.83678 2.06869 9.20241 1.91724 9.58366 1.91724H13.417C13.7982 1.91724 14.1639 2.06869 14.4335 2.33827C14.703 2.60785 14.8545 2.97349 14.8545 3.35474H16.7712C17.1524 3.35474 17.518 3.50619 17.7876 3.77577C18.0572 4.04535 18.2087 4.41099 18.2087 4.79224V19.6464C18.2087 20.0277 18.0572 20.3933 17.7876 20.6629C17.518 20.9325 17.1524 21.0839 16.7712 21.0839H6.22949C5.84824 21.0839 5.48261 20.9325 5.21303 20.6629C4.94344 20.3933 4.79199 20.0277 4.79199 19.6464V4.79224C4.79199 4.41099 4.94344 4.04535 5.21303 3.77577C5.48261 3.50619 5.84824 3.35474 6.22949 3.35474H8.14616ZM13.417 5.75057C13.7982 5.75057 14.1639 5.59912 14.4335 5.32954C14.703 5.05995 14.8545 4.69432 14.8545 4.31307H16.7712C16.8982 4.31307 17.0201 4.36355 17.11 4.45341C17.1998 4.54328 17.2503 4.66515 17.2503 4.79224V19.6464C17.2503 19.7735 17.1998 19.8954 17.11 19.9852C17.0201 20.0751 16.8982 20.1256 16.7712 20.1256H6.22949C6.10241 20.1256 5.98053 20.0751 5.89067 19.9852C5.80081 19.8954 5.75033 19.7735 5.75033 19.6464V4.79224C5.75033 4.66515 5.80081 4.54328 5.89067 4.45341C5.98053 4.36355 6.10241 4.31307 6.22949 4.31307H8.14616C8.14616 4.69432 8.29761 5.05995 8.56719 5.32954C8.83678 5.59912 9.20241 5.75057 9.58366 5.75057H13.417ZM9.58366 2.87557C9.45658 2.87557 9.3347 2.92605 9.24484 3.01591C9.15498 3.10578 9.10449 3.22765 9.10449 3.35474V4.31307C9.10449 4.44015 9.15498 4.56203 9.24484 4.65189C9.3347 4.74175 9.45658 4.79224 9.58366 4.79224H13.417C13.5441 4.79224 13.666 4.74175 13.7558 4.65189C13.8457 4.56203 13.8962 4.44015 13.8962 4.31307V3.35474C13.8962 3.22765 13.8457 3.10578 13.7558 3.01591C13.666 2.92605 13.5441 2.87557 13.417 2.87557H9.58366Z" fill="#21C17A"/>
</g>
</g>
</svg>
