<svg width="18" height="18" viewBox="0 0 18 18" fill="none" xmlns="http://www.w3.org/2000/svg">
<path fill-rule="evenodd" clip-rule="evenodd" d="M8.585 0C13.3265 0 17.17 3.8435 17.17 8.585C17.17 13.3265 13.3265 17.17 8.585 17.17C3.8435 17.17 0 13.3265 0 8.585C0 3.8435 3.8435 0 8.585 0ZM8.585 1.717C6.76349 1.717 5.01659 2.44059 3.72859 3.72859C2.44059 5.01659 1.717 6.76349 1.717 8.585C1.717 10.4065 2.44059 12.1534 3.72859 13.4414C5.01659 14.7294 6.76349 15.453 8.585 15.453C10.4065 15.453 12.1534 14.7294 13.4414 13.4414C14.7294 12.1534 15.453 10.4065 15.453 8.585C15.453 6.76349 14.7294 5.01659 13.4414 3.72859C12.1534 2.44059 10.4065 1.717 8.585 1.717ZM9.87275 4.2925C10.6561 4.29137 11.409 4.59623 11.9709 5.1421C12.5327 5.68798 12.8592 6.43171 12.8807 7.2148C12.9022 7.99789 12.617 8.75841 12.0859 9.33429C11.5548 9.91017 10.8198 10.2559 10.0376 10.2977L9.87275 10.302H7.7265V12.019C7.72626 12.2378 7.64247 12.4483 7.49226 12.6074C7.34205 12.7665 7.13675 12.8622 6.91831 12.8751C6.69987 12.8879 6.48478 12.8168 6.31699 12.6764C6.14919 12.5359 6.04135 12.3367 6.01551 12.1194L6.0095 12.019V6.0095C6.00936 5.57632 6.17296 5.1591 6.46751 4.84147C6.76205 4.52384 7.16577 4.32928 7.59773 4.29679L7.7265 4.2925H9.87275ZM9.87275 6.0095H7.7265V8.585H9.87275C10.2035 8.58484 10.5214 8.45745 10.7608 8.22923C11.0001 8.00101 11.1425 7.68946 11.1584 7.35914C11.1743 7.02881 11.0625 6.70503 10.8461 6.45489C10.6298 6.20475 10.3255 6.04742 9.99637 6.01551L9.87275 6.0095Z" fill="#323232"/>
</svg>
