<svg width="23" height="23" viewBox="0 0 23 23" fill="none" xmlns="http://www.w3.org/2000/svg">
<rect width="23" height="23" fill="#636363"/>
<g id="home filter">
<g clip-path="url(#clip0_805_8621)">
<rect x="-54" y="-511" width="390" height="1086" rx="40" fill="#F1F1F1"/>
<rect x="-54" y="-511" width="390" height="1086" rx="40" fill="url(#paint0_linear_805_8621)" fill-opacity="0.3"/>
<g id="Frame 542">
<rect width="390" height="403" transform="translate(-54 -511)" fill="#21C17A"/>
<g id="Frame 567">
<g id="Frame 549" filter="url(#filter0_d_805_8621)">
<rect x="-21.5" y="-276" width="325" height="394" rx="16" fill="white"/>
<g id="Frame 552">
<g id="Frame 556">
<g id="Frame 554">
<g id="Frame 484">
<g id="gridicons:location" clip-path="url(#clip1_805_8621)">
<path id="Vector" d="M-0.0013423 22.7844V19.6594H2.49866V22.7844C2.49866 23.1281 2.77991 23.4094 3.12366 23.4094H4.99866C5.34241 23.4094 5.62366 23.1281 5.62366 22.7844V18.4094H6.68616C6.97366 18.4094 7.11116 18.0531 6.89241 17.8656L1.66741 13.1594C1.42991 12.9469 1.06741 12.9469 0.829907 13.1594L-4.39509 17.8656C-4.60759 18.0531 -4.47634 18.4094 -4.18884 18.4094H-3.12634V22.7844C-3.12634 23.1281 -2.84509 23.4094 -2.50134 23.4094H-0.626342C-0.282592 23.4094 -0.0013423 23.1281 -0.0013423 22.7844Z" fill="#21C17A"/>
</g>
<path id="Private Property" d="M21.602 16.098C21.602 16.91 21.322 17.5867 20.762 18.128C20.2113 18.66 19.3667 18.926 18.228 18.926H16.352V23H15.078V13.242H18.228C19.3293 13.242 20.1647 13.508 20.734 14.04C21.3127 14.572 21.602 15.258 21.602 16.098ZM18.228 17.876C18.9373 17.876 19.46 17.722 19.796 17.414C20.132 17.106 20.3 16.6673 20.3 16.098C20.3 14.894 19.6093 14.292 18.228 14.292H16.352V17.876H18.228ZM24.4594 16.574C24.6834 16.1353 25.0008 15.7947 25.4114 15.552C25.8314 15.3093 26.3401 15.188 26.9374 15.188V16.504H26.6014C25.1734 16.504 24.4594 17.2787 24.4594 18.828V23H23.1854V15.328H24.4594V16.574ZM29.0661 14.082C28.8234 14.082 28.6181 13.998 28.4501 13.83C28.2821 13.662 28.1981 13.4567 28.1981 13.214C28.1981 12.9713 28.2821 12.766 28.4501 12.598C28.6181 12.43 28.8234 12.346 29.0661 12.346C29.2994 12.346 29.4954 12.43 29.6541 12.598C29.8221 12.766 29.9061 12.9713 29.9061 13.214C29.9061 13.4567 29.8221 13.662 29.6541 13.83C29.4954 13.998 29.2994 14.082 29.0661 14.082ZM29.6821 15.328V23H28.4081V15.328H29.6821ZM34.7094 21.824L37.0894 15.328H38.4474L35.4374 23H33.9534L30.9434 15.328H32.3154L34.7094 21.824ZM39.225 19.136C39.225 18.352 39.3837 17.666 39.701 17.078C40.0184 16.4807 40.4524 16.0187 41.003 15.692C41.563 15.3653 42.1837 15.202 42.865 15.202C43.537 15.202 44.1204 15.3467 44.615 15.636C45.1097 15.9253 45.4784 16.2893 45.721 16.728V15.328H47.009V23H45.721V21.572C45.469 22.02 45.091 22.3933 44.587 22.692C44.0924 22.9813 43.5137 23.126 42.851 23.126C42.1697 23.126 41.5537 22.958 41.003 22.622C40.4524 22.286 40.0184 21.8147 39.701 21.208C39.3837 20.6013 39.225 19.9107 39.225 19.136ZM45.721 19.15C45.721 18.5713 45.6044 18.0673 45.371 17.638C45.1377 17.2087 44.8204 16.882 44.419 16.658C44.027 16.4247 43.593 16.308 43.117 16.308C42.641 16.308 42.207 16.42 41.815 16.644C41.423 16.868 41.1104 17.1947 40.877 17.624C40.6437 18.0533 40.527 18.5573 40.527 19.136C40.527 19.724 40.6437 20.2373 40.877 20.676C41.1104 21.1053 41.423 21.4367 41.815 21.67C42.207 21.894 42.641 22.006 43.117 22.006C43.593 22.006 44.027 21.894 44.419 21.67C44.8204 21.4367 45.1377 21.1053 45.371 20.676C45.6044 20.2373 45.721 19.7287 45.721 19.15ZM50.716 16.378V20.9C50.716 21.2733 50.7953 21.5393 50.954 21.698C51.1127 21.8473 51.388 21.922 51.78 21.922H52.718V23H51.57C50.8607 23 50.3287 22.8367 49.974 22.51C49.6193 22.1833 49.442 21.6467 49.442 20.9V16.378H48.448V15.328H49.442V13.396H50.716V15.328H52.718V16.378H50.716ZM61.2616 18.87C61.2616 19.1127 61.2476 19.3693 61.2196 19.64H55.0876C55.1343 20.396 55.3909 20.9887 55.8576 21.418C56.3336 21.838 56.9076 22.048 57.5796 22.048C58.1303 22.048 58.5876 21.922 58.9516 21.67C59.3249 21.4087 59.5863 21.0633 59.7356 20.634H61.1076C60.9023 21.3713 60.4916 21.9733 59.8756 22.44C59.2596 22.8973 58.4943 23.126 57.5796 23.126C56.8516 23.126 56.1983 22.9627 55.6196 22.636C55.0503 22.3093 54.6023 21.8473 54.2756 21.25C53.9489 20.6433 53.7856 19.9433 53.7856 19.15C53.7856 18.3567 53.9443 17.6613 54.2616 17.064C54.5789 16.4667 55.0223 16.0093 55.5916 15.692C56.1703 15.3653 56.8329 15.202 57.5796 15.202C58.3076 15.202 58.9516 15.3607 59.5116 15.678C60.0716 15.9953 60.5009 16.434 60.7996 16.994C61.1076 17.5447 61.2616 18.17 61.2616 18.87ZM59.9456 18.604C59.9456 18.1187 59.8383 17.7033 59.6236 17.358C59.4089 17.0033 59.1149 16.7373 58.7416 16.56C58.3776 16.3733 57.9716 16.28 57.5236 16.28C56.8796 16.28 56.3289 16.4853 55.8716 16.896C55.4236 17.3067 55.1669 17.876 55.1016 18.604H59.9456ZM73.1997 16.098C73.1997 16.91 72.9197 17.5867 72.3597 18.128C71.809 18.66 70.9643 18.926 69.8257 18.926H67.9497V23H66.6757V13.242H69.8257C70.927 13.242 71.7623 13.508 72.3317 14.04C72.9103 14.572 73.1997 15.258 73.1997 16.098ZM69.8257 17.876C70.535 17.876 71.0577 17.722 71.3937 17.414C71.7297 17.106 71.8977 16.6673 71.8977 16.098C71.8977 14.894 71.207 14.292 69.8257 14.292H67.9497V17.876H69.8257ZM76.0571 16.574C76.2811 16.1353 76.5984 15.7947 77.0091 15.552C77.4291 15.3093 77.9377 15.188 78.5351 15.188V16.504H78.1991C76.7711 16.504 76.0571 17.2787 76.0571 18.828V23H74.7831V15.328H76.0571V16.574ZM83.3517 23.126C82.6331 23.126 81.9797 22.9627 81.3917 22.636C80.8131 22.3093 80.3557 21.8473 80.0197 21.25C79.6931 20.6433 79.5297 19.9433 79.5297 19.15C79.5297 18.366 79.6977 17.6753 80.0337 17.078C80.3791 16.4713 80.8457 16.0093 81.4337 15.692C82.0217 15.3653 82.6797 15.202 83.4077 15.202C84.1357 15.202 84.7937 15.3653 85.3817 15.692C85.9697 16.0093 86.4317 16.4667 86.7677 17.064C87.1131 17.6613 87.2857 18.3567 87.2857 19.15C87.2857 19.9433 87.1084 20.6433 86.7537 21.25C86.4084 21.8473 85.9371 22.3093 85.3397 22.636C84.7424 22.9627 84.0797 23.126 83.3517 23.126ZM83.3517 22.006C83.8091 22.006 84.2384 21.8987 84.6397 21.684C85.0411 21.4693 85.3631 21.1473 85.6057 20.718C85.8577 20.2887 85.9837 19.766 85.9837 19.15C85.9837 18.534 85.8624 18.0113 85.6197 17.582C85.3771 17.1527 85.0597 16.8353 84.6677 16.63C84.2757 16.4153 83.8511 16.308 83.3937 16.308C82.9271 16.308 82.4977 16.4153 82.1057 16.63C81.7231 16.8353 81.4151 17.1527 81.1817 17.582C80.9484 18.0113 80.8317 18.534 80.8317 19.15C80.8317 19.7753 80.9437 20.3027 81.1677 20.732C81.4011 21.1613 81.7091 21.4833 82.0917 21.698C82.4744 21.9033 82.8944 22.006 83.3517 22.006ZM90.2348 16.742C90.4868 16.3033 90.8601 15.9393 91.3548 15.65C91.8588 15.3513 92.4421 15.202 93.1048 15.202C93.7861 15.202 94.4021 15.3653 94.9528 15.692C95.5128 16.0187 95.9515 16.4807 96.2688 17.078C96.5861 17.666 96.7448 18.352 96.7448 19.136C96.7448 19.9107 96.5861 20.6013 96.2688 21.208C95.9515 21.8147 95.5128 22.286 94.9528 22.622C94.4021 22.958 93.7861 23.126 93.1048 23.126C92.4515 23.126 91.8728 22.9813 91.3688 22.692C90.8741 22.3933 90.4961 22.0247 90.2348 21.586V26.64H88.9608V15.328H90.2348V16.742ZM95.4428 19.136C95.4428 18.5573 95.3261 18.0533 95.0928 17.624C94.8595 17.1947 94.5421 16.868 94.1408 16.644C93.7488 16.42 93.3148 16.308 92.8388 16.308C92.3721 16.308 91.9381 16.4247 91.5368 16.658C91.1448 16.882 90.8275 17.2133 90.5848 17.652C90.3515 18.0813 90.2348 18.5807 90.2348 19.15C90.2348 19.7287 90.3515 20.2373 90.5848 20.676C90.8275 21.1053 91.1448 21.4367 91.5368 21.67C91.9381 21.894 92.3721 22.006 92.8388 22.006C93.3148 22.006 93.7488 21.894 94.1408 21.67C94.5421 21.4367 94.8595 21.1053 95.0928 20.676C95.3261 20.2373 95.4428 19.724 95.4428 19.136ZM105.422 18.87C105.422 19.1127 105.408 19.3693 105.38 19.64H99.2478C99.2944 20.396 99.5511 20.9887 100.018 21.418C100.494 21.838 101.068 22.048 101.74 22.048C102.29 22.048 102.748 21.922 103.112 21.67C103.485 21.4087 103.746 21.0633 103.896 20.634H105.268C105.062 21.3713 104.652 21.9733 104.036 22.44C103.42 22.8973 102.654 23.126 101.74 23.126C101.012 23.126 100.358 22.9627 99.7798 22.636C99.2104 22.3093 98.7624 21.8473 98.4358 21.25C98.1091 20.6433 97.9458 19.9433 97.9458 19.15C97.9458 18.3567 98.1044 17.6613 98.4218 17.064C98.7391 16.4667 99.1824 16.0093 99.7518 15.692C100.33 15.3653 100.993 15.202 101.74 15.202C102.468 15.202 103.112 15.3607 103.672 15.678C104.232 15.9953 104.661 16.434 104.96 16.994C105.268 17.5447 105.422 18.17 105.422 18.87ZM104.106 18.604C104.106 18.1187 103.998 17.7033 103.784 17.358C103.569 17.0033 103.275 16.7373 102.902 16.56C102.538 16.3733 102.132 16.28 101.684 16.28C101.04 16.28 100.489 16.4853 100.032 16.896C99.5838 17.3067 99.3271 17.876 99.2618 18.604H104.106ZM108.377 16.574C108.601 16.1353 108.919 15.7947 109.329 15.552C109.749 15.3093 110.258 15.188 110.855 15.188V16.504H110.519C109.091 16.504 108.377 17.2787 108.377 18.828V23H107.103V15.328H108.377V16.574ZM113.88 16.378V20.9C113.88 21.2733 113.959 21.5393 114.118 21.698C114.277 21.8473 114.552 21.922 114.944 21.922H115.882V23H114.734C114.025 23 113.493 22.8367 113.138 22.51C112.783 22.1833 112.606 21.6467 112.606 20.9V16.378H111.612V15.328H112.606V13.396H113.88V15.328H115.882V16.378H113.88ZM124.034 15.328L119.414 26.612H118.098L119.61 22.916L116.516 15.328H117.93L120.338 21.544L122.718 15.328H124.034Z" fill="#828282"/>
</g>
</g>
</g>
</g>
</g>
</g>
</g>
<rect id="Rectangle 23" x="-54" y="-511" width="390" height="1086" fill="#111111" fill-opacity="0.5"/>
<g id="Frame 3884">
<g clip-path="url(#clip2_805_8621)">
<rect x="-30" y="-397.5" width="342" height="858" rx="17" fill="white"/>
<g id="Frame 3907">
<g id="Frame 3880">
<rect width="342" height="44" transform="translate(-30 -10.5)" fill="white"/>
<g id="Frame 605">
<rect x="-9.5" y="-10" width="144" height="43" rx="6.5" stroke="#CCCCCC"/>
<g id="maki:furniture">
<path id="Vector_2" d="M13.3262 15.5511V13.0333C13.3262 12.83 13.2454 12.635 13.1016 12.4912C12.9578 12.3474 12.7628 12.2667 12.5595 12.2667H11.0262C10.8228 12.2667 10.6278 12.3474 10.484 12.4912C10.3403 12.635 10.2595 12.83 10.2595 13.0333V15.5495C9.09427 15.8475 8.04272 16.4824 7.2363 17.3747C6.42988 18.267 5.90436 19.3772 5.72543 20.5666C5.70794 20.6775 5.71467 20.7908 5.74514 20.8988C5.77561 21.0068 5.82911 21.1069 5.90195 21.1923C5.9748 21.2777 6.06526 21.3463 6.16714 21.3934C6.26901 21.4405 6.37987 21.4649 6.4921 21.4651H17.1058C17.2181 21.4649 17.3289 21.4405 17.4308 21.3934C17.5327 21.3463 17.6231 21.2777 17.696 21.1923C17.7688 21.1069 17.8223 21.0068 17.8528 20.8988C17.8833 20.7908 17.89 20.6775 17.8725 20.5666C17.6924 19.376 17.1649 18.2649 16.3562 17.3727C15.5475 16.4806 14.4934 15.8469 13.3262 15.5511ZM20.4393 9.62779L16.606 1.96113C16.5429 1.83308 16.4453 1.72519 16.3242 1.64961C16.2031 1.57403 16.0633 1.53376 15.9206 1.53333H7.6651C7.5231 1.53361 7.38397 1.57333 7.26322 1.64806C7.14247 1.72278 7.04485 1.82957 6.98123 1.95653L3.1479 9.62319C3.0895 9.73973 3.06178 9.86923 3.06735 9.99946C3.07293 10.1297 3.11162 10.2564 3.17976 10.3675C3.24791 10.4786 3.34326 10.5705 3.45681 10.6345C3.57035 10.6985 3.69835 10.7325 3.8287 10.7333H16.3928V13.0333C16.3928 13.2367 16.4736 13.4317 16.6174 13.5754C16.7612 13.7192 16.9562 13.8 17.1595 13.8C17.3628 13.8 17.5578 13.7192 17.7016 13.5754C17.8454 13.4317 17.9262 13.2367 17.9262 13.0333V10.7333H19.757C19.8868 10.7324 20.0143 10.6985 20.1275 10.6349C20.2407 10.5712 20.3358 10.4798 20.404 10.3693C20.4722 10.2588 20.5112 10.1328 20.5174 10.0031C20.5236 9.87342 20.4967 9.74427 20.4393 9.62779Z" fill="#323232"/>
</g>
</g>
</g>
</g>
</g>
</g>
</g>
</g>
<defs>
<filter id="filter0_d_805_8621" x="-21.5" y="-276" width="325" height="401" filterUnits="userSpaceOnUse" color-interpolation-filters="sRGB">
<feFlood flood-opacity="0" result="BackgroundImageFix"/>
<feColorMatrix in="SourceAlpha" type="matrix" values="0 0 0 0 0 0 0 0 0 0 0 0 0 0 0 0 0 0 127 0" result="hardAlpha"/>
<feOffset dy="7"/>
<feComposite in2="hardAlpha" operator="out"/>
<feColorMatrix type="matrix" values="0 0 0 0 0.129412 0 0 0 0 0.756863 0 0 0 0 0.478431 0 0 0 0.2 0"/>
<feBlend mode="normal" in2="BackgroundImageFix" result="effect1_dropShadow_805_8621"/>
<feBlend mode="normal" in="SourceGraphic" in2="effect1_dropShadow_805_8621" result="shape"/>
</filter>
<linearGradient id="paint0_linear_805_8621" x1="128" y1="-511" x2="149.52" y2="574.831" gradientUnits="userSpaceOnUse">
<stop stop-color="white" stop-opacity="0.19"/>
<stop offset="0.7" stop-color="#21C17A" stop-opacity="0.17"/>
</linearGradient>
<clipPath id="clip0_805_8621">
<rect x="-54" y="-511" width="390" height="1086" rx="40" fill="white"/>
</clipPath>
<clipPath id="clip1_805_8621">
<rect width="14" height="11" fill="white" transform="translate(-6 12.5)"/>
</clipPath>
<clipPath id="clip2_805_8621">
<rect x="-30" y="-397.5" width="342" height="858" rx="17" fill="white"/>
</clipPath>
</defs>
</svg>
