<svg width="27" height="25" viewBox="0 0 27 25" fill="none" xmlns="http://www.w3.org/2000/svg">
<path id="heart" d="M23.9526 14.1604L15.8076 22.3069C15.2675 22.8467 14.5352 23.15 13.7717 23.15C13.0081 23.15 12.2758 22.8467 11.7358 22.3069L3.59071 14.1618C2.91741 13.4944 2.38257 12.7005 2.01689 11.8259C1.65121 10.9512 1.4619 10.0129 1.45983 9.06482C1.45775 8.11677 1.64295 7.17765 2.00479 6.30137C2.36664 5.42509 2.898 4.62891 3.56837 3.95854C4.23874 3.28817 5.03492 2.7568 5.9112 2.39496C6.78748 2.03312 7.72661 1.84792 8.67465 1.84999C9.6227 1.85207 10.561 2.04138 11.4357 2.40706C12.3104 2.77274 13.1042 3.30758 13.7717 3.98088C15.1273 2.65894 16.9493 1.92434 18.8427 1.9362C20.7362 1.94807 22.5488 2.70544 23.8878 4.04427C25.2268 5.38309 25.9844 7.19554 25.9966 9.08902C26.0087 10.9825 25.2743 12.8045 23.9526 14.1604Z" stroke="currentColor" stroke-width="2" stroke-linecap="round" stroke-linejoin="round"/>
</svg>
