<svg width="24" height="23" viewBox="0 0 24 23" fill="none" xmlns="http://www.w3.org/2000/svg">
<path d="M13.2458 19.8615C13.15 19.9413 13.0503 20.0052 12.9468 20.0531C12.8433 20.1011 12.7274 20.125 12.5989 20.125C12.4712 20.125 12.3434 20.0969 12.2156 20.0407C12.0878 19.9845 11.976 19.9087 11.8802 19.8136C11.2253 19.1108 10.742 18.392 10.4302 17.6573C10.1185 16.9226 9.96321 16.1479 9.96449 15.3333C9.96449 14.7424 10.0523 14.1195 10.228 13.4646C10.4037 12.8097 10.7072 11.9632 11.1384 10.925C11.5058 10.0146 11.7614 9.31597 11.9051 8.82914C12.0489 8.3423 12.1207 7.89093 12.1207 7.47501C12.1207 6.93196 12.001 6.425 11.7614 5.95414C11.5218 5.48327 11.1464 5.00794 10.6353 4.52814C10.5395 4.4323 10.4638 4.3205 10.4082 4.19272C10.3526 4.06494 10.3245 3.93716 10.3239 3.80939C10.3239 3.68161 10.3478 3.56597 10.3957 3.46247C10.4437 3.35897 10.5075 3.25898 10.5874 3.16251C10.6832 3.06668 10.7909 2.9948 10.9104 2.94689C11.0298 2.89897 11.1535 2.87501 11.2812 2.87501C11.409 2.87501 11.5288 2.89897 11.6406 2.94689C11.7524 2.9948 11.8562 3.05869 11.9521 3.13855C12.6549 3.79341 13.1778 4.48022 13.5209 5.19897C13.8639 5.91772 14.0358 6.6764 14.0364 7.47501C14.0364 8.03404 13.9524 8.62118 13.7844 9.23643C13.6164 9.85168 13.325 10.6541 12.9104 11.6438C12.5111 12.6021 12.2396 13.3368 12.0958 13.8479C11.9521 14.359 11.8802 14.8462 11.8802 15.3094C11.8802 15.8684 11.9962 16.4076 12.2281 16.9271C12.46 17.4465 12.8152 17.9694 13.2937 18.4958C13.3736 18.5917 13.4375 18.6955 13.4854 18.8073C13.5333 18.9191 13.5573 19.0389 13.5573 19.1667C13.5573 19.2945 13.5333 19.4184 13.4854 19.5385C13.4375 19.6586 13.3576 19.7663 13.2458 19.8615ZM17.9177 19.8615C17.8219 19.9413 17.7222 20.0052 17.6187 20.0531C17.5152 20.1011 17.3992 20.125 17.2708 20.125C17.143 20.125 17.0153 20.0969 16.8875 20.0407C16.7597 19.9845 16.6479 19.9087 16.5521 19.8136C15.8972 19.1108 15.4139 18.3959 15.1021 17.6688C14.7903 16.9417 14.6348 16.1712 14.6354 15.3573C14.6354 14.7663 14.7233 14.1354 14.8989 13.4646C15.0746 12.7938 15.3781 11.9472 15.8094 10.925C16.1767 10.0146 16.4323 9.3198 16.576 8.84064C16.7198 8.36147 16.7917 7.91425 16.7917 7.49897C16.7917 6.95591 16.6719 6.44097 16.4323 5.95414C16.1927 5.4673 15.8174 4.99197 15.3062 4.52814C15.2104 4.4323 15.1385 4.32465 15.0906 4.20518C15.0427 4.08571 15.0187 3.96176 15.0187 3.83334C15.0187 3.70557 15.0389 3.58961 15.0791 3.48547C15.1194 3.38133 15.1791 3.28166 15.2583 3.18647C15.3542 3.09064 15.466 3.01461 15.5937 2.95839C15.7215 2.90216 15.8493 2.87437 15.9771 2.87501C16.1049 2.87501 16.2208 2.89897 16.325 2.94689C16.4291 2.9948 16.5288 3.05869 16.624 3.13855C17.3267 3.79341 17.85 4.48022 18.1937 5.19897C18.5374 5.91772 18.709 6.6764 18.7083 7.47501C18.7083 8.03404 18.6246 8.62118 18.4572 9.23643C18.2899 9.85168 17.9982 10.6621 17.5823 11.6677C17.183 12.6261 16.9115 13.3608 16.7677 13.8719C16.624 14.383 16.5521 14.8622 16.5521 15.3094C16.5521 15.8684 16.6719 16.4156 16.9114 16.951C17.151 17.4864 17.5104 18.0093 17.9896 18.5198C18.0694 18.6156 18.1292 18.7195 18.1688 18.8313C18.2084 18.9431 18.2285 19.0549 18.2292 19.1667C18.2292 19.2945 18.2052 19.4222 18.1573 19.55C18.1094 19.6778 18.0295 19.7816 17.9177 19.8615ZM8.57395 19.8615C8.47812 19.9413 8.37813 20.0052 8.27399 20.0531C8.16985 20.1011 8.05421 20.125 7.92708 20.125C7.7993 20.125 7.67152 20.0969 7.54374 20.0407C7.41596 19.9845 7.30416 19.9091 7.20833 19.8145C6.55346 19.1117 6.07014 18.3968 5.75837 17.6698C5.44659 16.9427 5.29102 16.1719 5.29166 15.3573C5.29166 14.7663 5.37951 14.1354 5.5552 13.4646C5.73089 12.7938 6.03437 11.9472 6.46562 10.925C6.83298 10.0146 7.08853 9.3198 7.23228 8.84064C7.37603 8.36147 7.44791 7.91425 7.44791 7.49897C7.44791 6.95591 7.32812 6.44097 7.08853 5.95414C6.84895 5.4673 6.4736 4.99197 5.96249 4.52814C5.85069 4.4323 5.77082 4.32465 5.72291 4.20518C5.67499 4.08571 5.65103 3.96176 5.65103 3.83334C5.65103 3.70557 5.67499 3.58577 5.72291 3.47397C5.77082 3.36216 5.83471 3.25834 5.91458 3.16251C6.01041 3.06668 6.11838 2.9948 6.23849 2.94689C6.3586 2.89897 6.48223 2.87501 6.60937 2.87501C6.73714 2.87501 6.85694 2.89897 6.96874 2.94689C7.08055 2.9948 7.18437 3.05869 7.2802 3.13855C7.98298 3.79341 8.50623 4.47639 8.84995 5.18747C9.19367 5.89855 9.36521 6.66107 9.36457 7.47501C9.36457 8.03404 9.28471 8.62118 9.12499 9.23643C8.96527 9.85168 8.67777 10.6541 8.26249 11.6438C7.86319 12.6021 7.59166 13.3368 7.44791 13.8479C7.30416 14.359 7.23228 14.8462 7.23228 15.3094C7.23228 15.8684 7.34824 16.4156 7.58016 16.951C7.81208 17.4864 8.1673 18.0093 8.64583 18.5198C8.72569 18.6156 8.78574 18.7195 8.82599 18.8313C8.86624 18.9431 8.88605 19.0549 8.88541 19.1667C8.88541 19.2945 8.86145 19.4222 8.81353 19.55C8.76562 19.6778 8.68576 19.7816 8.57395 19.8615Z" fill="#323232"/>
</svg>
