<svg width="53" height="53" viewBox="0 0 53 53" fill="none" xmlns="http://www.w3.org/2000/svg">
<g id="tabler:home-heart">
<g id="Group">
<path id="home-rent" d="M45.0027 25.5014L25.5014 6L6 25.5014H10.3336V40.6691C10.3336 41.8184 10.7902 42.9207 11.6029 43.7334C12.4156 44.5461 13.5179 45.0027 14.6673 45.0027H24.8513" stroke="white" stroke-width="3" stroke-linecap="round" stroke-linejoin="round"/>
<path id="home-rent_2" d="M19.001 45.0035V32.0026C19.001 30.8532 19.4576 29.751 20.2703 28.9382C21.083 28.1255 22.1853 27.6689 23.3346 27.6689H27.6682M43.2693 43.27L47.1696 47.1703M32.0019 38.503C32.0019 40.2271 32.6867 41.8805 33.9058 43.0996C35.1249 44.3186 36.7783 45.0035 38.5023 45.0035C40.2264 45.0035 41.8798 44.3186 43.0989 43.0996C44.3179 41.8805 45.0028 40.2271 45.0028 38.503C45.0028 36.779 44.3179 35.1256 43.0989 33.9065C41.8798 32.6874 40.2264 32.0026 38.5023 32.0026C36.7783 32.0026 35.1249 32.6874 33.9058 33.9065C32.6867 35.1256 32.0019 36.779 32.0019 38.503Z" stroke="white" stroke-width="3" stroke-linecap="round" stroke-linejoin="round"/>
</g>
</g>
</svg>
