<svg width="52" height="52" viewBox="0 0 52 52" fill="none" xmlns="http://www.w3.org/2000/svg">
<g id="tabler:home-link">
<g id="Group">
<path id="home-owner" d="M43.5175 24.0175L26 6.5L6.5 26H10.8333V41.1667C10.8333 42.3159 11.2899 43.4181 12.1025 44.2308C12.9152 45.0435 14.0174 45.5 15.1667 45.5H24.9167" stroke="white" stroke-width="3" stroke-linecap="round" stroke-linejoin="round"/>
<path id="home-owner_2" d="M19.5 45.5001V32.5001C19.5 31.3508 19.9565 30.2486 20.7692 29.436C21.5819 28.6233 22.6841 28.1667 23.8333 28.1667H28.1667C28.9867 28.1668 29.7899 28.3995 30.483 28.8379C31.176 29.2763 31.7304 29.9023 32.0818 30.6432M43.3333 45.5001C43.3333 46.0747 43.5616 46.6258 43.9679 47.0321C44.3743 47.4385 44.9254 47.6667 45.5 47.6667C46.0746 47.6667 46.6257 47.4385 47.0321 47.0321C47.4384 46.6258 47.6667 46.0747 47.6667 45.5001C47.6667 44.9254 47.4384 44.3743 47.0321 43.968C46.6257 43.5617 46.0746 43.3334 45.5 43.3334C44.9254 43.3334 44.3743 43.5617 43.9679 43.968C43.5616 44.3743 43.3333 44.9254 43.3333 45.5001ZM43.3333 34.6667C43.3333 35.2414 43.5616 35.7925 43.9679 36.1988C44.3743 36.6051 44.9254 36.8334 45.5 36.8334C46.0746 36.8334 46.6257 36.6051 47.0321 36.1988C47.4384 35.7925 47.6667 35.2414 47.6667 34.6667C47.6667 34.0921 47.4384 33.541 47.0321 33.1347C46.6257 32.7284 46.0746 32.5001 45.5 32.5001C44.9254 32.5001 44.3743 32.7284 43.9679 33.1347C43.5616 33.541 43.3333 34.0921 43.3333 34.6667ZM32.5 41.1667C32.5 41.7414 32.7283 42.2925 33.1346 42.6988C33.5409 43.1051 34.092 43.3334 34.6667 43.3334C35.2413 43.3334 35.7924 43.1051 36.1987 42.6988C36.6051 42.2925 36.8333 41.7414 36.8333 41.1667C36.8333 40.5921 36.6051 40.041 36.1987 39.6347C35.7924 39.2284 35.2413 39.0001 34.6667 39.0001C34.092 39.0001 33.5409 39.2284 33.1346 39.6347C32.7283 40.041 32.5 40.5921 32.5 41.1667Z" stroke="white" stroke-width="3" stroke-linecap="round" stroke-linejoin="round"/>
<path id="home-owner_3" d="M45.5001 34.6667L34.6667 41.1667L45.5001 45.5001" stroke="white" stroke-width="3" stroke-linecap="round" stroke-linejoin="round"/>
</g>
</g>
</svg>
