<svg width="26" height="27" viewBox="0 0 26 27" fill="none" xmlns="http://www.w3.org/2000/svg">
<path id="home" d="M24.4598 22.4781C24.4598 23.1469 24.1906 23.7884 23.7113 24.2613C23.2321 24.7343 22.5821 25 21.9043 25L4.01539 25C3.33762 25 2.6876 24.7343 2.20834 24.2613C1.72908 23.7884 1.45984 23.1469 1.45984 22.4781L1.45984 13.988C1.45984 13.3039 1.60087 12.6269 1.87436 11.9982C2.14784 11.3696 2.54806 10.8024 3.05067 10.3312L11.2003 2.69353C11.6753 2.24827 12.3054 2 12.9605 2C13.6156 2 14.2457 2.24827 14.7206 2.69353L22.869 10.3312C23.3716 10.8024 23.7718 11.3696 24.0453 11.9982C24.3188 12.6269 24.4598 13.3039 24.4598 13.988" stroke="#B0B0B0" stroke-width="2.5" stroke-linecap="round" stroke-linejoin="round"/>
</svg>
