<svg width="11" height="11" viewBox="0 0 11 11" fill="none" xmlns="http://www.w3.org/2000/svg">
<path d="M2.33752 0.5V10.5M0.650024 0.5V2.26471C0.650024 2.49645 0.693673 2.72593 0.778478 2.94003C0.863283 3.15413 0.987583 3.34867 1.14428 3.51254C1.30098 3.67641 1.48701 3.8064 1.69175 3.89508C1.89648 3.98377 2.11592 4.02941 2.33752 4.02941C2.55913 4.02941 2.77857 3.98377 2.9833 3.89508C3.18804 3.8064 3.37407 3.67641 3.53077 3.51254C3.68747 3.34867 3.81177 3.15413 3.89657 2.94003C3.98138 2.72593 4.02502 2.49645 4.02502 2.26471V0.5M7.96252 5.20588C7.51497 5.20588 7.08575 4.95798 6.76928 4.51672C6.45281 4.07546 6.27502 3.47698 6.27502 2.85294C6.27502 2.2289 6.45281 1.63042 6.76928 1.18916C7.08575 0.747898 7.51497 0.5 7.96252 0.5C8.41008 0.5 8.8393 0.747898 9.15577 1.18916C9.47223 1.63042 9.65002 2.2289 9.65002 2.85294C9.65002 3.47698 9.47223 4.07546 9.15577 4.51672C8.8393 4.95798 8.41008 5.20588 7.96252 5.20588ZM7.96252 5.20588V10.5" stroke="#323232" stroke-linecap="round" stroke-linejoin="round"/>
</svg>
