<svg width="11" height="14" viewBox="0 0 11 14" fill="none" xmlns="http://www.w3.org/2000/svg">
<path id="location" d="M10.4595 5.8745C10.4595 5.22321 10.3312 4.5783 10.082 3.97658C9.83274 3.37487 9.46742 2.82814 9.00689 2.3676C8.54636 1.90707 7.99963 1.54176 7.39791 1.29252C6.7962 1.04328 6.15129 0.915001 5.5 0.915001C4.84871 0.915001 4.20379 1.04328 3.60208 1.29252C3.00036 1.54176 2.45363 1.90707 1.9931 2.3676C1.53257 2.82814 1.16725 3.37487 0.918016 3.97658C0.668778 4.5783 0.540497 5.22321 0.540497 5.8745C0.540497 6.85618 0.829675 7.76927 1.32186 8.53962C1.32252 8.54065 1.32178 8.542 1.32055 8.542C1.31933 8.542 1.31859 8.54336 1.31925 8.54439L3.81484 12.4486C4.60135 13.6791 6.39864 13.6791 7.18515 12.4486L9.68094 8.54409C9.68151 8.54319 9.68087 8.542 9.67979 8.542C9.67872 8.542 9.67807 8.54082 9.67865 8.53991C10.1885 7.74444 10.4595 6.81939 10.4595 5.8745ZM5.5 8C4.93628 8 4.39565 7.77606 3.99704 7.37746C3.59843 6.97885 3.3745 6.43822 3.3745 5.8745C3.3745 5.31078 3.59843 4.77015 3.99704 4.37155C4.39565 3.97294 4.93628 3.749 5.5 3.749C6.06371 3.749 6.60434 3.97294 7.00295 4.37155C7.40156 4.77015 7.6255 5.31078 7.6255 5.8745C7.6255 6.43822 7.40156 6.97885 7.00295 7.37746C6.60434 7.77606 6.06371 8 5.5 8Z" fill="#B0B0B0"/>
</svg>
