<svg width="23" height="24" viewBox="0 0 23 24" fill="none" xmlns="http://www.w3.org/2000/svg">
<path d="M11.5 4.33327C11.302 4.33327 11.1295 4.2598 10.9825 4.11286C10.8356 3.96591 10.7621 3.79341 10.7621 3.59536C10.7621 3.39794 10.8356 3.22576 10.9825 3.07882C11.1295 2.93187 11.302 2.8584 11.5 2.8584C11.6981 2.8584 11.8706 2.93187 12.0175 3.07882C12.1645 3.22576 12.2379 3.39826 12.2379 3.59632C12.2379 3.79437 12.1645 3.96687 12.0175 4.11382C11.8706 4.26012 11.6981 4.33327 11.5 4.33327ZM11.5 21.1405C11.302 21.1405 11.1295 21.0671 10.9825 20.9201C10.8356 20.7732 10.7621 20.601 10.7621 20.4036C10.7621 20.2055 10.8356 20.033 10.9825 19.8861C11.1295 19.7398 11.302 19.6666 11.5 19.6666C11.6981 19.6666 11.8706 19.7401 12.0175 19.887C12.1645 20.034 12.2379 20.2065 12.2379 20.4045C12.2379 20.6019 12.1645 20.7741 12.0175 20.9211C11.8706 21.068 11.6981 21.1405 11.5 21.1405ZM4.93353 7.51111C4.73547 7.51111 4.56297 7.43763 4.41603 7.29069C4.26908 7.14375 4.19561 6.97157 4.19561 6.77415C4.19561 6.57609 4.26908 6.40359 4.41603 6.25665C4.56297 6.1097 4.73547 6.03623 4.93353 6.03623C5.13158 6.03623 5.30408 6.1097 5.45103 6.25665C5.59797 6.40359 5.67144 6.57609 5.67144 6.77415C5.67144 6.9722 5.59797 7.1447 5.45103 7.29165C5.30408 7.43859 5.13158 7.51111 4.93353 7.51111ZM18.0665 17.9608C17.8685 17.9608 17.696 17.8873 17.549 17.7404C17.4021 17.5934 17.3286 17.4209 17.3286 17.2229C17.3286 17.0254 17.4021 16.8533 17.549 16.7063C17.696 16.5594 17.8685 16.4859 18.0665 16.4859C18.2646 16.4859 18.4371 16.5594 18.584 16.7063C18.731 16.8533 18.8044 17.0258 18.8044 17.2238C18.8044 17.4219 18.731 17.5944 18.584 17.7413C18.4371 17.8883 18.2646 17.9617 18.0665 17.9617M3.31203 14.6354C3.11397 14.6354 2.94147 14.5619 2.79453 14.4149C2.64758 14.268 2.57411 14.0955 2.57411 13.8974C2.57411 13.7 2.64758 13.5278 2.79453 13.3809C2.94147 13.234 3.11397 13.1605 3.31203 13.1605C3.51008 13.1605 3.68258 13.234 3.82953 13.3809C3.97583 13.5278 4.04898 13.7003 4.04898 13.8984C4.04898 14.0965 3.97551 14.269 3.82857 14.4159C3.68162 14.5622 3.50912 14.6354 3.31107 14.6354M19.6698 10.8212C19.4718 10.8212 19.2993 10.7477 19.1523 10.6008C19.0054 10.4538 18.9319 10.2813 18.9319 10.0833C18.9319 9.88522 19.0054 9.71272 19.1523 9.56577C19.2993 9.41883 19.4718 9.34536 19.6698 9.34536C19.8679 9.34536 20.0404 9.41883 20.1873 9.56577C20.3343 9.71272 20.4077 9.88522 20.4077 10.0833C20.4077 10.2813 20.3343 10.4538 20.1873 10.6008C20.0404 10.7477 19.8679 10.8212 19.6698 10.8212ZM7.76253 20.2828C7.56447 20.2828 7.39197 20.2093 7.24503 20.0624C7.09808 19.9155 7.02461 19.7433 7.02461 19.5459C7.02461 19.3478 7.09808 19.1753 7.24503 19.0284C7.39197 18.8814 7.56447 18.8079 7.76253 18.8079C7.96058 18.8079 8.13308 18.8814 8.28003 19.0284C8.42697 19.1753 8.50044 19.3478 8.50044 19.5459C8.50044 19.7439 8.42697 19.9164 8.28003 20.0634C8.13308 20.2103 7.96058 20.2828 7.76253 20.2828ZM15.0535 5.13444C14.8555 5.13444 14.683 5.06097 14.536 4.91402C14.3891 4.76708 14.3156 4.59458 14.3156 4.39652C14.3156 4.19847 14.3891 4.02597 14.536 3.87902C14.683 3.73272 14.8555 3.65957 15.0535 3.65957C15.2516 3.65957 15.4241 3.73304 15.571 3.87998C15.7173 4.02693 15.7905 4.19943 15.7905 4.39748C15.7905 4.5949 15.717 4.76708 15.5701 4.91402C15.4231 5.06097 15.2506 5.13444 15.0526 5.13444M15.2375 20.2589C15.0395 20.2589 14.867 20.1854 14.72 20.0384C14.5731 19.8915 14.4996 19.7193 14.4996 19.5219C14.4996 19.3238 14.5731 19.1513 14.72 19.0044C14.867 18.8575 15.0395 18.784 15.2375 18.784C15.4356 18.784 15.6081 18.8575 15.755 19.0044C15.902 19.1513 15.9754 19.3238 15.9754 19.5219C15.9754 19.72 15.902 19.8925 15.755 20.0394C15.6081 20.1863 15.4356 20.2589 15.2375 20.2589ZM7.94653 5.13444C7.74847 5.13444 7.57597 5.06097 7.42903 4.91402C7.28272 4.76708 7.20957 4.59458 7.20957 4.39652C7.20957 4.19847 7.28304 4.02597 7.42998 3.87902C7.57693 3.73272 7.74943 3.65957 7.94748 3.65957C8.1449 3.65957 8.31708 3.73304 8.46403 3.87998C8.61097 4.02693 8.68444 4.19943 8.68444 4.39748C8.68444 4.5949 8.61097 4.76708 8.46403 4.91402C8.31708 5.06097 8.14458 5.13444 7.94653 5.13444ZM19.688 14.6344C19.49 14.6344 19.3175 14.5609 19.1705 14.414C19.0242 14.267 18.9511 14.0945 18.9511 13.8965C18.9511 13.6991 19.0245 13.5269 19.1715 13.3799C19.3184 13.233 19.4909 13.1595 19.689 13.1595C19.8864 13.1595 20.0586 13.233 20.2055 13.3799C20.3525 13.5269 20.4259 13.6994 20.4259 13.8974C20.4259 14.0955 20.3525 14.268 20.2055 14.4149C20.0586 14.5612 19.8861 14.6344 19.688 14.6344ZM3.30628 10.8212C3.10822 10.8212 2.93572 10.7477 2.78878 10.6008C2.64183 10.4538 2.56836 10.2813 2.56836 10.0833C2.56836 9.88522 2.64183 9.71272 2.78878 9.56577C2.93572 9.41883 3.10822 9.34536 3.30628 9.34536C3.50433 9.34536 3.67683 9.41883 3.82378 9.56577C3.97072 9.71272 4.04419 9.88522 4.04419 10.0833C4.04419 10.2813 3.97072 10.4538 3.82378 10.6008C3.67683 10.7477 3.50433 10.8212 3.30628 10.8212ZM18.0665 7.51207C17.8685 7.51207 17.696 7.43859 17.549 7.29165C17.4021 7.1447 17.3286 6.97252 17.3286 6.77511C17.3286 6.57705 17.4021 6.40455 17.549 6.25761C17.696 6.11066 17.8685 6.03719 18.0665 6.03719C18.2646 6.03719 18.4371 6.11066 18.584 6.25761C18.731 6.40455 18.8044 6.57705 18.8044 6.77511C18.8044 6.97316 18.731 7.14566 18.584 7.29261C18.4371 7.43955 18.2646 7.51207 18.0665 7.51207ZM4.93353 17.9608C4.73547 17.9608 4.56297 17.8873 4.41603 17.7404C4.26908 17.5934 4.19561 17.4209 4.19561 17.2229C4.19561 17.0254 4.26908 16.8533 4.41603 16.7063C4.56297 16.5594 4.73547 16.4859 4.93353 16.4859C5.13158 16.4859 5.30408 16.5594 5.45103 16.7063C5.59797 16.8533 5.67144 17.0258 5.67144 17.2238C5.67144 17.4219 5.59797 17.5944 5.45103 17.7413C5.30408 17.8883 5.13158 17.9617 4.93353 17.9617M12.4344 17.2698C11.8977 17.2698 11.425 17.1059 11.0161 16.7782C10.6065 16.4498 10.3085 16.0313 10.1219 15.5228C10.0491 15.3579 9.98171 15.2033 9.91973 15.0589C9.85776 14.9146 9.7664 14.7823 9.64565 14.6622L8.42953 13.4403C8.0513 13.0621 7.74975 12.6302 7.52486 12.1446C7.29997 11.6591 7.18753 11.1451 7.18753 10.6027C7.18753 9.53191 7.56096 8.6183 8.30782 7.86186C9.05468 7.10669 9.96158 6.72911 11.0285 6.72911C11.7677 6.72911 12.4459 6.92397 13.0631 7.31369C13.6802 7.70341 14.1521 8.23113 14.4785 8.89686C14.5641 9.05658 14.559 9.21438 14.4632 9.37027C14.3674 9.52616 14.2236 9.60411 14.0319 9.60411C13.9316 9.60411 13.8444 9.57727 13.7703 9.52361C13.6962 9.4693 13.6397 9.39647 13.6007 9.30511C13.3515 8.80486 12.9976 8.41002 12.5389 8.12061C12.0795 7.83183 11.5725 7.68744 11.018 7.68744C10.2136 7.68744 9.53385 7.96472 8.97865 8.51927C8.42346 9.07383 8.14586 9.75265 8.14586 10.5557C8.14586 10.957 8.21805 11.3403 8.36244 11.7057C8.50683 12.0705 8.72341 12.397 9.01219 12.6851L10.3299 13.9607C10.5165 14.1472 10.6685 14.3632 10.7861 14.6085C10.903 14.8539 11.0033 15.1017 11.087 15.3522C11.1918 15.6422 11.37 15.8748 11.6217 16.0499C11.8735 16.2249 12.1546 16.3124 12.4651 16.3124C12.7283 16.3124 12.9736 16.246 13.2011 16.1131C13.4279 15.9802 13.601 15.793 13.7205 15.5515C13.7639 15.4812 13.8202 15.4308 13.8892 15.4001C13.9582 15.3694 14.0351 15.3541 14.1201 15.3541C14.2977 15.3541 14.436 15.4292 14.5351 15.5793C14.6347 15.7288 14.6398 15.8834 14.5504 16.0431C14.3313 16.4329 14.0332 16.7347 13.6563 16.9488C13.2787 17.1634 12.8714 17.2698 12.4344 17.2698ZM12.9356 13.4374C13.2007 13.4374 13.4272 13.3445 13.6151 13.1586C13.8023 12.9726 13.8959 12.7468 13.8959 12.481C13.8959 12.2159 13.8029 11.9894 13.617 11.8016C13.4311 11.6144 13.2052 11.5208 12.9394 11.5208C12.6743 11.5208 12.4478 11.6137 12.26 11.7996C12.0728 11.9856 11.9792 12.2114 11.9792 12.4772C11.9792 12.7423 12.0722 12.9688 12.2581 13.1566C12.444 13.3438 12.6698 13.4374 12.9356 13.4374Z" fill="#323232"/>
</svg>
