<svg width="23" height="23" viewBox="0 0 23 23" fill="none" xmlns="http://www.w3.org/2000/svg">
<path d="M11.5 2.63562C6.60528 2.63562 2.63562 6.60312 2.63562 11.5C2.63562 16.3968 6.60528 20.3643 11.5 20.3643C16.3961 20.3643 20.3643 16.3968 20.3643 11.5C20.3643 6.60312 16.3968 2.63562 11.5 2.63562ZM11.5 4.79187C12.8297 4.79187 14.0673 5.18575 15.111 5.85562L5.85562 15.111C5.16105 14.0347 4.7917 12.7809 4.79187 11.5C4.79187 7.80128 7.80128 4.79187 11.5 4.79187ZM11.5 18.2081C10.2191 18.2079 8.96537 17.8386 7.88896 17.1443L17.1436 7.88896C17.8382 8.96524 18.2075 10.219 18.2073 11.5C18.2073 15.1987 15.1987 18.2081 11.5 18.2081Z" fill="#323232"/>
</svg>
