<svg width="24" height="23" viewBox="0 0 24 23" fill="none" xmlns="http://www.w3.org/2000/svg">
<path d="M20.659 20C21.0736 20 21.4008 19.8687 21.6405 19.6054C21.8617 19.3624 21.981 19.0435 21.9977 18.6489L22 18.5488V4.45158C22 4.00523 21.8803 3.65152 21.6405 3.39121C21.4194 3.15078 21.1237 3.021 20.7532 3.00263L20.6586 3H10.4722C10.0629 3 9.73879 3.13015 9.49863 3.39084C9.27748 3.63089 9.15854 3.95084 9.14144 4.34993L9.13954 4.45121V6.92302H4.33263C3.9553 6.92302 3.64941 7.03554 3.41647 7.25947L3.35947 7.31798C3.13832 7.56066 3.019 7.87949 3.00228 8.27408L3 8.37422V18.5488C3 18.9899 3.1197 19.3421 3.35947 19.6054C3.58063 19.8481 3.87436 19.979 4.23992 19.9977L4.33301 20H20.659ZM9.13992 18.5488C9.13992 18.6062 9.14182 18.6621 9.146 18.7165H4.76164C4.60547 18.7165 4.48957 18.6789 4.41395 18.6047C4.34935 18.5409 4.31249 18.4456 4.30338 18.3196L4.30071 18.254V8.66942C4.30071 8.51001 4.33871 8.39298 4.41395 8.31834C4.47855 8.25457 4.57317 8.21819 4.69705 8.20919L4.76164 8.20694L9.13992 8.20656V18.5488ZM10.9004 4.28392H20.2308C20.3926 4.28392 20.5108 4.32105 20.5864 4.39532C20.651 4.45908 20.6879 4.55435 20.697 4.68038L20.6993 4.7464V18.254C20.6993 18.4134 20.6617 18.53 20.5864 18.6047C20.5218 18.6684 20.4253 18.7048 20.2976 18.7138L20.2308 18.7165L18.3813 18.7161V16.3643C18.3813 16.05 18.3152 15.8114 18.1837 15.649L18.1427 15.6025C17.9983 15.4551 17.7836 15.3748 17.499 15.3613L17.4116 15.3594H13.7279C13.3943 15.3594 13.1492 15.4405 12.993 15.6025C12.8509 15.7499 12.7734 15.9731 12.7605 16.272L12.7586 16.3639L12.759 18.7161H10.9008C10.7446 18.7161 10.6287 18.6789 10.5535 18.6047C10.4889 18.5409 10.4517 18.4456 10.4425 18.3196L10.4403 18.254V4.7464C10.4403 4.58661 10.4783 4.46996 10.5535 4.39532C10.6287 4.32105 10.7442 4.28392 10.9004 4.28392ZM14.0753 16.4041H17.0643C17.2208 16.4041 17.3063 16.4742 17.3208 16.6149L17.3227 16.6591L17.3231 18.7161H13.8172V16.6591C13.8172 16.5046 13.8883 16.4202 14.0304 16.4059L14.0753 16.4041ZM6.06996 15.6145C5.90238 15.6145 5.81156 15.6903 5.7975 15.8422L5.7956 15.8857V17.1295C5.7956 17.2953 5.87236 17.3849 6.02626 17.3988L6.06996 17.4007H7.37067C7.53369 17.4007 7.62147 17.3245 7.63553 17.173L7.63705 17.1295V15.8857C7.63705 15.7199 7.56257 15.6303 7.41285 15.6164L7.37067 15.6145H6.06996ZM6.06996 12.5688C5.90238 12.5688 5.81156 12.6446 5.7975 12.7965L5.7956 12.8396V14.0834C5.7956 14.2492 5.87236 14.3388 6.02626 14.3527L6.06996 14.3546H7.37067C7.53369 14.3546 7.62147 14.2788 7.63553 14.1269L7.63705 14.0834V12.8396C7.63705 12.6738 7.56257 12.5842 7.41285 12.5703L7.37067 12.5684L6.06996 12.5688ZM16.6767 11.9225C16.4726 11.9225 16.3628 12.0156 16.3472 12.2012L16.3453 12.2496V13.7567C16.3453 13.9577 16.4396 14.0661 16.6277 14.0815L16.6767 14.0834H18.2518C18.4456 14.0834 18.55 13.9908 18.5649 13.8051L18.5668 13.7563V12.2496C18.5668 12.0486 18.4775 11.9402 18.2985 11.9244L18.2518 11.9225H16.6767ZM12.8958 11.9225C12.6921 11.9225 12.5826 12.0156 12.5667 12.2012L12.5648 12.2496V13.7567C12.5648 13.9577 12.659 14.0661 12.8471 14.0815L12.8961 14.0834H14.4632C14.662 14.0834 14.7691 13.9908 14.7843 13.8051L14.7862 13.7563V12.2496C14.7862 12.0486 14.6946 11.9402 14.5111 11.9244L14.4632 11.9225H12.8958ZM6.06996 9.52236C5.90238 9.52236 5.81156 9.5985 5.7975 9.75041L5.7956 9.79355V11.0377C5.7956 11.2031 5.87236 11.2928 6.02626 11.3066L6.06996 11.3085H7.37067C7.53369 11.3085 7.62147 11.2328 7.63553 11.0808L7.63705 11.0377V9.79355C7.63705 9.62814 7.56257 9.53849 7.41285 9.52424L7.37067 9.52236H6.06996ZM16.6767 8.76469C16.4726 8.76469 16.3628 8.85771 16.3472 9.04375L16.3453 9.09176V10.5989C16.3453 10.8003 16.4396 10.9087 16.6277 10.9241L16.6767 10.9259H18.2518C18.4456 10.9259 18.55 10.8329 18.5649 10.6472L18.5668 10.5989V9.09176C18.5668 8.89072 18.4775 8.78232 18.2985 8.76694L18.2518 8.76506L16.6767 8.76469ZM12.8958 8.76469C12.6921 8.76469 12.5826 8.85771 12.5667 9.04375L12.5648 9.09176V10.5989C12.5648 10.8003 12.659 10.9087 12.8471 10.9241L12.8961 10.9259H14.4632C14.662 10.9259 14.7691 10.8329 14.7843 10.6472L14.7862 10.5989V9.09176C14.7862 8.89072 14.6946 8.78232 14.5111 8.76694L14.4632 8.76506L12.8958 8.76469ZM16.6767 5.60759C16.4726 5.60759 16.3628 5.70024 16.3472 5.88591L16.3453 5.93467V7.44139C16.3453 7.64243 16.4396 7.75083 16.6277 7.76621L16.6767 7.76846H18.2518C18.4456 7.76846 18.55 7.67544 18.5649 7.48977L18.5668 7.44139V5.93429C18.5668 5.73325 18.4775 5.62485 18.2985 5.60947L18.2518 5.60759H16.6767ZM12.8958 5.60759C12.6921 5.60759 12.5826 5.70024 12.5667 5.88591L12.5648 5.93467V7.44139C12.5648 7.64243 12.659 7.75083 12.8471 7.76621L12.8961 7.76846H14.4632C14.662 7.76846 14.7691 7.67544 14.7843 7.48977L14.7862 7.44139V5.93429C14.7862 5.73325 14.6946 5.62485 14.5111 5.60947L14.4632 5.60759H12.8958Z" fill="black"/>
</svg>
