<svg width="24" height="23" viewBox="0 0 24 23" fill="none" xmlns="http://www.w3.org/2000/svg">
<path d="M9.43414 9.03777C9.43414 8.35461 9.70553 7.69943 10.1886 7.21637C10.6717 6.7333 11.3268 6.46191 12.01 6.46191C12.6932 6.46191 13.3483 6.7333 13.8314 7.21637C14.3145 7.69943 14.5859 8.35461 14.5859 9.03777M12.01 11.6136V14.1895M11.1514 14.1895H12.8686" stroke="#323232" stroke-width="1.91667" stroke-linecap="round" stroke-linejoin="round"/>
<path d="M12.0103 17.6241V20.2M18.0206 9.03796C18.0246 8.16153 17.8369 7.29483 17.4707 6.4986C17.1044 5.70237 16.5684 4.99587 15.9003 4.42863C15.2322 3.86139 14.4481 3.44712 13.603 3.21487C12.7579 2.98262 11.8723 2.938 11.0081 3.08415C10.1439 3.23029 9.3222 3.56366 8.60047 4.06089C7.87874 4.55812 7.27449 5.20718 6.83006 5.96257C6.38563 6.71797 6.11179 7.56141 6.02772 8.43381C5.94365 9.3062 6.05139 10.1864 6.34338 11.0128C7.202 13.6745 8.57579 17.6241 8.57579 17.6241H15.4447C15.4447 17.6241 16.8185 13.6745 17.6772 11.0128C17.9347 10.3259 18.0206 9.72485 18.0206 9.03796Z" stroke="#323232" stroke-width="1.91667" stroke-linecap="round" stroke-linejoin="round"/>
</svg>
