<svg width="23" height="24" viewBox="0 0 23 24" fill="none" xmlns="http://www.w3.org/2000/svg">
<path d="M13.9639 14.8789L14.7862 16.647C14.7862 16.647 18.4825 17.4319 18.4825 19.2987C18.4825 20.6251 16.838 20.6251 16.838 20.6251H12.4584L10.3021 19.4272" stroke="#323232" stroke-width="1.4375" stroke-linecap="round" stroke-linejoin="round"/>
<path d="M9.03612 14.8789L8.21483 16.647C8.21483 16.647 4.51758 17.4319 4.51758 19.2987C4.51758 20.6251 6.16208 20.6251 6.16208 20.6251H8.14583L10.3021 19.4272L12.9375 17.7501" stroke="#323232" stroke-width="1.4375" stroke-linecap="round" stroke-linejoin="round"/>
<path d="M2.875 15.7624C2.875 15.7624 4.92871 15.3206 6.16112 14.8788C7.39258 8.68992 11.0879 9.13171 11.5 9.13171C11.9111 9.13171 15.6074 8.68992 16.8389 14.8788C18.0713 15.3197 20.125 15.7624 20.125 15.7624M11.5 7.20833C12.0083 7.20833 12.4958 7.0064 12.8553 6.64695C13.2147 6.28751 13.4167 5.8 13.4167 5.29167C13.4167 4.78334 13.2147 4.29582 12.8553 3.93638C12.4958 3.57693 12.0083 3.375 11.5 3.375C10.9917 3.375 10.5042 3.57693 10.1447 3.93638C9.78527 4.29582 9.58333 4.78334 9.58333 5.29167C9.58333 5.8 9.78527 6.28751 10.1447 6.64695C10.5042 7.0064 10.9917 7.20833 11.5 7.20833Z" stroke="#323232" stroke-width="1.4375" stroke-linecap="round" stroke-linejoin="round"/>
</svg>
