<svg width="24" height="24" viewBox="0 0 24 24" fill="none" xmlns="http://www.w3.org/2000/svg">
<g id="building 1" clip-path="url(#clip0_1231_1370)">
<path id="Vector" d="M2.85197 0.69552C2.88925 0.695282 2.92653 0.695043 2.96494 0.694797C3.09001 0.694061 3.21509 0.693661 3.34016 0.693265C3.42979 0.692818 3.51942 0.692354 3.60905 0.691875C3.90361 0.690404 4.19816 0.689454 4.49272 0.688584C4.56795 0.688352 4.56795 0.688352 4.64469 0.688116C5.11792 0.686673 5.59115 0.685421 6.06437 0.684628C6.66906 0.683601 7.27373 0.681635 7.87842 0.678373C8.3039 0.676155 8.72938 0.675021 9.15488 0.674681C9.40882 0.674449 9.66275 0.673747 9.91669 0.67188C10.1559 0.670146 10.395 0.66976 10.6342 0.670381C10.7216 0.670378 10.8091 0.6699 10.8965 0.668892C11.4389 0.662981 11.8975 0.68777 12.3273 1.06602C12.748 1.50049 12.7572 2.0526 12.7554 2.62034C12.7554 2.6757 12.7554 2.73107 12.7554 2.78812C12.7554 2.93908 12.7551 3.09005 12.7548 3.24101C12.7545 3.3991 12.7545 3.55719 12.7544 3.71528C12.7543 4.01426 12.7539 4.31323 12.7534 4.61221C12.7529 4.95275 12.7526 5.29329 12.7524 5.63383C12.7519 6.33399 12.7511 7.03414 12.75 7.7343C12.8213 7.73404 12.8213 7.73404 12.8939 7.73378C14.0496 7.72961 15.2053 7.72653 16.361 7.72458C16.9199 7.72362 17.4787 7.7223 18.0376 7.72015C18.5248 7.71828 19.0119 7.71708 19.499 7.71666C19.757 7.71641 20.0149 7.71584 20.2728 7.71447C20.5156 7.7132 20.7585 7.71281 21.0013 7.71309C21.0904 7.71304 21.1794 7.71267 21.2684 7.71195C21.3903 7.71101 21.512 7.71124 21.6338 7.71175C21.6689 7.71121 21.7039 7.71066 21.74 7.7101C21.9963 7.71299 22.1926 7.77859 22.4063 7.9218C22.4831 8.00745 22.4831 8.00745 22.5271 8.09491C22.606 8.23769 22.6893 8.36437 22.7904 8.49252C24.0379 10.1208 24.1394 11.876 24.1443 13.8621C24.1444 13.9105 24.1444 13.9105 24.1446 13.9599C24.146 14.7632 24.1347 15.5663 24.1186 16.3695C24.1082 16.8893 24.102 17.4091 24.0995 17.9291C24.0992 17.9809 24.0992 17.9809 24.0989 18.0336C24.0983 18.1724 24.0976 18.3112 24.0969 18.4499C24.0941 19.0158 24.0883 19.5817 24.082 20.1476C24.0805 20.2756 24.0793 20.4037 24.0781 20.5317C24.0747 20.8946 24.0697 21.2575 24.062 21.6204C24.0599 21.73 24.0584 21.8396 24.0574 21.9492C24.056 22.0988 24.0526 22.2483 24.0486 22.3979C24.0487 22.4411 24.0487 22.4843 24.0487 22.5288C24.0379 22.8215 23.9542 22.9698 23.7511 23.1801C23.5842 23.3272 23.4176 23.3036 23.206 23.3035C23.1669 23.3036 23.1279 23.3038 23.0876 23.3039C22.9552 23.3044 22.8227 23.3045 22.6903 23.3046C22.595 23.3049 22.4997 23.3052 22.4043 23.3055C22.1412 23.3062 21.8782 23.3067 21.6151 23.307C21.3897 23.3074 21.1643 23.308 20.939 23.3085C20.1639 23.3104 19.3888 23.3117 18.6138 23.3128C18.5171 23.3129 18.4204 23.3131 18.3238 23.3132C17.0945 23.315 15.8653 23.3166 14.636 23.3176C14.3234 23.3178 14.0109 23.3181 13.6983 23.3184C13.6465 23.3184 13.6465 23.3184 13.5936 23.3184C12.4737 23.3194 11.3539 23.3216 10.234 23.3244C9.08301 23.3273 7.93203 23.3291 6.78105 23.3295C6.61851 23.3296 6.45597 23.3297 6.29343 23.3298C6.26144 23.3298 6.22945 23.3298 6.1965 23.3298C5.68147 23.3301 5.16646 23.3315 4.65144 23.3333C4.1338 23.335 3.61617 23.3356 3.09853 23.335C2.81804 23.3347 2.53757 23.3349 2.25708 23.3365C2.00036 23.338 1.74369 23.338 1.48697 23.3368C1.39403 23.3367 1.3011 23.337 1.20817 23.338C0.426709 23.3459 0.42671 23.3459 0.179622 23.1361C0.0465848 22.9873 -0.00538006 22.8847 -0.00952484 22.6858C-0.0104565 22.6459 -0.0113882 22.6061 -0.0123481 22.5651C-0.0131388 22.5211 -0.0139296 22.4771 -0.0147442 22.4317C-0.016243 22.3618 -0.0162431 22.3618 -0.0177721 22.2905C-0.0210503 22.1333 -0.0239652 21.976 -0.0268535 21.8188C-0.0290649 21.7063 -0.0312774 21.5939 -0.0334911 21.4814C-0.052592 20.4789 -0.0642498 19.4762 -0.0733012 18.4735C-0.0748759 18.2991 -0.0765052 18.1247 -0.0781688 17.9503C-0.0784989 17.9156 -0.078829 17.8809 -0.0791691 17.8452C-0.0845949 17.2899 -0.0949787 16.7349 -0.107377 16.1798C-0.120083 15.6059 -0.127277 15.0321 -0.129768 14.4581C-0.131303 14.1373 -0.135173 13.8171 -0.145119 13.4964C-0.193641 11.8669 0.045072 10.7267 0.822872 9.32305C1.31751 8.43028 1.55938 7.73939 1.50054 6.72088C1.49222 6.54708 1.49261 6.37322 1.49181 6.19926C1.48918 5.87441 1.47991 5.55017 1.46759 5.22556C1.44977 4.74644 1.44345 4.26712 1.43624 3.78776C1.43515 3.71629 1.43404 3.64482 1.43294 3.57336C1.43214 3.52102 1.43214 3.52102 1.43132 3.46762C1.42799 3.26344 1.42287 3.0594 1.416 2.8553C1.41283 2.75984 1.41006 2.66438 1.40742 2.56891C1.40411 2.45351 1.40006 2.33813 1.39509 2.22279C1.38457 1.80987 1.46725 1.50596 1.6934 1.16008C2.04564 0.823154 2.37338 0.69628 2.85197 0.69552ZM2.85942 2.15617C2.85942 3.99696 2.85942 5.83774 2.85942 7.7343C3.30801 7.7343 3.7566 7.7343 4.21879 7.7343C4.21947 7.62359 4.22016 7.51289 4.22086 7.39883C4.22322 7.03267 4.22635 6.66653 4.22984 6.30039C4.23193 6.07844 4.23377 5.85649 4.23503 5.63454C4.23625 5.42026 4.23814 5.20599 4.2405 4.99172C4.24128 4.91005 4.24182 4.82838 4.24212 4.74672C4.24257 4.63214 4.24388 4.5176 4.2454 4.40304C4.24533 4.36942 4.24526 4.33581 4.24519 4.30117C4.24926 4.08297 4.28436 3.93165 4.40629 3.74992C4.64092 3.53617 4.84825 3.53549 5.14961 3.53816C5.21826 3.53767 5.21826 3.53767 5.28829 3.53717C5.43913 3.53634 5.58993 3.53689 5.74076 3.53752C5.84583 3.5374 5.9509 3.53721 6.05597 3.53698C6.276 3.5367 6.49602 3.5371 6.71605 3.53798C6.99789 3.53905 7.27969 3.53843 7.56153 3.53731C7.77844 3.53663 7.99535 3.53685 8.21226 3.53733C8.31617 3.53746 8.42008 3.53731 8.52399 3.53687C8.66929 3.53639 8.81455 3.53712 8.95985 3.53816C9.02407 3.53759 9.02407 3.53759 9.0896 3.53701C9.34729 3.54043 9.50275 3.57221 9.70317 3.74992C9.85827 3.93924 9.86452 4.11918 9.86406 4.35515C9.86477 4.41006 9.86477 4.41006 9.86551 4.46608C9.86692 4.58656 9.86735 4.70702 9.86778 4.8275C9.86857 4.91124 9.86942 4.99498 9.87033 5.07872C9.87255 5.29873 9.87395 5.51874 9.87518 5.73875C9.87657 5.96342 9.87875 6.18808 9.88087 6.41274C9.8849 6.85325 9.88799 7.29377 9.89067 7.7343C10.3393 7.7343 10.7879 7.7343 11.25 7.7343C11.25 5.89352 11.25 4.05274 11.25 2.15617C8.48113 2.15617 5.71223 2.15617 2.85942 2.15617ZM5.67192 4.96867C5.67192 5.88133 5.67192 6.79399 5.67192 7.7343C6.58457 7.7343 7.49723 7.7343 8.43754 7.7343C8.43754 6.82164 8.43754 5.90899 8.43754 4.96867C7.52488 4.96867 6.61223 4.96867 5.67192 4.96867ZM2.57817 9.18742C2.50388 9.32801 2.42969 9.46865 2.35551 9.6093C2.33472 9.64863 2.31394 9.68797 2.29252 9.7285C2.23118 9.84486 2.17018 9.96139 2.10942 10.078C2.09053 10.1142 2.07165 10.1504 2.05219 10.1877C1.95616 10.3584 1.95616 10.3584 1.92192 10.5468C8.57348 10.5468 15.225 10.5468 22.0782 10.5468C22.0138 10.3536 21.9539 10.1928 21.8641 10.0141C21.8414 9.96874 21.8186 9.92333 21.7952 9.87654C21.7716 9.82992 21.748 9.78331 21.7237 9.73528C21.6999 9.68775 21.6761 9.64023 21.6516 9.59126C21.5566 9.37593 21.5566 9.37593 21.4219 9.18742C21.322 9.18283 21.2219 9.18162 21.1219 9.18166C21.09 9.1816 21.0581 9.18155 21.0253 9.18149C20.9172 9.18137 20.809 9.18158 20.7009 9.18179C20.6231 9.18177 20.5454 9.18173 20.4676 9.18167C20.2529 9.18156 20.0381 9.18175 19.8234 9.18198C19.5922 9.18219 19.361 9.18212 19.1298 9.18208C18.7289 9.18206 18.3281 9.1822 17.9272 9.18247C17.3476 9.18285 16.7679 9.18297 16.1883 9.18303C15.248 9.18313 14.3077 9.18344 13.3675 9.18389C12.4538 9.18432 11.5402 9.18465 10.6265 9.18485C10.5702 9.18486 10.514 9.18487 10.456 9.18489C10.1737 9.18495 9.89139 9.18501 9.60909 9.18507C7.26545 9.18555 4.92181 9.18638 2.57817 9.18742ZM1.45317 11.9999C1.45317 15.2484 1.45317 18.4968 1.45317 21.8437C3.99004 21.8437 6.52692 21.8437 9.14067 21.8437C9.15613 20.6526 9.1716 19.4615 9.18754 18.2343C9.34905 17.8574 9.34905 17.8574 9.56254 17.7187C9.68921 17.6764 9.76256 17.6658 9.89258 17.6652C9.93102 17.6649 9.96946 17.6647 10.0091 17.6644C10.0511 17.6644 10.0931 17.6643 10.1364 17.6642C10.1807 17.664 10.2251 17.6638 10.2708 17.6635C10.4178 17.6629 10.5649 17.6625 10.7119 17.6623C10.814 17.662 10.9161 17.6617 11.0182 17.6615C11.2325 17.661 11.4467 17.6607 11.661 17.6605C11.9354 17.6603 12.2098 17.6592 12.4843 17.6578C12.6952 17.6569 12.9062 17.6567 13.1172 17.6566C13.2184 17.6565 13.3196 17.6561 13.4207 17.6555C13.5623 17.6547 13.7039 17.6548 13.8455 17.6551C13.8872 17.6547 13.929 17.6542 13.972 17.6538C14.2094 17.6554 14.3725 17.6806 14.5782 17.8124C15.5053 18.7896 14.8419 20.4968 14.8594 21.8437C17.3963 21.8437 19.9332 21.8437 22.5469 21.8437C22.5469 18.5952 22.5469 15.3468 22.5469 11.9999C15.586 11.9999 8.62504 11.9999 1.45317 11.9999ZM10.5938 19.078C10.5938 19.9907 10.5938 20.9034 10.5938 21.8437C11.5219 21.8437 12.45 21.8437 13.4063 21.8437C13.4063 20.931 13.4063 20.0184 13.4063 19.078C12.4782 19.078 11.55 19.078 10.5938 19.078Z" fill="black"/>
<path id="Vector_2" d="M18.6678 17.6681C18.888 17.793 18.9803 17.9027 19.0782 18.1407C19.0983 18.2795 19.099 18.4165 19.0985 18.5566C19.0987 18.596 19.099 18.6354 19.0992 18.676C19.0995 18.759 19.0995 18.842 19.0991 18.925C19.0987 19.0513 19.1 19.1776 19.1015 19.3039C19.1016 19.3849 19.1016 19.4658 19.1014 19.5468C19.1022 19.6029 19.1022 19.6029 19.103 19.6602C19.0998 19.9249 19.0409 20.0782 18.8907 20.297C18.6954 20.4745 18.5065 20.5015 18.2507 20.4973C18.0704 20.4763 17.9504 20.4125 17.8126 20.297C17.634 20.0421 17.597 19.8558 17.6001 19.5484C17.6 19.5091 17.5998 19.4698 17.5996 19.4292C17.5995 19.3465 17.5998 19.2638 17.6006 19.1811C17.6016 19.0551 17.6006 18.9293 17.5994 18.8034C17.5995 18.7226 17.5998 18.6419 17.6001 18.5611C17.5998 18.5239 17.5994 18.4866 17.599 18.4482C17.6034 18.1844 17.6606 18.0296 17.8126 17.8126C18.0639 17.6016 18.3596 17.5422 18.6678 17.6681Z" fill="black"/>
<path id="Vector_3" d="M6.03813 17.6982C6.20407 17.8125 6.30044 17.9548 6.37505 18.1406C6.40023 18.2814 6.4014 18.4183 6.39995 18.561C6.40013 18.6004 6.40031 18.6397 6.40049 18.6802C6.40062 18.763 6.40028 18.8457 6.39949 18.9284C6.39849 19.0543 6.39948 19.1802 6.40068 19.3061C6.40056 19.3868 6.40032 19.4676 6.39995 19.5483C6.40033 19.5856 6.40071 19.6229 6.4011 19.6613C6.39671 19.9251 6.33954 20.0799 6.18755 20.2969C5.9865 20.4656 5.79883 20.5127 5.53789 20.4994C5.32274 20.4672 5.19366 20.3841 5.0479 20.2266C4.84932 19.9324 4.90779 19.5406 4.90551 19.1977C4.90474 19.1125 4.90346 19.0274 4.90167 18.9422C4.89908 18.8189 4.89807 18.6956 4.89739 18.5722C4.89632 18.5346 4.89526 18.497 4.89417 18.4582C4.89521 18.1758 4.97565 17.9836 5.1563 17.7656C5.41842 17.575 5.74762 17.5536 6.03813 17.6982Z" fill="black"/>
<path id="Vector_4" d="M18.6094 13.4061C18.7971 13.5 18.9215 13.6021 19.0313 13.7811C19.0917 13.9622 19.0876 14.135 19.0893 14.3239C19.0897 14.3635 19.0901 14.4031 19.0905 14.4439C19.0911 14.5277 19.0916 14.6116 19.092 14.6954C19.0928 14.823 19.0949 14.9505 19.0969 15.0781C19.0974 15.1597 19.0978 15.2413 19.0981 15.3229C19.0989 15.3607 19.0998 15.3986 19.1006 15.4376C19.0996 15.7044 19.0428 15.8578 18.8907 16.078C18.7274 16.2123 18.5535 16.261 18.3457 16.286C18.0964 16.2537 17.9366 16.1713 17.7745 15.9813C17.614 15.7659 17.6169 15.6122 17.6155 15.3507C17.6153 15.3109 17.615 15.2712 17.6147 15.2302C17.6143 15.1459 17.614 15.0615 17.6138 14.9772C17.6133 14.8487 17.6119 14.7202 17.6104 14.5918C17.6101 14.5098 17.6098 14.4278 17.6097 14.3458C17.6091 14.3076 17.6085 14.2694 17.6079 14.23C17.6088 13.9985 17.638 13.8413 17.7657 13.6405C18.0384 13.3944 18.2485 13.3689 18.6094 13.4061Z" fill="black"/>
<path id="Vector_5" d="M5.90627 13.4061C6.09399 13.5 6.21839 13.6021 6.32814 13.7811C6.38867 13.9627 6.38448 14.1362 6.38619 14.3255C6.38675 14.3851 6.38675 14.3851 6.38733 14.4459C6.38798 14.5299 6.38848 14.6139 6.38885 14.698C6.38966 14.8261 6.39172 14.9541 6.39378 15.0822C6.39426 15.164 6.39466 15.2457 6.39498 15.3275C6.3958 15.3656 6.39662 15.4037 6.39746 15.4429C6.39651 15.6929 6.35204 15.8321 6.18752 16.0311C6.01524 16.1866 5.89652 16.2573 5.6631 16.2802C5.449 16.2626 5.27695 16.2159 5.10939 16.078C4.93238 15.8207 4.89429 15.6366 4.89864 15.3278C4.89857 15.2884 4.8985 15.2489 4.89843 15.2083C4.89851 15.1254 4.89905 15.0425 4.90002 14.9595C4.90138 14.8331 4.90099 14.7068 4.90038 14.5803C4.90067 14.4994 4.90106 14.4185 4.90157 14.3376C4.90143 14.3001 4.90129 14.2626 4.90115 14.2239C4.90497 13.9956 4.93755 13.8387 5.06252 13.6405C5.33526 13.3944 5.5453 13.3689 5.90627 13.4061Z" fill="black"/>
<path id="Vector_6" d="M10.125 13.4063C10.3567 13.5158 10.4721 13.6518 10.5937 13.875C10.6201 14.0213 10.6201 14.1646 10.6186 14.313C10.6188 14.3546 10.619 14.3962 10.6192 14.439C10.6193 14.5267 10.619 14.6143 10.6182 14.7019C10.6172 14.8355 10.6182 14.9691 10.6194 15.1027C10.6192 15.1881 10.619 15.2735 10.6186 15.3589C10.619 15.3986 10.6194 15.4383 10.6198 15.4792C10.6158 15.7322 10.5736 15.8769 10.4062 16.0781C10.2391 16.207 10.0695 16.261 9.86131 16.2861C9.61522 16.2542 9.45339 16.1722 9.29002 15.9873C9.12662 15.7585 9.13218 15.5574 9.12944 15.282C9.12906 15.2457 9.12868 15.2094 9.12829 15.172C9.12765 15.0952 9.12714 15.0185 9.12677 14.9417C9.12623 14.8637 9.12528 14.7857 9.12389 14.7077C9.12188 14.5944 9.12113 14.4812 9.12065 14.3679C9.11983 14.3335 9.11901 14.2991 9.11816 14.2637C9.11923 14.0056 9.18638 13.8101 9.32811 13.5938C9.56054 13.367 9.81662 13.3612 10.125 13.4063Z" fill="black"/>
<path id="Vector_7" d="M14.3907 13.4064C14.6268 13.5094 14.7133 13.6426 14.8203 13.8651C14.8831 14.0317 14.8854 14.1867 14.8827 14.3631C14.8827 14.3992 14.8828 14.4354 14.8829 14.4726C14.8828 14.5484 14.8823 14.6243 14.8813 14.7001C14.8799 14.8154 14.8803 14.9306 14.8809 15.046C14.8806 15.1201 14.8803 15.1942 14.8798 15.2684C14.8799 15.3024 14.88 15.3364 14.8802 15.3715C14.8754 15.635 14.8239 15.8625 14.6485 16.0661C14.4158 16.2419 14.2605 16.2896 13.9688 16.2657C13.6906 16.1749 13.549 16.0573 13.4063 15.797C13.3798 15.6507 13.38 15.5074 13.3814 15.359C13.3812 15.3174 13.381 15.2758 13.3809 15.233C13.3807 15.1453 13.3811 15.0577 13.3819 14.9701C13.3829 14.8364 13.3819 14.7029 13.3807 14.5693C13.3808 14.4839 13.381 14.3985 13.3814 14.3131C13.381 14.2734 13.3806 14.2337 13.3802 14.1928C13.3842 13.9394 13.4266 13.7954 13.5938 13.5939C13.8341 13.3711 14.0783 13.3617 14.3907 13.4064Z" fill="black"/>
</g>
<defs>
<clipPath id="clip0_1231_1370">
<rect width="24" height="24" fill="white"/>
</clipPath>
</defs>
</svg>
