<svg width="23" height="24" viewBox="0 0 23 24" fill="none" xmlns="http://www.w3.org/2000/svg">
<path d="M4.31246 11.9997C5.63564 11.9997 6.70829 10.927 6.70829 9.60384C6.70829 8.28066 5.63564 7.20801 4.31246 7.20801C2.98928 7.20801 1.91663 8.28066 1.91663 9.60384C1.91663 10.927 2.98928 11.9997 4.31246 11.9997Z" fill="#323232"/>
<path d="M8.62496 8.16667C9.94814 8.16667 11.0208 7.09402 11.0208 5.77083C11.0208 4.44765 9.94814 3.375 8.62496 3.375C7.30178 3.375 6.22913 4.44765 6.22913 5.77083C6.22913 7.09402 7.30178 8.16667 8.62496 8.16667Z" fill="#323232"/>
<path d="M14.375 8.16667C15.6981 8.16667 16.7708 7.09402 16.7708 5.77083C16.7708 4.44765 15.6981 3.375 14.375 3.375C13.0518 3.375 11.9791 4.44765 11.9791 5.77083C11.9791 7.09402 13.0518 8.16667 14.375 8.16667Z" fill="#323232"/>
<path d="M18.6875 11.9997C20.0106 11.9997 21.0833 10.927 21.0833 9.60384C21.0833 8.28066 20.0106 7.20801 18.6875 7.20801C17.3643 7.20801 16.2916 8.28066 16.2916 9.60384C16.2916 10.927 17.3643 11.9997 18.6875 11.9997Z" fill="#323232"/>
<path d="M16.6175 14.7408C15.7838 13.7633 15.0842 12.9296 14.2409 11.9521C13.8 11.4346 13.2346 10.9171 12.5638 10.6871C12.4584 10.6488 12.353 10.62 12.2475 10.6008C12.008 10.5625 11.7492 10.5625 11.5 10.5625C11.2509 10.5625 10.9921 10.5625 10.743 10.6104C10.6375 10.6296 10.5321 10.6583 10.4267 10.6967C9.75587 10.9267 9.20004 11.4442 8.74962 11.9617C7.91587 12.9392 7.21629 13.7729 6.37295 14.7504C5.11754 16.0058 3.57462 17.3954 3.86212 19.3408C4.14004 20.3183 4.83962 21.2862 6.09504 21.5642C6.79462 21.7079 9.02753 21.1425 11.4042 21.1425H11.5767C13.9534 21.1425 16.1863 21.6983 16.8859 21.5642C18.1413 21.2862 18.8409 20.3087 19.1188 19.3408C19.4159 17.3858 17.873 15.9962 16.6175 14.7408Z" fill="#323232"/>
</svg>
