<svg width="23" height="23" viewBox="0 0 23 23" fill="none" xmlns="http://www.w3.org/2000/svg">
<g id="ph:phone-light">
<path id="phone" d="M19.9085 14.402L15.6643 12.5C15.472 12.4176 15.2621 12.3845 15.0538 12.4037C14.8455 12.4228 14.6452 12.4936 14.4711 12.6097C14.4535 12.621 14.4367 12.6336 14.4208 12.6474L12.2026 14.5341C12.1796 14.5467 12.154 14.5537 12.1278 14.5546C12.1016 14.5555 12.0755 14.5504 12.0517 14.5395C10.6258 13.8513 9.1488 12.3832 8.4579 10.9772C8.4464 10.9537 8.44041 10.9279 8.44041 10.9017C8.44041 10.8756 8.4464 10.8497 8.4579 10.8263L10.3509 8.58016C10.3645 8.56354 10.3771 8.54614 10.3886 8.52805C10.5031 8.35331 10.5722 8.15281 10.5898 7.94467C10.6074 7.73652 10.5728 7.52728 10.4893 7.33582L8.60075 3.09879C8.49351 2.84868 8.30803 2.64009 8.07217 2.50434C7.8363 2.36859 7.56277 2.31299 7.29263 2.3459C6.11857 2.50025 5.04089 3.07682 4.26096 3.96785C3.48103 4.85889 3.05224 6.00343 3.0547 7.18758C3.0547 14.2223 8.77774 19.9454 15.8125 19.9454C16.9966 19.9477 18.141 19.5188 19.032 18.7389C19.923 17.959 20.4997 16.8814 20.6542 15.7075C20.687 15.4386 20.6322 15.1663 20.4978 14.9311C20.3635 14.6959 20.1568 14.5103 19.9085 14.402ZM15.8125 18.8673C9.37251 18.8673 4.13282 13.6276 4.13282 7.18758C4.12982 6.26572 4.46255 5.3743 5.06886 4.67987C5.67516 3.98544 6.51355 3.53551 7.42739 3.41414H7.44806C7.48426 3.41482 7.51942 3.42642 7.54892 3.44742C7.57842 3.46842 7.60088 3.49785 7.61337 3.53184L9.50907 7.76438C9.51988 7.78791 9.52548 7.8135 9.52548 7.8394C9.52548 7.86529 9.51988 7.89089 9.50907 7.91442L7.61247 10.1659C7.59832 10.182 7.58541 10.1991 7.57384 10.2171C7.45516 10.3983 7.38527 10.607 7.37095 10.8232C7.35663 11.0393 7.39835 11.2554 7.49208 11.4507C8.28899 13.0822 9.93313 14.7138 11.5827 15.5107C11.7791 15.6039 11.9963 15.6446 12.2131 15.6289C12.4299 15.6131 12.6389 15.5415 12.8198 15.4209C12.8369 15.4092 12.854 15.3966 12.8701 15.3831L15.0875 13.4964C15.1094 13.4846 15.1336 13.4777 15.1584 13.4762C15.1832 13.4746 15.208 13.4785 15.2312 13.4874L19.4763 15.3894C19.511 15.4042 19.5402 15.4295 19.5597 15.4617C19.5792 15.494 19.5881 15.5315 19.585 15.5691C19.4643 16.4834 19.0148 17.3224 18.3205 17.9294C17.6262 18.5363 16.7347 18.8697 15.8125 18.8673Z" fill="white"/>
</g>
</svg>
