<svg width="23" height="23" viewBox="0 0 23 23" fill="none" xmlns="http://www.w3.org/2000/svg">
<path fill-rule="evenodd" clip-rule="evenodd" d="M9.45392 19.75H13.7127C16.7037 19.75 18.1997 19.75 19.274 19.0457C19.7375 18.7419 20.1367 18.3498 20.4489 17.8918C21.1667 16.8377 21.1667 15.3685 21.1667 12.4322C21.1667 9.49492 21.1667 8.02675 20.4489 6.97259C20.1367 6.51461 19.7375 6.12255 19.274 5.81875C18.584 5.36546 17.7195 5.2035 16.3961 5.146C15.7645 5.146 15.2212 4.67642 15.0975 4.06788C15.0031 3.62213 14.7576 3.22266 14.4026 2.937C14.0476 2.65133 13.6049 2.49699 13.1493 2.50004H10.0174C9.07058 2.50004 8.25504 3.1565 8.06913 4.06788C7.9455 4.67642 7.40212 5.146 6.77058 5.146C5.44808 5.2035 4.58367 5.36642 3.89271 5.81875C3.42947 6.12261 3.03057 6.51467 2.71875 6.97259C2 8.02675 2 9.49492 2 12.4322C2 15.3685 2 16.8367 2.71779 17.8918C3.02829 18.348 3.42696 18.74 3.89271 19.0457C4.967 19.75 6.46296 19.75 9.45392 19.75ZM11.5833 8.51167C9.37821 8.51167 7.58996 10.2664 7.58996 12.4313C7.58996 14.5971 9.37821 16.3528 11.5833 16.3528C13.7885 16.3528 15.5767 14.5971 15.5767 12.4322C15.5767 10.2664 13.7885 8.51167 11.5833 8.51167ZM11.5833 10.0795C10.2608 10.0795 9.1875 11.1327 9.1875 12.4322C9.1875 13.7308 10.2608 14.784 11.5833 14.784C12.9058 14.784 13.9792 13.7308 13.9792 12.4322C13.9792 11.1327 12.9058 10.0795 11.5833 10.0795ZM16.1086 9.29559C16.1086 8.86242 16.466 8.51167 16.9078 8.51167H17.9716C18.4124 8.51167 18.7708 8.86242 18.7708 9.29559C18.7688 9.50536 18.6836 9.70576 18.5339 9.85274C18.3842 9.99973 18.1823 10.0813 17.9725 10.0795H16.9078C16.8039 10.0805 16.7007 10.061 16.6043 10.0222C16.5079 9.98334 16.4201 9.92588 16.3458 9.85309C16.2716 9.78029 16.2125 9.69359 16.1718 9.59793C16.1311 9.50228 16.1096 9.39954 16.1086 9.29559Z" fill="#323232"/>
</svg>
