<svg width="23" height="23" viewBox="0 0 23 23" fill="none" xmlns="http://www.w3.org/2000/svg">
<path d="M11.5001 17.25C16.793 17.25 21.0834 11.5 21.0834 11.5C21.0834 11.5 16.793 5.75 11.5001 5.75C6.20721 5.75 1.91675 11.5 1.91675 11.5C1.91675 11.5 6.20721 17.25 11.5001 17.25Z" stroke="#317DC9" stroke-width="1.91667" stroke-linejoin="round"/>
<path d="M11.5001 13.8962C12.1355 13.8962 12.7449 13.6437 13.1942 13.1944C13.6435 12.7451 13.8959 12.1357 13.8959 11.5003C13.8959 10.8649 13.6435 10.2555 13.1942 9.80622C12.7449 9.35691 12.1355 9.10449 11.5001 9.10449C10.8647 9.10449 10.2553 9.35691 9.80597 9.80622C9.35667 10.2555 9.10425 10.8649 9.10425 11.5003C9.10425 12.1357 9.35667 12.7451 9.80597 13.1944C10.2553 13.6437 10.8647 13.8962 11.5001 13.8962Z" stroke="#317DC9" stroke-width="1.91667" stroke-linejoin="round"/>
</svg>
