<svg width="15" height="15" viewBox="0 0 15 15" fill="none" xmlns="http://www.w3.org/2000/svg">
<path fill-rule="evenodd" clip-rule="evenodd" d="M10.0855 2.95515L11.2293 4.0989C12.9099 5.78015 13.7499 6.62015 13.7499 7.6639C13.7499 8.70828 12.9099 9.54828 11.2293 11.2289C9.54804 12.9102 8.70804 13.7502 7.66367 13.7502C6.61992 13.7502 5.77929 12.9102 4.09867 11.2295L2.95492 10.0858C1.98929 9.11953 1.50617 8.63703 1.32679 8.01015C1.14679 7.38328 1.30054 6.71765 1.60804 5.38703L1.78492 4.61953C2.04304 3.49953 2.17242 2.93953 2.55554 2.55578C2.93929 2.17265 3.49929 2.04328 4.61929 1.78515L5.38679 1.60765C6.71804 1.30078 7.38304 1.14703 8.00992 1.3264C8.63679 1.5064 9.11992 1.98953 10.0855 2.95515ZM6.96617 8.95515C6.54554 8.53515 6.54867 7.9314 6.80054 7.45328C6.73819 7.36321 6.70934 7.25415 6.71902 7.14503C6.7287 7.03592 6.7763 6.93364 6.85353 6.85595C6.93077 6.77827 7.03277 6.73009 7.14183 6.71979C7.25089 6.70948 7.36012 6.73769 7.45054 6.79953C7.66304 6.68703 7.89617 6.62703 8.12867 6.62953C8.25299 6.63069 8.37175 6.68119 8.45884 6.76992C8.54593 6.85864 8.5942 6.97833 8.59304 7.10265C8.59188 7.22697 8.54138 7.34574 8.45265 7.43283C8.36393 7.51992 8.24424 7.56819 8.11992 7.56703C7.9752 7.57238 7.83843 7.63459 7.73929 7.74015C7.49742 7.98203 7.56054 8.22453 7.62867 8.29265C7.69742 8.36078 7.93929 8.4239 8.18117 8.18203C8.67117 7.69203 9.51742 7.52953 10.0593 8.0714C10.4799 8.49203 10.4768 9.09578 10.2249 9.5739C10.2869 9.66399 10.3154 9.7729 10.3055 9.88179C10.2957 9.99069 10.2481 10.0927 10.171 10.1702C10.0938 10.2477 9.99203 10.2958 9.88319 10.3062C9.77435 10.3166 9.6653 10.2886 9.57492 10.227C9.29444 10.3809 8.96911 10.4321 8.65492 10.372C8.53308 10.347 8.42618 10.2746 8.35773 10.1707C8.28928 10.0669 8.26489 9.94011 8.28992 9.81828C8.31495 9.69644 8.38735 9.58954 8.4912 9.52109C8.59505 9.45264 8.72183 9.42825 8.84367 9.45328C8.95429 9.4764 9.13304 9.44015 9.28617 9.28703C9.52804 9.04453 9.46492 8.80265 9.39679 8.73453C9.32804 8.6664 9.08617 8.60328 8.84429 8.84515C8.35429 9.33515 7.50804 9.49765 6.96617 8.95515ZM6.26242 6.43328C6.37847 6.31718 6.47052 6.17936 6.53332 6.02769C6.59611 5.87602 6.62842 5.71346 6.62839 5.54931C6.62836 5.38515 6.596 5.22261 6.53315 5.07096C6.4703 4.91931 6.3782 4.78152 6.2621 4.66547C6.14601 4.54941 6.00819 4.45736 5.85652 4.39456C5.70484 4.33177 5.54229 4.29947 5.37813 4.2995C5.21398 4.29953 5.05143 4.33189 4.89978 4.39473C4.74813 4.45758 4.61035 4.54968 4.49429 4.66578C4.25991 4.90025 4.12826 5.21822 4.12832 5.54975C4.12838 5.88128 4.26014 6.19921 4.4946 6.43359C4.72907 6.66798 5.04705 6.79962 5.37857 6.79956C5.7101 6.7995 6.02803 6.66775 6.26242 6.43328Z" fill="#317DC9"/>
</svg>
