<svg width="30" height="30" viewBox="0 0 30 30" fill="none" xmlns="http://www.w3.org/2000/svg">
<path d="M15 25.9375C14.7524 25.9343 14.5158 25.8345 14.3407 25.6593C14.1655 25.4842 14.0657 25.2476 14.0625 25V5C14.0625 4.75136 14.1613 4.5129 14.3371 4.33709C14.5129 4.16127 14.7514 4.0625 15 4.0625C15.2486 4.0625 15.4871 4.16127 15.6629 4.33709C15.8387 4.5129 15.9375 4.75136 15.9375 5V25C15.9343 25.2476 15.8345 25.4842 15.6593 25.6593C15.4842 25.8345 15.2476 25.9343 15 25.9375Z" fill="white"/>
<path d="M16.875 23.4376H8.75C8.50136 23.4376 8.2629 23.3388 8.08709 23.163C7.91127 22.9872 7.8125 22.7487 7.8125 22.5001C7.8125 22.2515 7.91127 22.013 8.08709 21.8372C8.2629 21.6614 8.50136 21.5626 8.75 21.5626H16.875C17.7019 21.6363 18.5248 21.3832 19.1674 20.8575C19.8099 20.3317 20.221 19.5753 20.3125 18.7501C20.221 17.925 19.8099 17.1685 19.1674 16.6428C18.5248 16.117 17.7019 15.8639 16.875 15.9376H13.125C12.4681 15.9799 11.8093 15.8922 11.1864 15.6793C10.5636 15.4664 9.98884 15.1327 9.49525 14.6971C9.00167 14.2616 8.59894 13.7329 8.31017 13.1414C8.0214 12.5499 7.85228 11.9072 7.8125 11.2501C7.85228 10.5931 8.0214 9.95032 8.31017 9.35879C8.59894 8.76726 9.00167 8.23857 9.49525 7.80306C9.98884 7.36754 10.5636 7.03378 11.1864 6.82091C11.8093 6.60804 12.4681 6.52026 13.125 6.5626H20C20.2486 6.5626 20.4871 6.66137 20.6629 6.83719C20.8387 7.013 20.9375 7.25146 20.9375 7.5001C20.9375 7.74874 20.8387 7.9872 20.6629 8.16302C20.4871 8.33883 20.2486 8.4376 20 8.4376H13.125C12.2981 8.3639 11.4752 8.61703 10.8326 9.14275C10.1901 9.66847 9.77901 10.425 9.6875 11.2501C9.77901 12.0753 10.1901 12.8317 10.8326 13.3575C11.4752 13.8832 12.2981 14.1363 13.125 14.0626H16.875C17.5319 14.0203 18.1907 14.108 18.8136 14.3209C19.4364 14.5338 20.0112 14.8675 20.5047 15.3031C20.9983 15.7386 21.4011 16.2673 21.6898 16.8588C21.9786 17.4503 22.1477 18.0931 22.1875 18.7501C22.1477 19.4072 21.9786 20.0499 21.6898 20.6414C21.4011 21.2329 20.9983 21.7616 20.5047 22.1971C20.0112 22.6327 19.4364 22.9664 18.8136 23.1793C18.1907 23.3922 17.5319 23.4799 16.875 23.4376Z" fill="white"/>
</svg>
