<svg width="26" height="25" viewBox="0 0 26 25" fill="none" xmlns="http://www.w3.org/2000/svg">
<g id="Group">
<path id="profile" d="M1.54022 21.875C1.54022 20.4826 2.09335 19.1473 3.07791 18.1627C4.06248 17.1781 5.39784 16.625 6.79022 16.625H19.2902C20.6826 16.625 22.018 17.1781 23.0025 18.1627C23.9871 19.1473 24.5402 20.4826 24.5402 21.875C24.5402 22.4386 24.3163 22.9791 23.9178 23.3776L24.6249 24.0847L23.9178 23.3776C23.5193 23.7761 22.9788 24 22.4152 24H3.66522C3.10164 24 2.56114 23.7761 2.16262 23.3776C1.76411 22.9791 1.54022 22.4386 1.54022 21.875Z" stroke="#B0B0B0" stroke-width="2" stroke-linejoin="round"/>
<path id="profile_2" d="M17.9717 6.19C17.9717 9.05636 15.6481 11.38 12.7817 11.38C9.91538 11.38 7.59174 9.05636 7.59174 6.19C7.59174 3.32364 9.91538 1 12.7817 1C15.6481 1 17.9717 3.32364 17.9717 6.19Z" stroke="#B0B0B0" stroke-width="2"/>
</g>
</svg>
