<svg width="24" height="24" viewBox="0 0 24 24" fill="none" xmlns="http://www.w3.org/2000/svg">
<g id="house-door 1">
<path id="Vector" d="M14.0156 1.64063C14.2243 1.86529 14.2559 1.98964 14.2563 2.29282C14.2564 2.32672 14.2565 2.36062 14.2566 2.39554C14.257 2.51029 14.2569 2.62503 14.2569 2.73978C14.2571 2.82242 14.2572 2.90505 14.2574 2.98768C14.2579 3.21567 14.2581 3.44366 14.2582 3.67165C14.2584 3.91718 14.2588 4.16272 14.2592 4.40825C14.2602 5.00165 14.2606 5.59506 14.2611 6.18846C14.2613 6.46767 14.2615 6.74688 14.2618 7.02609C14.2626 7.95385 14.2632 8.8816 14.2636 9.80935C14.2637 10.0502 14.2638 10.2911 14.2639 10.532C14.2639 10.5919 14.2639 10.6517 14.2639 10.7134C14.2643 11.6838 14.2655 12.6542 14.267 13.6246C14.2686 14.6201 14.2694 15.6156 14.2696 16.6111C14.2697 17.1704 14.2701 17.7296 14.2713 18.2889C14.2723 18.7651 14.2727 19.2413 14.2722 19.7174C14.272 19.9605 14.2721 20.2036 14.273 20.4466C14.2738 20.6691 14.2738 20.8915 14.2731 21.1139C14.2729 21.1944 14.2731 21.275 14.2737 21.3556C14.2744 21.4649 14.274 21.5742 14.2732 21.6836C14.2733 21.7444 14.2733 21.8052 14.2734 21.8678C14.238 22.1154 14.1241 22.2583 13.9395 22.4209C13.5603 22.6105 13.1992 22.5411 12.807 22.4282C12.7564 22.4144 12.7059 22.4006 12.6539 22.3864C12.4816 22.3391 12.3097 22.2906 12.1377 22.2422C12.0133 22.2076 11.8888 22.1734 11.7644 22.1391C11.5522 22.0806 11.3402 22.0219 11.1282 21.9629C10.4791 21.7824 9.82913 21.6054 9.17897 21.4289C8.81756 21.3307 8.45622 21.2322 8.09489 21.1338C8.03428 21.1173 7.97368 21.1008 7.91307 21.0843C7.8831 21.0761 7.85312 21.0679 7.82224 21.0595C7.61036 21.0018 7.39843 20.9442 7.1865 20.8867C6.8968 20.8081 6.60721 20.7291 6.3177 20.6498C6.20957 20.6202 6.1014 20.5908 5.99319 20.5615C5.84351 20.521 5.69397 20.48 5.54446 20.4389C5.50092 20.4272 5.45737 20.4156 5.4125 20.4036C4.7804 20.2281 4.7804 20.2281 4.58469 19.978C4.44788 19.7207 4.47421 19.4372 4.47621 19.1532C4.47599 19.0889 4.4757 19.0247 4.47532 18.9605C4.47454 18.7844 4.47493 18.6083 4.47551 18.4323C4.47593 18.2422 4.47528 18.0522 4.47476 17.8621C4.47393 17.49 4.47411 17.1178 4.47465 16.7457C4.47508 16.4432 4.47513 16.1408 4.47493 15.8383C4.4749 15.7953 4.47487 15.7522 4.47484 15.7079C4.47478 15.6204 4.47472 15.5329 4.47466 15.4455C4.47412 14.6254 4.47474 13.8054 4.47575 12.9853C4.47658 12.2817 4.47644 11.5781 4.47557 10.8745C4.47457 10.0574 4.47418 9.24024 4.47475 8.4231C4.47481 8.33597 4.47487 8.24883 4.47493 8.16169C4.47496 8.11881 4.47499 8.07594 4.47502 8.03177C4.47518 7.72969 4.47491 7.42761 4.47446 7.12553C4.47394 6.75737 4.47408 6.38923 4.47508 6.02107C4.47557 5.83325 4.47576 5.64543 4.47514 5.4576C4.47459 5.28562 4.47489 5.11365 4.47589 4.94167C4.4762 4.85008 4.47559 4.75848 4.47494 4.66689C4.47775 4.35261 4.49093 4.14197 4.68752 3.89062C4.92435 3.69618 5.27456 3.63351 5.56465 3.55605C5.6138 3.54258 5.66296 3.52911 5.7136 3.51524C5.87617 3.4708 6.03889 3.42693 6.20162 3.38306C6.31665 3.35173 6.43167 3.32037 6.54669 3.28898C6.82156 3.21405 7.09653 3.13947 7.37155 3.06508C7.68635 2.97992 8.00105 2.89437 8.31575 2.8088C8.71918 2.69911 9.12263 2.58949 9.52616 2.48013C10.1541 2.30995 10.7819 2.13914 11.4091 1.96613C11.6335 1.90427 11.858 1.84269 12.0824 1.78105C12.1946 1.75017 12.3067 1.71916 12.4188 1.68802C12.5686 1.64646 12.7184 1.60539 12.8683 1.56445C12.9097 1.55281 12.9511 1.54117 12.9937 1.52917C13.3786 1.42513 13.6777 1.41212 14.0156 1.64063ZM12.2484 3.37411C12.2115 3.38404 12.1746 3.39397 12.1365 3.4042C12.0134 3.43739 11.8902 3.47083 11.7671 3.50427C11.6802 3.52775 11.5933 3.55121 11.5063 3.57465C11.2736 3.63749 11.0409 3.70055 10.8082 3.76366C10.6168 3.81554 10.4255 3.86731 10.2341 3.91907C9.6762 4.06998 9.11844 4.22129 8.56072 4.37279C8.44485 4.40426 8.32898 4.43571 8.2131 4.46716C7.85377 4.56468 7.49449 4.66238 7.13533 4.76052C7.03493 4.78795 6.93452 4.81534 6.8341 4.84267C6.69861 4.87959 6.56317 4.91672 6.42775 4.95392C6.36954 4.96973 6.36954 4.96973 6.31016 4.98586C6.14146 5.02132 6.14146 5.02132 6.00002 5.10938C5.99547 5.18292 5.99422 5.25668 5.99425 5.33037C5.99416 5.37847 5.99407 5.42657 5.99397 5.47612C5.99411 5.52961 5.99424 5.5831 5.99438 5.6382C5.99434 5.69452 5.9943 5.75083 5.99426 5.80886C5.9942 5.96588 5.99434 6.1229 5.99458 6.27992C5.99478 6.44899 5.99471 6.61805 5.99468 6.78712C5.99465 7.08026 5.9948 7.37341 5.99506 7.66656C5.99544 8.09041 5.99557 8.51426 5.99563 8.93811C5.99573 9.62571 5.99604 10.3133 5.99648 11.0009C5.99691 11.669 5.99724 12.3371 5.99744 13.0052C5.99746 13.0464 5.99747 13.0875 5.99748 13.1299C5.99754 13.3364 5.9976 13.5428 5.99766 13.7492C5.99815 15.463 5.99897 17.1768 6.00002 18.8906C6.28639 19.0007 6.28639 19.0007 6.57928 19.0913C6.61515 19.101 6.65103 19.1108 6.68799 19.1209C6.72599 19.131 6.764 19.1412 6.80315 19.1517C6.84431 19.1628 6.88547 19.174 6.92788 19.1855C7.06356 19.2222 7.1993 19.2586 7.33504 19.2951C7.43125 19.3211 7.52745 19.3471 7.62364 19.3731C7.87762 19.4417 8.13165 19.5102 8.3857 19.5785C8.6376 19.6464 8.88944 19.7144 9.14128 19.7824C9.43674 19.8622 9.7322 19.942 10.0277 20.0215C10.4863 20.145 10.9447 20.2688 11.4028 20.3939C11.5236 20.4268 11.6444 20.4597 11.7652 20.4926C11.8406 20.5132 11.9159 20.5338 11.9913 20.5545C12.0936 20.5826 12.196 20.6105 12.2984 20.6384C12.3554 20.654 12.4125 20.6696 12.4713 20.6857C12.6085 20.7242 12.6085 20.7242 12.75 20.7188C12.75 14.9644 12.75 9.21 12.75 3.28125C12.5734 3.28125 12.4174 3.32795 12.2484 3.37411Z" fill="black"/>
<path id="Vector_2" d="M16.7014 3.72515C16.7478 3.72497 16.7941 3.72479 16.8419 3.72461C16.9397 3.72448 17.0376 3.72482 17.1355 3.72561C17.284 3.72661 17.4325 3.72562 17.5811 3.72442C17.6765 3.72454 17.772 3.72478 17.8674 3.72515C17.9113 3.72477 17.9552 3.72439 18.0004 3.724C18.4191 3.72986 18.7902 3.84956 19.1001 4.13897C19.4567 4.53555 19.5139 4.92867 19.5125 5.4467C19.5127 5.5048 19.513 5.5629 19.5132 5.62277C19.5137 5.7837 19.5137 5.94463 19.5136 6.10556C19.5136 6.27926 19.5141 6.45297 19.5146 6.62667C19.5154 6.96687 19.5156 7.30707 19.5157 7.64728C19.5157 7.92388 19.5159 8.20048 19.5162 8.47708C19.517 9.2616 19.5175 10.0461 19.5174 10.8306C19.5174 10.8729 19.5174 10.9152 19.5174 10.9588C19.5174 11.0011 19.5174 11.0434 19.5174 11.0871C19.5173 11.773 19.5182 12.4589 19.5195 13.1448C19.5209 13.8494 19.5215 14.5541 19.5215 15.2587C19.5214 15.6541 19.5217 16.0496 19.5227 16.445C19.5235 16.7818 19.5237 17.1185 19.5231 17.4553C19.5228 17.627 19.5228 17.7987 19.5236 17.9704C19.5245 18.1568 19.5239 18.3432 19.5232 18.5296C19.5237 18.5835 19.5241 18.6374 19.5246 18.6929C19.5208 19.1378 19.4205 19.5188 19.1111 19.8501C18.7427 20.1813 18.3696 20.2647 17.8857 20.2658C17.8389 20.2661 17.7922 20.2664 17.7439 20.2667C17.6453 20.2672 17.5466 20.2674 17.448 20.2674C17.2974 20.2676 17.1468 20.2693 16.9962 20.2711C16.9001 20.2714 16.8041 20.2716 16.708 20.2717C16.6632 20.2723 16.6183 20.273 16.5722 20.2737C16.3048 20.2719 16.1488 20.2426 15.9375 20.0626C15.7674 19.8835 15.7355 19.7399 15.7266 19.5001C15.7355 19.2602 15.7674 19.1166 15.9375 18.9376C16.2188 18.7501 16.2188 18.7501 18 18.7501C18 14.2951 18 9.84005 18 5.25005C17.4122 5.25005 16.8244 5.25005 16.2188 5.25005C15.8551 5.00759 15.8551 5.00759 15.75 4.7813C15.7147 4.51881 15.7138 4.29685 15.8262 4.05474C16.1026 3.76374 16.3163 3.72185 16.7014 3.72515Z" fill="black"/>
<path id="Vector_3" d="M10.7813 10.5C11.0141 10.6081 11.1291 10.7447 11.2501 10.9687C11.2768 11.1252 11.2764 11.279 11.275 11.4375C11.2751 11.4822 11.2753 11.5269 11.2755 11.573C11.2756 11.6672 11.2753 11.7615 11.2745 11.8557C11.2735 11.9995 11.2745 12.1433 11.2757 12.2871C11.2756 12.3789 11.2753 12.4707 11.275 12.5625C11.2753 12.6053 11.2757 12.6481 11.2761 12.6921C11.2723 12.9538 11.2371 13.1051 11.0626 13.3125C10.8835 13.4826 10.7399 13.5145 10.5001 13.5234C10.2602 13.5145 10.1166 13.4826 9.93755 13.3125C9.72994 13.0657 9.72241 12.8708 9.72515 12.5625C9.72497 12.5178 9.72479 12.4731 9.72461 12.427C9.72448 12.3328 9.72482 12.2385 9.72561 12.1443C9.72661 12.0004 9.72562 11.8567 9.72442 11.7129C9.72454 11.6211 9.72478 11.5293 9.72515 11.4375C9.72477 11.3947 9.72439 11.3519 9.724 11.3079C9.72783 11.0462 9.76303 10.8949 9.93755 10.6875C10.1846 10.4528 10.4582 10.4565 10.7813 10.5Z" fill="black"/>
</g>
</svg>
