<svg width="24" height="23" viewBox="0 0 24 23" fill="none" xmlns="http://www.w3.org/2000/svg">
<g id="ri:search-line">
<path id="search" d="M17.7797 15.9247L21.8842 20.0283L20.5282 21.3843L16.4246 17.2798C14.8977 18.5038 12.9985 19.1695 11.0416 19.1667C6.28063 19.1667 2.41663 15.3027 2.41663 10.5417C2.41663 5.78075 6.28063 1.91675 11.0416 1.91675C15.8026 1.91675 19.6666 5.78075 19.6666 10.5417C19.6694 12.4987 19.0037 14.3978 17.7797 15.9247ZM15.8573 15.2136C17.0735 13.9629 17.7527 12.2863 17.75 10.5417C17.75 6.83587 14.7475 3.83341 11.0416 3.83341C7.33575 3.83341 4.33329 6.83587 4.33329 10.5417C4.33329 14.2476 7.33575 17.2501 11.0416 17.2501C12.7862 17.2528 14.4628 16.5736 15.7135 15.3574L15.8573 15.2136Z" fill="white"/>
</g>
</svg>
