<svg width="23" height="23" viewBox="0 0 23 23" fill="none" xmlns="http://www.w3.org/2000/svg">
<path d="M17.25 15.4103C16.5217 15.4103 15.87 15.6978 15.3717 16.1482L8.53875 12.1712C8.58667 11.9507 8.625 11.7303 8.625 11.5003C8.625 11.2703 8.58667 11.0499 8.53875 10.8295L15.295 6.89074C15.8125 7.36991 16.4929 7.66699 17.25 7.66699C18.8408 7.66699 20.125 6.38283 20.125 4.79199C20.125 3.20116 18.8408 1.91699 17.25 1.91699C15.6592 1.91699 14.375 3.20116 14.375 4.79199C14.375 5.02199 14.4133 5.24241 14.4613 5.46283L7.705 9.40158C7.1875 8.92241 6.50708 8.62533 5.75 8.62533C4.15917 8.62533 2.875 9.90949 2.875 11.5003C2.875 13.0912 4.15917 14.3753 5.75 14.3753C6.50708 14.3753 7.1875 14.0782 7.705 13.5991L14.5283 17.5857C14.4804 17.787 14.4517 17.9978 14.4517 18.2087C14.4517 19.7516 15.7071 21.007 17.25 21.007C18.7929 21.007 20.0483 19.7516 20.0483 18.2087C20.0483 16.6657 18.7929 15.4103 17.25 15.4103Z" fill="#317DC9"/>
</svg>
