<svg width="23" height="24" viewBox="0 0 23 24" fill="none" xmlns="http://www.w3.org/2000/svg">
<path d="M17.7292 5.77116C17.7292 5.64408 17.7797 5.5222 17.8696 5.43234C17.9595 5.34248 18.0813 5.29199 18.2084 5.29199C18.8438 5.29199 19.4532 5.54441 19.9025 5.99372C20.3518 6.44302 20.6042 7.05241 20.6042 7.68783V8.4497C20.6047 8.76562 20.5341 9.07759 20.3978 9.36257C20.2614 9.64755 20.0628 9.89824 19.8165 10.0961C20.2068 10.3592 20.5265 10.7141 20.7474 11.1297C20.9683 11.5453 21.0837 12.0088 21.0834 12.4795V13.917C21.0834 14.0441 21.0329 14.166 20.9431 14.2558C20.8532 14.3457 20.7313 14.3962 20.6042 14.3962C20.4772 14.3962 20.3553 14.3457 20.2654 14.2558C20.1756 14.166 20.1251 14.0441 20.1251 13.917V12.4795C20.1251 11.9712 19.9231 11.4836 19.5637 11.1242C19.2043 10.7648 18.7167 10.5628 18.2084 10.5628C18.0813 10.5628 17.9595 10.5123 17.8696 10.4225C17.7797 10.3326 17.7292 10.2107 17.7292 10.0837C17.7292 9.95658 17.7797 9.8347 17.8696 9.74484C17.9595 9.65497 18.0813 9.60449 18.2084 9.60449H18.4911C18.7974 9.60449 19.0911 9.48283 19.3077 9.26626C19.5243 9.0497 19.6459 8.75597 19.6459 8.4497V7.68783C19.6459 7.30658 19.4945 6.94094 19.2249 6.67136C18.9553 6.40178 18.5897 6.25033 18.2084 6.25033C18.0813 6.25033 17.9595 6.19984 17.8696 6.10998C17.7797 6.02012 17.7292 5.89824 17.7292 5.77116Z" fill="#323232"/>
<path d="M16.2917 8.64583C15.9105 8.64583 15.5448 8.79728 15.2752 9.06687C15.0057 9.33645 14.8542 9.70208 14.8542 10.0833V10.9545C14.8542 11.3357 15.0057 11.7013 15.2752 11.9709C15.5448 12.2405 15.9105 12.392 16.2917 12.392H17.7292C18.1105 12.392 18.4761 12.5434 18.7457 12.813C19.0153 13.0826 19.1667 13.4482 19.1667 13.8295V13.9167C19.1667 14.0437 19.1162 14.1656 19.0264 14.2555C18.9365 14.3453 18.8146 14.3958 18.6875 14.3958C18.5605 14.3958 18.4386 14.3453 18.3487 14.2555C18.2589 14.1656 18.2084 14.0437 18.2084 13.9167V13.8295C18.2084 13.7024 18.1579 13.5805 18.068 13.4906C17.9782 13.4008 17.8563 13.3503 17.7292 13.3503H16.2917C15.6563 13.3503 15.0469 13.0979 14.5976 12.6486C14.1483 12.1993 13.8959 11.5899 13.8959 10.9545V10.0833C13.8959 9.44792 14.1483 8.83853 14.5976 8.38922C15.0469 7.93992 15.6563 7.6875 16.2917 7.6875C16.4188 7.6875 16.5407 7.73798 16.6305 7.82784C16.7204 7.91771 16.7709 8.03958 16.7709 8.16667C16.7709 8.29375 16.7204 8.41563 16.6305 8.50549C16.5407 8.59535 16.4188 8.64583 16.2917 8.64583ZM3.35421 15.3542C3.10004 15.3542 2.85629 15.4551 2.67656 15.6349C2.49684 15.8146 2.39587 16.0583 2.39587 16.3125V17.2708C2.39587 17.525 2.49684 17.7688 2.67656 17.9485C2.85629 18.1282 3.10004 18.2292 3.35421 18.2292H16.2917C16.5459 18.2292 16.7896 18.1282 16.9694 17.9485C17.1491 17.7688 17.25 17.525 17.25 17.2708V16.3125C17.25 16.0583 17.1491 15.8146 16.9694 15.6349C16.7896 15.4551 16.5459 15.3542 16.2917 15.3542H3.35421ZM19.1667 15.8333C19.1667 15.7063 19.1162 15.5844 19.0264 15.4945C18.9365 15.4046 18.8146 15.3542 18.6875 15.3542C18.5605 15.3542 18.4386 15.4046 18.3487 15.4945C18.2589 15.5844 18.2084 15.7063 18.2084 15.8333V17.75C18.2084 17.8771 18.2589 17.999 18.3487 18.0888C18.4386 18.1787 18.5605 18.2292 18.6875 18.2292C18.8146 18.2292 18.9365 18.1787 19.0264 18.0888C19.1162 17.999 19.1667 17.8771 19.1667 17.75V15.8333ZM21.0834 15.8333C21.0834 15.7063 21.0329 15.5844 20.943 15.4945C20.8532 15.4046 20.7313 15.3542 20.6042 15.3542C20.4771 15.3542 20.3552 15.4046 20.2654 15.4945C20.1755 15.5844 20.125 15.7063 20.125 15.8333V17.75C20.125 17.8771 20.1755 17.999 20.2654 18.0888C20.3552 18.1787 20.4771 18.2292 20.6042 18.2292C20.7313 18.2292 20.8532 18.1787 20.943 18.0888C21.0329 17.999 21.0834 17.8771 21.0834 17.75V15.8333Z" fill="#323232"/>
</svg>
