<svg width="23" height="24" viewBox="0 0 23 24" fill="none" xmlns="http://www.w3.org/2000/svg">
<g clip-path="url(#clip0_3_3941)">
<path d="M11.5 5.77051C12.3896 5.77051 13.2427 6.12389 13.8718 6.75292C14.5008 7.38195 14.8542 8.23509 14.8542 9.12467C14.8542 10.0143 14.5008 10.8674 13.8718 11.4964C13.2427 12.1255 12.3896 12.4788 11.5 12.4788C10.6104 12.4788 9.75727 12.1255 9.12825 11.4964C8.49922 10.8674 8.14583 10.0143 8.14583 9.12467C8.14583 8.23509 8.49922 7.38195 9.12825 6.75292C9.75727 6.12389 10.6104 5.77051 11.5 5.77051ZM4.79167 8.16634C5.32833 8.16634 5.82667 8.31009 6.25792 8.56884C6.11417 9.93926 6.51667 11.3001 7.34083 12.3638C6.86167 13.2838 5.90333 13.9163 4.79167 13.9163C4.02917 13.9163 3.2979 13.6134 2.75873 13.0743C2.21957 12.5351 1.91667 11.8038 1.91667 11.0413C1.91667 10.2788 2.21957 9.54758 2.75873 9.00841C3.2979 8.46924 4.02917 8.16634 4.79167 8.16634ZM18.2083 8.16634C18.9708 8.16634 19.7021 8.46924 20.2413 9.00841C20.7804 9.54758 21.0833 10.2788 21.0833 11.0413C21.0833 11.8038 20.7804 12.5351 20.2413 13.0743C19.7021 13.6134 18.9708 13.9163 18.2083 13.9163C17.0967 13.9163 16.1383 13.2838 15.6592 12.3638C16.4947 11.2852 16.8825 9.92603 16.7421 8.56884C17.1733 8.31009 17.6717 8.16634 18.2083 8.16634ZM5.27083 17.9893C5.27083 16.0055 8.05958 14.3955 11.5 14.3955C14.9404 14.3955 17.7292 16.0055 17.7292 17.9893V19.6663H5.27083V17.9893ZM0 19.6663V18.2288C0 16.8968 1.81125 15.7755 4.26458 15.4497C3.69917 16.1013 3.35417 17.0022 3.35417 17.9893V19.6663H0ZM23 19.6663H19.6458V17.9893C19.6458 17.0022 19.3008 16.1013 18.7354 15.4497C21.1887 15.7755 23 16.8968 23 18.2288V19.6663Z" fill="#323232"/>
</g>
<defs>
<clipPath id="clip0_3_3941">
<rect width="23" height="23" fill="white" transform="translate(0 0.5)"/>
</clipPath>
</defs>
</svg>
