<svg width="10" height="9" viewBox="0 0 10 9" fill="none" xmlns="http://www.w3.org/2000/svg">
<path d="M4.60596 0.761922C4.6524 0.682227 4.71893 0.616102 4.7989 0.570144C4.87888 0.524185 4.9695 0.5 5.06174 0.5C5.15398 0.5 5.24461 0.524185 5.32458 0.570144C5.40456 0.616102 5.47109 0.682227 5.51753 0.761922L6.69708 2.78678L8.98781 3.28308C9.07792 3.30266 9.16132 3.34552 9.2297 3.40738C9.29808 3.46924 9.34905 3.54795 9.37753 3.63565C9.40601 3.72335 9.411 3.81698 9.39201 3.90722C9.37302 3.99745 9.33071 4.08113 9.2693 4.14991L7.70782 5.89751L7.94415 8.22918C7.95348 8.32099 7.93855 8.41364 7.90087 8.49789C7.86318 8.58213 7.80406 8.65501 7.7294 8.70925C7.65474 8.7635 7.56715 8.7972 7.47539 8.80701C7.38363 8.81682 7.2909 8.80239 7.20646 8.76515L5.06174 7.81982L2.91703 8.76515C2.83259 8.80239 2.73986 8.81682 2.6481 8.80701C2.55633 8.7972 2.46875 8.7635 2.39409 8.70925C2.31943 8.65501 2.2603 8.58213 2.22262 8.49789C2.18494 8.41364 2.17001 8.32099 2.17933 8.22918L2.41567 5.89751L0.854185 4.15034C0.792666 4.08156 0.750264 3.99784 0.731213 3.90755C0.712162 3.81727 0.717129 3.72356 0.745617 3.63579C0.774105 3.54802 0.825117 3.46926 0.893562 3.40737C0.962006 3.34547 1.04549 3.30262 1.13567 3.28308L3.42641 2.78678L4.60596 0.761922Z" fill="#FFC107"/>
</svg>
