<svg width="24" height="23" viewBox="0 0 24 23" fill="none" xmlns="http://www.w3.org/2000/svg">
<path d="M21.2001 21.2747H2.03345M2.03345 10.7331L5.92716 7.61849M21.2001 10.7331L13.4127 4.50391C12.9029 4.09613 12.2696 3.87397 11.6168 3.87397C10.964 3.87397 10.3306 4.09613 9.82086 4.50391L9.07145 5.10286M14.9709 5.46224V3.54557C14.9709 3.41849 15.0214 3.29661 15.1113 3.20675C15.2012 3.11689 15.323 3.06641 15.4501 3.06641H17.8459C17.973 3.06641 18.0949 3.11689 18.1848 3.20675C18.2746 3.29661 18.3251 3.41849 18.3251 3.54557V8.33724M3.95011 21.2747V9.29557M19.2834 9.29557V13.1289M19.2834 21.2747V16.9622" stroke="#323232" stroke-width="1.3" stroke-linecap="round"/>
<path d="M14.4915 21.2751V16.4834C14.4915 15.1283 14.4915 14.4508 14.0698 14.0301C13.65 13.6084 12.9725 13.6084 11.6165 13.6084C10.2614 13.6084 9.58383 13.6084 9.16312 14.0301M8.74146 21.2751V16.4834" stroke="#323232" stroke-width="1.3" stroke-linecap="round" stroke-linejoin="round"/>
<path d="M13.5338 9.29557C13.5338 9.8039 13.3318 10.2914 12.9724 10.6509C12.6129 11.0103 12.1254 11.2122 11.6171 11.2122C11.1088 11.2122 10.6213 11.0103 10.2618 10.6509C9.90237 10.2914 9.70044 9.8039 9.70044 9.29557C9.70044 8.78724 9.90237 8.29973 10.2618 7.94029C10.6213 7.58084 11.1088 7.37891 11.6171 7.37891C12.1254 7.37891 12.6129 7.58084 12.9724 7.94029C13.3318 8.29973 13.5338 8.78724 13.5338 9.29557Z" stroke="#323232" stroke-width="1.3"/>
</svg>
