<svg width="23" height="24" viewBox="0 0 23 24" fill="none" xmlns="http://www.w3.org/2000/svg">
<path d="M18.2773 20.625H4.72267C4.23263 20.625 3.76267 20.4304 3.41617 20.0839C3.06966 19.7374 2.875 19.2674 2.875 18.7774V12.2061C2.875 11.7154 3.06954 11.2477 3.41742 10.898L10.1928 4.12925C10.3644 3.95762 10.5681 3.82147 10.7923 3.72859C11.0165 3.6357 11.2568 3.58789 11.4995 3.58789C11.7422 3.58789 11.9825 3.6357 12.2067 3.72859C12.4309 3.82147 12.6346 3.95762 12.8062 4.12925L19.5826 10.898C19.9305 11.2449 20.125 11.7154 20.125 12.2061V18.7774C20.125 19.2674 19.9303 19.7374 19.5838 20.0839C19.2373 20.4304 18.7674 20.625 18.2773 20.625Z" stroke="#323232" stroke-width="1.91667" stroke-linecap="round" stroke-linejoin="round"/>
<path d="M6.70833 12.9584V16.7917M6.70833 16.7917H16.2917M6.70833 16.7917V20.6251M16.2917 16.7917V12.9584L11.5 8.16673M16.2917 16.7917V20.6251M14.1833 5.4834L2.875 16.7917" stroke="#323232" stroke-width="1.91667" stroke-linecap="round" stroke-linejoin="round"/>
</svg>
