<svg width="166" height="134" viewBox="0 0 166 134" fill="none" xmlns="http://www.w3.org/2000/svg">
<path d="M12.45 0C5.57656 0 0 5.62695 0 12.5625V121.438C0 128.373 5.57656 134 12.45 134H37.35V113.062C37.35 106.127 42.9266 100.5 49.8 100.5C56.6734 100.5 62.25 106.127 62.25 113.062V134H85.5678C83.9338 131.33 83 128.19 83 124.814C83 112.539 89.6919 101.835 99.6 96.234V12.5625C99.6 5.62695 94.0234 0 87.15 0H12.45ZM16.6 62.8125C16.6 60.5094 18.4675 58.625 20.75 58.625H29.05C31.3325 58.625 33.2 60.5094 33.2 62.8125V71.1875C33.2 73.4906 31.3325 75.375 29.05 75.375H20.75C18.4675 75.375 16.6 73.4906 16.6 71.1875V62.8125ZM45.65 58.625H53.95C56.2325 58.625 58.1 60.5094 58.1 62.8125V71.1875C58.1 73.4906 56.2325 75.375 53.95 75.375H45.65C43.3675 75.375 41.5 73.4906 41.5 71.1875V62.8125C41.5 60.5094 43.3675 58.625 45.65 58.625ZM66.4 62.8125C66.4 60.5094 68.2675 58.625 70.55 58.625H78.85C81.1325 58.625 83 60.5094 83 62.8125V71.1875C83 73.4906 81.1325 75.375 78.85 75.375H70.55C68.2675 75.375 66.4 73.4906 66.4 71.1875V62.8125ZM20.75 25.125H29.05C31.3325 25.125 33.2 27.0094 33.2 29.3125V37.6875C33.2 39.9906 31.3325 41.875 29.05 41.875H20.75C18.4675 41.875 16.6 39.9906 16.6 37.6875V29.3125C16.6 27.0094 18.4675 25.125 20.75 25.125ZM41.5 29.3125C41.5 27.0094 43.3675 25.125 45.65 25.125H53.95C56.2325 25.125 58.1 27.0094 58.1 29.3125V37.6875C58.1 39.9906 56.2325 41.875 53.95 41.875H45.65C43.3675 41.875 41.5 39.9906 41.5 37.6875V29.3125ZM70.55 25.125H78.85C81.1325 25.125 83 27.0094 83 29.3125V37.6875C83 39.9906 81.1325 41.875 78.85 41.875H70.55C68.2675 41.875 66.4 39.9906 66.4 37.6875V29.3125C66.4 27.0094 68.2675 25.125 70.55 25.125ZM149.4 71.1875C149.4 65.6345 147.214 60.309 143.322 56.3825C139.431 52.4559 134.153 50.25 128.65 50.25C123.147 50.25 117.869 52.4559 113.978 56.3825C110.086 60.309 107.9 65.6345 107.9 71.1875C107.9 76.7405 110.086 82.066 113.978 85.9925C117.869 89.9191 123.147 92.125 128.65 92.125C134.153 92.125 139.431 89.9191 143.322 85.9925C147.214 82.066 149.4 76.7405 149.4 71.1875ZM91.3 124.866C91.3 129.917 95.3463 134 100.352 134H156.948C161.954 134 166 129.917 166 124.866C166 111.414 155.184 100.5 141.852 100.5H115.448C102.116 100.5 91.3 111.414 91.3 124.866Z" fill="white" fill-opacity="0.2"/>
</svg>
