<svg width="16" height="16" viewBox="0 0 16 16" fill="none" xmlns="http://www.w3.org/2000/svg">
<path id="Vector" d="M14.4871 7.18913C14.2888 5.76215 13.6268 4.43994 12.6031 3.4262C11.5794 2.41245 10.2508 1.76341 8.82197 1.57904C7.39311 1.39467 5.94327 1.68521 4.69578 2.4059C3.44829 3.12659 2.47236 4.23744 1.91832 5.56736M1.51288 2.3238V5.56736H4.75644M1.51288 8.81091C1.71119 10.2379 2.37318 11.5601 3.39687 12.5739C4.42056 13.5876 5.74916 14.2366 7.17802 14.421C8.60688 14.6054 10.0567 14.3148 11.3042 13.5942C12.5517 12.8735 13.5276 11.7626 14.0817 10.4327M14.4871 13.6763V10.4327H11.2436" stroke="#F4B73D" stroke-width="2" stroke-linecap="round" stroke-linejoin="round"/>
</svg>
