<svg width="32" height="28" viewBox="0 0 32 28" fill="none" xmlns="http://www.w3.org/2000/svg">
<g id="Vector">
<path d="M9.59 2C5.39825 2 2 5.44346 2 9.69096C2 17.3819 10.97 24.3737 15.8 26C20.63 24.3737 29.6 17.3819 29.6 9.69096C29.6 5.44346 26.2017 2 22.01 2C19.4432 2 17.1731 3.29138 15.8 5.26796C15.1001 4.25779 14.1703 3.43338 13.0894 2.86453C12.0084 2.29567 10.8081 1.99913 9.59 2Z" fill="#FFCBBB"/>
<path d="M18.7392 10L13.2192 15.5934L18.7392 10Z" fill="#FFCBBB"/>
<path d="M13.2192 10L18.7392 15.5934L13.2192 10Z" fill="#FFCBBB"/>
<path d="M18.7392 10L13.2192 15.5934M13.2192 10L18.7392 15.5934M9.59 2C5.39825 2 2 5.44346 2 9.69096C2 17.3819 10.97 24.3737 15.8 26C20.63 24.3737 29.6 17.3819 29.6 9.69096C29.6 5.44346 26.2017 2 22.01 2C19.4432 2 17.1731 3.29138 15.8 5.26796C15.1001 4.25779 14.1703 3.43338 13.0894 2.86453C12.0084 2.29567 10.8081 1.99913 9.59 2Z" stroke="#F24E1E" stroke-width="3" stroke-linecap="round" stroke-linejoin="round"/>
</g>
</svg>
