<svg width="13" height="10" viewBox="0 0 13 10" fill="none" xmlns="http://www.w3.org/2000/svg">
<path fill-rule="evenodd" clip-rule="evenodd" d="M2.79787 1.5738H9.95653C10.2413 1.5738 10.5144 1.68693 10.7158 1.88831C10.9172 2.08968 11.0303 2.36281 11.0303 2.6476V6.22693C11.0303 6.51172 10.9172 6.78484 10.7158 6.98622C10.5144 7.18759 10.2413 7.30073 9.95653 7.30073H2.79787C2.51308 7.30073 2.23995 7.18759 2.03858 6.98622C1.8372 6.78484 1.72407 6.51172 1.72407 6.22693V2.6476C1.72407 2.36281 1.8372 2.08968 2.03858 1.88831C2.23995 1.68693 2.51308 1.5738 2.79787 1.5738ZM2.64753 8.36951C2.10527 8.33146 1.59761 8.08919 1.22695 7.69156C0.856285 7.29393 0.650204 6.77053 0.650269 6.22693V2.6476C0.650269 2.07802 0.876533 1.53177 1.27929 1.12902C1.68204 0.726264 2.22829 0.5 2.79787 0.5H9.95653C10.5261 0.5 11.0724 0.726264 11.4751 1.12902C11.8779 1.53177 12.1041 2.07802 12.1041 2.6476V6.22693C12.1042 6.77053 11.8981 7.29393 11.5274 7.69156C11.1568 8.08919 10.6491 8.33146 10.1069 8.36951L10.4362 9.02954C10.4719 9.09292 10.4943 9.16289 10.5022 9.2352C10.51 9.30752 10.5031 9.38068 10.4818 9.45024C10.4605 9.51979 10.4253 9.5843 10.3783 9.63984C10.3313 9.69537 10.2736 9.74079 10.2085 9.77332C10.1434 9.80585 10.0725 9.82482 9.99983 9.82908C9.92722 9.83334 9.85449 9.8228 9.78607 9.79809C9.71765 9.77339 9.65497 9.73504 9.60182 9.68538C9.54867 9.63571 9.50617 9.57576 9.4769 9.50917L8.9085 8.37453H3.84518L3.2775 9.50917C3.24634 9.57281 3.20289 9.62966 3.14966 9.67643C3.09643 9.7232 3.03447 9.75897 2.96735 9.78167C2.90023 9.80438 2.82928 9.81358 2.75859 9.80874C2.68789 9.80389 2.61886 9.7851 2.55546 9.75345C2.49207 9.7218 2.43556 9.67792 2.38921 9.62432C2.34286 9.57073 2.30757 9.50849 2.28538 9.4412C2.2632 9.3739 2.25455 9.30288 2.25994 9.23223C2.26534 9.16158 2.28466 9.09269 2.3168 9.02954L2.64753 8.36951Z" fill="#323232"/>
</svg>
