<svg width="23" height="24" viewBox="0 0 23 24" fill="none" xmlns="http://www.w3.org/2000/svg">
<path d="M0.958374 20.625V9.125H2.87504V11.0417H4.79171V3.375H6.70837V5.29167H8.62504V3.375H10.5417V5.29167H12.4584V3.375H14.375V5.29167H16.2917V3.375H18.2084V11.0417H20.125V9.125H22.0417V20.625H13.4167V17.75C13.4167 17.2229 13.2292 16.7719 12.8542 16.3968C12.4791 16.0218 12.0278 15.834 11.5 15.8333C10.973 15.8333 10.5219 16.0212 10.1469 16.3968C9.77185 16.7725 9.58401 17.2236 9.58337 17.75V20.625H0.958374ZM2.87504 18.7083H7.66671V17.75C7.66671 16.6958 8.04205 15.7934 8.79275 15.0427C9.54344 14.292 10.4459 13.9167 11.5 13.9167C12.5542 13.9167 13.4566 14.292 14.2073 15.0427C14.958 15.7934 15.3334 16.6958 15.3334 17.75V18.7083H20.125V12.9583H16.2917V7.20833H6.70837V12.9583H2.87504V18.7083ZM8.62504 12H10.5417V9.125H8.62504V12ZM12.4584 12H14.375V9.125H12.4584V12Z" fill="#323232"/>
</svg>
