<svg width="68" height="69" viewBox="0 0 68 69" fill="none" xmlns="http://www.w3.org/2000/svg">
<g id="streamline:user-profile-focus">
<path id="upload_picture" d="M65.5713 51.4999V61.2142C65.5713 62.5024 65.0596 63.7378 64.1487 64.6487C63.2378 65.5596 62.0024 66.0713 60.7142 66.0713H50.9999M50.9999 2.92847H60.7142C62.0024 2.92847 63.2378 3.4402 64.1487 4.35109C65.0596 5.26198 65.5713 6.49742 65.5713 7.78561V17.4999M2.42847 17.4999V7.78561C2.42847 6.49742 2.9402 5.26198 3.85109 4.35109C4.76198 3.4402 5.99742 2.92847 7.28561 2.92847H16.9999M16.9999 66.0713H7.28561C5.99742 66.0713 4.76198 65.5596 3.85109 64.6487C2.9402 63.7378 2.42847 62.5024 2.42847 61.2142V51.4999M33.9999 32.0713C36.5763 32.0713 39.0472 31.0479 40.8689 29.2261C42.6907 27.4043 43.7142 24.9334 43.7142 22.357C43.7142 19.7807 42.6907 17.3098 40.8689 15.488C39.0472 13.6662 36.5763 12.6428 33.9999 12.6428C31.4235 12.6428 28.9526 13.6662 27.1309 15.488C25.3091 17.3098 24.2856 19.7807 24.2856 22.357C24.2856 24.9334 25.3091 27.4043 27.1309 29.2261C28.9526 31.0479 31.4235 32.0713 33.9999 32.0713ZM52.4716 53.9285C51.2162 50.0161 48.7509 46.6034 45.4312 44.1822C42.1115 41.761 38.1088 40.4564 33.9999 40.4564C29.891 40.4564 25.8883 41.761 22.5686 44.1822C19.2488 46.6034 16.7836 50.0161 15.5282 53.9285H52.4716Z" stroke="white" stroke-width="3.7" stroke-linecap="round" stroke-linejoin="round"/>
</g>
</svg>
