<svg width="24" height="23" viewBox="0 0 24 23" fill="none" xmlns="http://www.w3.org/2000/svg">
<path d="M8.79699 11.9136C8.58049 12.0104 8.37173 12.1237 8.17254 12.2524C8.19339 11.339 8.53601 10.4623 9.14 9.7768C9.74398 9.09131 10.5706 8.64104 11.474 8.50534C12.3775 8.36965 13.2999 8.55725 14.0786 9.03508C14.8573 9.5129 15.4423 10.2503 15.7306 11.1172C15.2225 11.6331 14.0977 12.189 12.2063 11.7158C10.7789 11.359 9.66062 11.5297 8.79699 11.9136ZM6.87839 2C5.84973 2 4.8632 2.40863 4.13582 3.13601C3.40845 3.86338 2.99982 4.84991 2.99982 5.87857V16.2214C2.99982 17.2501 3.40845 18.2366 4.13582 18.964C4.8632 19.6914 5.84973 20.1 6.87839 20.1H17.2212C18.2499 20.1 19.2364 19.6914 19.9638 18.964C20.6912 18.2366 21.0998 17.2501 21.0998 16.2214V5.87857C21.0998 4.84991 20.6912 3.86338 19.9638 3.13601C19.2364 2.40863 18.2499 2 17.2212 2H6.87839ZM12.0498 7.17143C13.2444 7.17125 14.4023 7.58467 15.3266 8.34144C16.2509 9.09821 16.8848 10.1517 17.1204 11.3228L17.1527 11.3396L17.132 11.3797C17.3302 12.4251 17.2011 13.5062 16.7623 14.4756C16.3235 15.4449 15.5963 16.2553 14.68 16.7962C13.7637 17.3371 12.7028 17.5822 11.6421 17.4981C10.5814 17.4139 9.57246 17.0046 8.7529 16.326C7.93335 15.6474 7.34307 14.7325 7.06258 13.7061C6.78209 12.6797 6.82504 11.5917 7.18558 10.5906C7.54612 9.58949 8.20668 8.72397 9.07719 8.11207C9.9477 7.50017 10.9858 7.17169 12.0498 7.17143ZM8.81767 5.23214C8.81767 5.48931 8.71552 5.73594 8.53367 5.91778C8.35183 6.09963 8.1052 6.20179 7.84803 6.20179C7.59087 6.20179 7.34423 6.09963 7.16239 5.91778C6.98055 5.73594 6.87839 5.48931 6.87839 5.23214C6.87839 4.97498 6.98055 4.72835 7.16239 4.5465C7.34423 4.36466 7.59087 4.2625 7.84803 4.2625C8.1052 4.2625 8.35183 4.36466 8.53367 4.5465C8.71552 4.72835 8.81767 4.97498 8.81767 5.23214ZM12.6962 4.58571H16.5748C16.7463 4.58571 16.9107 4.65382 17.0319 4.77505C17.1531 4.89628 17.2212 5.0607 17.2212 5.23214C17.2212 5.40359 17.1531 5.56801 17.0319 5.68924C16.9107 5.81047 16.7463 5.87857 16.5748 5.87857H12.6962C12.5248 5.87857 12.3604 5.81047 12.2392 5.68924C12.1179 5.56801 12.0498 5.40359 12.0498 5.23214C12.0498 5.0607 12.1179 4.89628 12.2392 4.77505C12.3604 4.65382 12.5248 4.58571 12.6962 4.58571Z" fill="#323232"/>
</svg>
