<svg width="24" height="23" viewBox="0 0 24 23" fill="none" xmlns="http://www.w3.org/2000/svg">
<path d="M17.1271 12.257C16.9532 12.2577 16.7855 12.1926 16.6575 12.075C15.385 10.9354 13.7369 10.3053 12.0287 10.3053C10.3206 10.3053 8.67248 10.9354 7.4 12.075C7.32956 12.138 7.2474 12.1865 7.1582 12.2177C7.06899 12.2489 6.97451 12.2622 6.88016 12.2569C6.7858 12.2515 6.69343 12.2276 6.60832 12.1866C6.52321 12.1455 6.44704 12.088 6.38417 12.0175C6.26046 11.8729 6.19822 11.6857 6.21075 11.4959C6.22329 11.306 6.30961 11.1286 6.45125 11.0016C7.98222 9.62374 9.96903 8.86133 12.0287 8.86133C14.0885 8.86133 16.0753 9.62374 17.6062 11.0016C17.7479 11.1286 17.8342 11.306 17.8467 11.4959C17.8593 11.6857 17.797 11.8729 17.6733 12.0175C17.6033 12.0923 17.5187 12.1521 17.4248 12.1933C17.3309 12.2345 17.2296 12.2562 17.1271 12.257Z" fill="#323232"/>
<path d="M19.6667 9.58324C19.4856 9.58233 19.3114 9.514 19.1779 9.39158C17.2406 7.54491 14.6669 6.51475 11.9904 6.51475C9.314 6.51475 6.74025 7.54491 4.80295 9.39158C4.73698 9.47001 4.65501 9.53343 4.56253 9.57758C4.47005 9.62173 4.36919 9.6456 4.26673 9.64758C4.16426 9.64955 4.06256 9.62959 3.96845 9.58904C3.87433 9.54849 3.78997 9.48827 3.72104 9.41244C3.6521 9.33661 3.60018 9.24692 3.56875 9.14937C3.53732 9.05183 3.52712 8.94869 3.53882 8.84688C3.55052 8.74507 3.58386 8.64694 3.63661 8.55907C3.68935 8.4712 3.76027 8.39562 3.84461 8.33741C6.04473 6.25334 8.95995 5.0918 11.9904 5.0918C15.0209 5.0918 17.9362 6.25334 20.1363 8.33741C20.2411 8.43451 20.3146 8.56066 20.3474 8.69974C20.3802 8.83882 20.3708 8.98453 20.3204 9.11824C20.27 9.25196 20.1809 9.36762 20.0645 9.45044C19.948 9.53327 19.8095 9.57951 19.6667 9.58324ZM9.4892 14.9882C9.37761 14.9882 9.26756 14.9623 9.16776 14.9124C9.06796 14.8625 8.98114 14.79 8.9142 14.7007C8.85632 14.6257 8.81406 14.5399 8.78992 14.4482C8.76578 14.3566 8.76025 14.2611 8.77365 14.1673C8.78705 14.0735 8.81911 13.9833 8.86794 13.9021C8.91677 13.8209 8.98138 13.7503 9.05795 13.6945C9.90394 13.0471 10.9396 12.6963 12.0048 12.6963C13.0701 12.6963 14.1057 13.0471 14.9517 13.6945C15.0272 13.7511 15.0908 13.8221 15.1389 13.9033C15.187 13.9845 15.2186 14.0744 15.232 14.1678C15.2453 14.2613 15.2401 14.3564 15.2167 14.4479C15.1933 14.5393 15.1521 14.6252 15.0954 14.7007C14.9795 14.8511 14.8095 14.9503 14.6215 14.9772C14.4336 15.004 14.2426 14.9564 14.0892 14.8445C13.4901 14.3883 12.7579 14.1412 12.0048 14.1412C11.2518 14.1412 10.5195 14.3883 9.92045 14.8445C9.7951 14.936 9.64438 14.9863 9.4892 14.9882ZM12 17.9687C11.8094 17.9687 11.6266 17.8929 11.4918 17.7581C11.357 17.6234 11.2813 17.4405 11.2813 17.2499C11.2813 17.0593 11.357 16.8765 11.4918 16.7417C11.6266 16.6069 11.8094 16.5312 12 16.5312C12.1907 16.5312 12.3735 16.6069 12.5083 16.7417C12.6431 16.8765 12.7188 17.0593 12.7188 17.2499C12.7188 17.4405 12.6431 17.6234 12.5083 17.7581C12.3735 17.8929 12.1907 17.9687 12 17.9687Z" fill="#323232"/>
</svg>
